<?xml version="1.0" encoding="utf-8"?>
<!DOCTYPE svg PUBLIC "-//W3C//DTD SVG 1.1 Basic//EN" "http://www.w3.org/Graphics/SVG/1.1/DTD/svg11-basic.dtd">
<svg version="1.1" baseProfile="basic" id="Layer_1"
	 xmlns="http://www.w3.org/2000/svg" xmlns:xlink="http://www.w3.org/1999/xlink" x="0px" y="0px" width="0.71in"
	 height="1.81in" viewBox="0 0 51.121 130.32" xml:space="preserve">
<rect id="connector1pin" x="3.029" y="9.966" fill="#8C8C8C" width="1.184" height="1.184"/>
<rect id="connector2pin" x="3.029" y="17.175" fill="#8C8C8C" width="1.184" height="1.184"/>
<rect id="connector3pin" x="3.029" y="24.384" fill="#8C8C8C" width="1.184" height="1.184"/>
<rect id="connector4pin" x="3.029" y="31.592" fill="#8C8C8C" width="1.184" height="1.184"/>
<rect id="connector5pin" x="3.029" y="38.801" fill="#8C8C8C" width="1.184" height="1.185"/>
<rect id="connector6pin" x="3.029" y="46.01" fill="#8C8C8C" width="1.184" height="1.185"/>
<rect id="connector7pin" x="3.029" y="53.219" fill="#8C8C8C" width="1.184" height="1.185"/>
<rect id="connector8pin" x="3.029" y="60.429" fill="#8C8C8C" width="1.184" height="1.184"/>
<rect id="connector9pin" x="3.029" y="67.638" fill="#8C8C8C" width="1.184" height="1.183"/>
<rect id="connector10pin" x="3.029" y="74.847" fill="#8C8C8C" width="1.184" height="1.183"/>
<rect id="connector11pin" x="3.029" y="82.056" fill="#8C8C8C" width="1.184" height="1.183"/>
<rect id="connector12pin" x="3.029" y="89.264" fill="#8C8C8C" width="1.184" height="1.183"/>
<rect id="connector13pin" x="3.029" y="96.472" fill="#8C8C8C" width="1.184" height="1.184"/>
<rect id="connector14pin" x="3.029" y="103.681" fill="#8C8C8C" width="1.184" height="1.184"/>
<rect id="connector15pin" x="3.029" y="110.89" fill="#8C8C8C" width="1.184" height="1.185"/>
<rect id="connector16pin" x="46.908" y="110.89" fill="#8C8C8C" width="1.184" height="1.184"/>
<rect id="connector17pin" x="46.908" y="103.681" fill="#8C8C8C" width="1.184" height="1.184"/>
<rect id="connector18pin" x="46.908" y="96.474" fill="#8C8C8C" width="1.184" height="1.183"/>
<rect id="connector19pin" x="46.908" y="89.264" fill="#8C8C8C" width="1.184" height="1.183"/>
<rect id="connector20pin" x="46.908" y="82.056" fill="#8C8C8C" width="1.184" height="1.183"/>
<rect id="connector21pin" x="46.908" y="74.846" fill="#8C8C8C" width="1.184" height="1.183"/>
<rect id="connector22pin" x="46.908" y="67.638" fill="#8C8C8C" width="1.184" height="1.183"/>
<rect id="connector23pin" x="46.908" y="60.429" fill="#8C8C8C" width="1.184" height="1.184"/>
<rect id="connector24pin" x="46.908" y="53.22" fill="#8C8C8C" width="1.184" height="1.184"/>
<rect id="connector25pin" x="46.908" y="46.011" fill="#8C8C8C" width="1.184" height="1.184"/>
<rect id="connector26pin" x="46.908" y="38.802" fill="#8C8C8C" width="1.184" height="1.184"/>
<rect id="connector27pin" x="46.908" y="31.594" fill="#8C8C8C" width="1.184" height="1.184"/>
<rect id="connector28pin" x="46.908" y="24.385" fill="#8C8C8C" width="1.184" height="1.184"/>
<rect id="connector29pin" x="46.908" y="17.176" fill="#8C8C8C" width="1.184" height="1.184"/>
<rect id="connector30pin" x="46.908" y="9.967" fill="#8C8C8C" width="1.184" height="1.184"/>
<g id="breadboard">
	<path fill="#0F7391" d="M0.017,0v122.042h51.086V0H0.017z M3.659,120.623c-1.229,0-2.224-0.995-2.224-2.224
		s0.995-2.224,2.224-2.224s2.224,0.995,2.224,2.224S4.888,120.623,3.659,120.623z M3.659,5.866c-1.229,0-2.224-0.995-2.224-2.224
		s0.995-2.224,2.224-2.224s2.224,0.995,2.224,2.224S4.888,5.866,3.659,5.866z M47.431,120.623c-1.229,0-2.223-0.995-2.223-2.224
		s0.994-2.224,2.223-2.224s2.225,0.995,2.225,2.224S48.66,120.623,47.431,120.623z M47.431,5.866c-1.229,0-2.223-0.995-2.223-2.224
		s0.994-2.224,2.223-2.224s2.225,0.995,2.225,2.224S48.66,5.866,47.431,5.866z"/>
	<rect x="2.471" y="9.406" fill="#8D8C8C" width="2.301" height="2.302"/>
	<rect x="3.03" y="9.966" fill="#8C8663" width="1.184" height="1.184"/>
	<polygon fill="#B8AF82" points="2.471,9.406 3.03,9.966 4.212,9.966 4.771,9.406 	"/>
	<polygon fill="#80795B" points="4.212,11.148 4.212,9.966 4.771,9.406 4.771,11.708 	"/>
	<polygon fill="#5E5B43" points="3.03,11.148 4.212,11.148 4.771,11.708 2.471,11.708 	"/>
	<polygon fill="#9A916C" points="2.471,9.406 3.03,9.966 3.03,11.148 2.471,11.708 	"/>
	<rect x="2.471" y="16.616" fill="#8D8C8C" width="2.301" height="2.302"/>
	<rect x="3.03" y="17.174" fill="#8C8663" width="1.184" height="1.186"/>
	<polygon fill="#B8AF82" points="2.471,16.616 3.03,17.174 4.212,17.174 4.771,16.616 	"/>
	<polygon fill="#80795B" points="4.212,18.358 4.212,17.174 4.771,16.616 4.771,18.918 	"/>
	<polygon fill="#5E5B43" points="3.03,18.358 4.212,18.358 4.771,18.918 2.471,18.918 	"/>
	<polygon fill="#9A916C" points="2.471,16.616 3.03,17.174 3.03,18.358 2.471,18.918 	"/>
	<rect x="2.471" y="23.824" fill="#8D8C8C" width="2.301" height="2.302"/>
	<rect x="3.03" y="24.384" fill="#8C8663" width="1.184" height="1.184"/>
	<polygon fill="#B8AF82" points="2.471,23.824 3.03,24.384 4.212,24.384 4.771,23.824 	"/>
	<polygon fill="#80795B" points="4.212,25.567 4.212,24.384 4.771,23.824 4.771,26.126 	"/>
	<polygon fill="#5E5B43" points="3.03,25.567 4.212,25.567 4.771,26.126 2.471,26.126 	"/>
	<polygon fill="#9A916C" points="2.471,23.824 3.03,24.384 3.03,25.567 2.471,26.126 	"/>
	<rect x="2.471" y="31.035" fill="#8D8C8C" width="2.301" height="2.302"/>
	<rect x="3.03" y="31.592" fill="#8C8663" width="1.184" height="1.186"/>
	<polygon fill="#B8AF82" points="2.471,31.035 3.03,31.592 4.212,31.592 4.771,31.035 	"/>
	<polygon fill="#80795B" points="4.212,32.777 4.212,31.592 4.771,31.035 4.771,33.336 	"/>
	<polygon fill="#5E5B43" points="3.03,32.777 4.212,32.777 4.771,33.336 2.471,33.336 	"/>
	<polygon fill="#9A916C" points="2.471,31.035 3.03,31.592 3.03,32.777 2.471,33.336 	"/>
	<rect x="2.471" y="38.243" fill="#8D8C8C" width="2.301" height="2.302"/>
	<rect x="3.03" y="38.802" fill="#8C8663" width="1.184" height="1.184"/>
	<polygon fill="#B8AF82" points="2.471,38.243 3.03,38.802 4.212,38.802 4.771,38.243 	"/>
	<polygon fill="#80795B" points="4.212,39.985 4.212,38.802 4.771,38.243 4.771,40.545 	"/>
	<polygon fill="#5E5B43" points="3.03,39.985 4.212,39.985 4.771,40.545 2.471,40.545 	"/>
	<polygon fill="#9A916C" points="2.471,38.243 3.03,38.802 3.03,39.985 2.471,40.545 	"/>
	<rect x="2.471" y="45.453" fill="#8D8C8C" width="2.301" height="2.302"/>
	<rect x="3.03" y="46.01" fill="#8C8663" width="1.184" height="1.186"/>
	<polygon fill="#B8AF82" points="2.471,45.453 3.03,46.01 4.212,46.01 4.771,45.453 	"/>
	<polygon fill="#80795B" points="4.212,47.195 4.212,46.01 4.771,45.453 4.771,47.755 	"/>
	<polygon fill="#5E5B43" points="3.03,47.195 4.212,47.195 4.771,47.755 2.471,47.755 	"/>
	<polygon fill="#9A916C" points="2.471,45.453 3.03,46.01 3.03,47.195 2.471,47.755 	"/>
	<rect x="2.471" y="52.661" fill="#8D8C8C" width="2.301" height="2.302"/>
	<rect x="3.03" y="53.22" fill="#8C8663" width="1.184" height="1.184"/>
	<polygon fill="#B8AF82" points="2.471,52.661 3.03,53.22 4.212,53.22 4.771,52.661 	"/>
	<polygon fill="#80795B" points="4.212,54.403 4.212,53.22 4.771,52.661 4.771,54.963 	"/>
	<polygon fill="#5E5B43" points="3.03,54.403 4.212,54.403 4.771,54.963 2.471,54.963 	"/>
	<polygon fill="#9A916C" points="2.471,52.661 3.03,53.22 3.03,54.403 2.471,54.963 	"/>
	<rect x="2.471" y="59.871" fill="#8D8C8C" width="2.301" height="2.302"/>
	<rect x="3.03" y="60.428" fill="#8C8663" width="1.184" height="1.186"/>
	<polygon fill="#B8AF82" points="2.471,59.871 3.03,60.428 4.212,60.428 4.771,59.871 	"/>
	<polygon fill="#80795B" points="4.212,61.614 4.212,60.428 4.771,59.871 4.771,62.173 	"/>
	<polygon fill="#5E5B43" points="3.03,61.614 4.212,61.614 4.771,62.173 2.471,62.173 	"/>
	<polygon fill="#9A916C" points="2.471,59.871 3.03,60.428 3.03,61.614 2.471,62.173 	"/>
	<rect x="2.471" y="67.08" fill="#8D8C8C" width="2.301" height="2.302"/>
	<rect x="3.03" y="67.639" fill="#8C8663" width="1.184" height="1.184"/>
	<polygon fill="#B8AF82" points="2.471,67.08 3.03,67.639 4.212,67.639 4.771,67.08 	"/>
	<polygon fill="#80795B" points="4.212,68.821 4.212,67.639 4.771,67.08 4.771,69.382 	"/>
	<polygon fill="#5E5B43" points="3.03,68.821 4.212,68.821 4.771,69.382 2.471,69.382 	"/>
	<polygon fill="#9A916C" points="2.471,67.08 3.03,67.639 3.03,68.821 2.471,69.382 	"/>
	<rect x="2.471" y="74.289" fill="#8D8C8C" width="2.301" height="2.303"/>
	<rect x="3.03" y="74.847" fill="#8C8663" width="1.184" height="1.185"/>
	<polygon fill="#B8AF82" points="2.471,74.289 3.03,74.847 4.212,74.847 4.771,74.289 	"/>
	<polygon fill="#80795B" points="4.212,76.033 4.212,74.847 4.771,74.289 4.771,76.592 	"/>
	<polygon fill="#5E5B43" points="3.03,76.033 4.212,76.033 4.771,76.592 2.471,76.592 	"/>
	<polygon fill="#9A916C" points="2.471,74.289 3.03,74.847 3.03,76.033 2.471,76.592 	"/>
	<rect x="2.471" y="81.497" fill="#8D8C8C" width="2.301" height="2.303"/>
	<rect x="3.03" y="82.057" fill="#8C8663" width="1.184" height="1.183"/>
	<polygon fill="#B8AF82" points="2.471,81.497 3.03,82.057 4.212,82.057 4.771,81.497 	"/>
	<polygon fill="#80795B" points="4.212,83.24 4.212,82.057 4.771,81.497 4.771,83.8 	"/>
	<polygon fill="#5E5B43" points="3.03,83.24 4.212,83.24 4.771,83.8 2.471,83.8 	"/>
	<polygon fill="#9A916C" points="2.471,81.497 3.03,82.057 3.03,83.24 2.471,83.8 	"/>
	<rect x="2.471" y="88.708" fill="#8D8C8C" width="2.301" height="2.303"/>
	<rect x="3.03" y="89.265" fill="#8C8663" width="1.184" height="1.185"/>
	<polygon fill="#B8AF82" points="2.471,88.708 3.03,89.265 4.212,89.265 4.771,88.708 	"/>
	<polygon fill="#80795B" points="4.212,90.45 4.212,89.265 4.771,88.708 4.771,91.01 	"/>
	<polygon fill="#9A916C" points="2.471,88.708 3.03,89.265 3.03,90.45 2.471,91.01 	"/>
	<rect x="2.471" y="95.916" fill="#8D8C8C" width="2.301" height="2.303"/>
	<rect x="3.03" y="96.474" fill="#8C8663" width="1.184" height="1.185"/>
	<polygon fill="#B8AF82" points="2.471,95.916 3.03,96.474 4.212,96.474 4.771,95.916 	"/>
	<polygon fill="#80795B" points="4.212,97.658 4.212,96.474 4.771,95.916 4.771,98.219 	"/>
	<polygon fill="#5E5B43" points="3.03,97.658 4.212,97.658 4.771,98.219 2.471,98.219 	"/>
	<polygon fill="#9A916C" points="2.471,95.916 3.03,96.474 3.03,97.658 2.471,98.219 	"/>
	<rect x="2.471" y="103.124" fill="#8D8C8C" width="2.301" height="2.303"/>
	<rect x="3.03" y="103.684" fill="#8C8663" width="1.184" height="1.183"/>
	<polygon fill="#B8AF82" points="2.471,103.124 3.03,103.684 4.212,103.684 4.771,103.124 	"/>
	<polygon fill="#80795B" points="4.212,104.866 4.212,103.684 4.771,103.124 4.771,105.426 	"/>
	<polygon fill="#5E5B43" points="3.03,104.866 4.212,104.866 4.771,105.426 2.471,105.426 	"/>
	<polygon fill="#9A916C" points="2.471,103.124 3.03,103.684 3.03,104.866 2.471,105.426 	"/>
	<rect x="2.471" y="110.334" fill="#8D8C8C" width="2.301" height="2.303"/>
	<rect x="3.03" y="110.891" fill="#8C8663" width="1.184" height="1.186"/>
	<polygon fill="#B8AF82" points="2.471,110.334 3.03,110.891 4.212,110.891 4.771,110.334 	"/>
	<polygon fill="#80795B" points="4.212,112.077 4.212,110.891 4.771,110.334 4.771,112.636 	"/>
	<polygon fill="#9A916C" points="2.471,110.334 3.03,110.891 3.03,112.077 2.471,112.636 	"/>
	<rect x="46.348" y="9.406" fill="#8D8C8C" width="2.302" height="2.302"/>
	<rect x="46.908" y="9.966" fill="#8C8663" width="1.184" height="1.184"/>
	<polygon fill="#B8AF82" points="46.348,9.406 46.908,9.966 48.09,9.966 48.65,9.406 	"/>
	<polygon fill="#80795B" points="48.09,11.148 48.09,9.966 48.65,9.406 48.65,11.708 	"/>
	<polygon fill="#5E5B43" points="46.908,11.148 48.09,11.148 48.65,11.708 46.348,11.708 	"/>
	<polygon fill="#9A916C" points="46.348,9.406 46.908,9.966 46.908,11.148 46.348,11.708 	"/>
	<rect x="46.348" y="16.616" fill="#8D8C8C" width="2.302" height="2.302"/>
	<rect x="46.908" y="17.174" fill="#8C8663" width="1.184" height="1.186"/>
	<polygon fill="#B8AF82" points="46.348,16.616 46.908,17.174 48.09,17.174 48.65,16.616 	"/>
	<polygon fill="#80795B" points="48.09,18.358 48.09,17.174 48.65,16.616 48.65,18.918 	"/>
	<polygon fill="#5E5B43" points="46.908,18.358 48.09,18.358 48.65,18.918 46.348,18.918 	"/>
	<polygon fill="#9A916C" points="46.348,16.616 46.908,17.174 46.908,18.358 46.348,18.918 	"/>
	<rect x="46.348" y="23.824" fill="#8D8C8C" width="2.302" height="2.302"/>
	<rect x="46.908" y="24.384" fill="#8C8663" width="1.184" height="1.184"/>
	<polygon fill="#B8AF82" points="46.348,23.824 46.908,24.384 48.09,24.384 48.65,23.824 	"/>
	<polygon fill="#80795B" points="48.09,25.567 48.09,24.384 48.65,23.824 48.65,26.126 	"/>
	<polygon fill="#5E5B43" points="46.908,25.567 48.09,25.567 48.65,26.126 46.348,26.126 	"/>
	<polygon fill="#9A916C" points="46.348,23.824 46.908,24.384 46.908,25.567 46.348,26.126 	"/>
	<rect x="46.348" y="31.035" fill="#8D8C8C" width="2.302" height="2.302"/>
	<rect x="46.908" y="31.592" fill="#8C8663" width="1.184" height="1.186"/>
	<polygon fill="#B8AF82" points="46.348,31.035 46.908,31.592 48.09,31.592 48.65,31.035 	"/>
	<polygon fill="#80795B" points="48.09,32.777 48.09,31.592 48.65,31.035 48.65,33.336 	"/>
	<polygon fill="#5E5B43" points="46.908,32.777 48.09,32.777 48.65,33.336 46.348,33.336 	"/>
	<polygon fill="#9A916C" points="46.348,31.035 46.908,31.592 46.908,32.777 46.348,33.336 	"/>
	<rect x="46.348" y="38.243" fill="#8D8C8C" width="2.302" height="2.302"/>
	<rect x="46.908" y="38.802" fill="#8C8663" width="1.184" height="1.184"/>
	<polygon fill="#B8AF82" points="46.348,38.243 46.908,38.802 48.09,38.802 48.65,38.243 	"/>
	<polygon fill="#80795B" points="48.09,39.985 48.09,38.802 48.65,38.243 48.65,40.545 	"/>
	<polygon fill="#5E5B43" points="46.908,39.985 48.09,39.985 48.65,40.545 46.348,40.545 	"/>
	<polygon fill="#9A916C" points="46.348,38.243 46.908,38.802 46.908,39.985 46.348,40.545 	"/>
	<rect x="46.348" y="45.453" fill="#8D8C8C" width="2.302" height="2.302"/>
	<rect x="46.908" y="46.01" fill="#8C8663" width="1.184" height="1.186"/>
	<polygon fill="#B8AF82" points="46.348,45.453 46.908,46.01 48.09,46.01 48.65,45.453 	"/>
	<polygon fill="#80795B" points="48.09,47.195 48.09,46.01 48.65,45.453 48.65,47.755 	"/>
	<polygon fill="#5E5B43" points="46.908,47.195 48.09,47.195 48.65,47.755 46.348,47.755 	"/>
	<polygon fill="#9A916C" points="46.348,45.453 46.908,46.01 46.908,47.195 46.348,47.755 	"/>
	<rect x="46.348" y="52.661" fill="#8D8C8C" width="2.302" height="2.302"/>
	<rect x="46.908" y="53.22" fill="#8C8663" width="1.184" height="1.184"/>
	<polygon fill="#B8AF82" points="46.348,52.661 46.908,53.22 48.09,53.22 48.65,52.661 	"/>
	<polygon fill="#80795B" points="48.09,54.403 48.09,53.22 48.65,52.661 48.65,54.963 	"/>
	<polygon fill="#5E5B43" points="46.908,54.403 48.09,54.403 48.65,54.963 46.348,54.963 	"/>
	<polygon fill="#9A916C" points="46.348,52.661 46.908,53.22 46.908,54.403 46.348,54.963 	"/>
	<rect x="46.348" y="59.871" fill="#8D8C8C" width="2.302" height="2.302"/>
	<rect x="46.908" y="60.428" fill="#8C8663" width="1.184" height="1.186"/>
	<polygon fill="#B8AF82" points="46.348,59.871 46.908,60.428 48.09,60.428 48.65,59.871 	"/>
	<polygon fill="#80795B" points="48.09,61.614 48.09,60.428 48.65,59.871 48.65,62.173 	"/>
	<polygon fill="#5E5B43" points="46.908,61.614 48.09,61.614 48.65,62.173 46.348,62.173 	"/>
	<polygon fill="#9A916C" points="46.348,59.871 46.908,60.428 46.908,61.614 46.348,62.173 	"/>
	<rect x="46.348" y="67.08" fill="#8D8C8C" width="2.302" height="2.302"/>
	<rect x="46.908" y="67.639" fill="#8C8663" width="1.184" height="1.184"/>
	<polygon fill="#B8AF82" points="46.348,67.08 46.908,67.639 48.09,67.639 48.65,67.08 	"/>
	<polygon fill="#80795B" points="48.09,68.821 48.09,67.639 48.65,67.08 48.65,69.382 	"/>
	<polygon fill="#5E5B43" points="46.908,68.821 48.09,68.821 48.65,69.382 46.348,69.382 	"/>
	<polygon fill="#9A916C" points="46.348,67.08 46.908,67.639 46.908,68.821 46.348,69.382 	"/>
	<rect x="46.348" y="74.289" fill="#8D8C8C" width="2.302" height="2.303"/>
	<rect x="46.908" y="74.847" fill="#8C8663" width="1.184" height="1.185"/>
	<polygon fill="#B8AF82" points="46.348,74.289 46.908,74.847 48.09,74.847 48.65,74.289 	"/>
	<polygon fill="#80795B" points="48.09,76.033 48.09,74.847 48.65,74.289 48.65,76.592 	"/>
	<polygon fill="#5E5B43" points="46.908,76.033 48.09,76.033 48.65,76.592 46.348,76.592 	"/>
	<polygon fill="#9A916C" points="46.348,74.289 46.908,74.847 46.908,76.033 46.348,76.592 	"/>
	<rect x="46.348" y="81.497" fill="#8D8C8C" width="2.302" height="2.303"/>
	<rect x="46.908" y="82.057" fill="#8C8663" width="1.184" height="1.183"/>
	<polygon fill="#B8AF82" points="46.348,81.497 46.908,82.057 48.09,82.057 48.65,81.497 	"/>
	<polygon fill="#80795B" points="48.09,83.24 48.09,82.057 48.65,81.497 48.65,83.8 	"/>
	<polygon fill="#5E5B43" points="46.908,83.24 48.09,83.24 48.65,83.8 46.348,83.8 	"/>
	<polygon fill="#9A916C" points="46.348,81.497 46.908,82.057 46.908,83.24 46.348,83.8 	"/>
	<rect x="46.348" y="88.708" fill="#8D8C8C" width="2.302" height="2.303"/>
	<rect x="46.908" y="89.265" fill="#8C8663" width="1.184" height="1.185"/>
	<polygon fill="#B8AF82" points="46.348,88.708 46.908,89.265 48.09,89.265 48.65,88.708 	"/>
	<polygon fill="#80795B" points="48.09,90.45 48.09,89.265 48.65,88.708 48.65,91.01 	"/>
	<polygon fill="#9A916C" points="46.348,88.708 46.908,89.265 46.908,90.45 46.348,91.01 	"/>
	<rect x="46.348" y="95.916" fill="#8D8C8C" width="2.302" height="2.303"/>
	<rect x="46.908" y="96.474" fill="#8C8663" width="1.184" height="1.185"/>
	<polygon fill="#B8AF82" points="46.348,95.916 46.908,96.474 48.09,96.474 48.65,95.916 	"/>
	<polygon fill="#80795B" points="48.09,97.658 48.09,96.474 48.65,95.916 48.65,98.219 	"/>
	<polygon fill="#5E5B43" points="46.908,97.658 48.09,97.658 48.65,98.219 46.348,98.219 	"/>
	<polygon fill="#9A916C" points="46.348,95.916 46.908,96.474 46.908,97.658 46.348,98.219 	"/>
	<rect x="46.348" y="103.124" fill="#8D8C8C" width="2.302" height="2.303"/>
	<rect x="46.908" y="103.684" fill="#8C8663" width="1.184" height="1.183"/>
	<polygon fill="#B8AF82" points="46.348,103.124 46.908,103.684 48.09,103.684 48.65,103.124 	"/>
	<polygon fill="#80795B" points="48.09,104.866 48.09,103.684 48.65,103.124 48.65,105.426 	"/>
	<polygon fill="#5E5B43" points="46.908,104.866 48.09,104.866 48.65,105.426 46.348,105.426 	"/>
	<polygon fill="#9A916C" points="46.348,103.124 46.908,103.684 46.908,104.866 46.348,105.426 	"/>
	<rect x="46.348" y="110.334" fill="#8D8C8C" width="2.302" height="2.303"/>
	<rect x="46.908" y="110.891" fill="#8C8663" width="1.184" height="1.186"/>
	<polygon fill="#B8AF82" points="46.348,110.334 46.908,110.891 48.09,110.891 48.65,110.334 	"/>
	<polygon fill="#80795B" points="48.09,112.077 48.09,110.891 48.65,110.334 48.65,112.636 	"/>
	<polygon fill="#9A916C" points="46.348,110.334 46.908,110.891 46.908,112.077 46.348,112.636 	"/>
	<path fill="#02809E" d="M39.947,53.406c0-3.036-2.232-5.535-5.14-5.996v-0.095H17.263c-3.362,0-6.089,2.726-6.089,6.091
		c0,3.362,2.727,6.09,6.089,6.09h17.544v-0.095C37.716,58.94,39.947,56.441,39.947,53.406z"/>
	<rect x="11.295" y="64.924" fill="#02809E" width="28.531" height="28.531"/>
	<polygon fill="#404040" points="34.807,7.208 36.375,5.644 36.375,1.566 34.807,0 30.731,0 29.166,1.566 27.598,0 23.522,0 
		21.956,1.566 20.389,0 16.312,0 14.747,1.566 14.747,5.644 16.312,7.208 16.312,7.209 14.747,8.776 14.747,12.853 16.312,14.417 
		20.389,14.417 21.956,12.853 23.522,14.417 27.598,14.417 29.164,12.853 29.166,12.853 30.731,14.417 34.807,14.417 36.375,12.853 
		36.375,8.776 34.807,7.209 	"/>
	<rect x="17.201" y="2.453" fill="#8D8C8C" width="2.301" height="2.302"/>
	<rect x="17.761" y="3.011" fill="#8C8663" width="1.184" height="1.185"/>
	<polygon fill="#B8AF82" points="17.201,2.453 17.761,3.011 18.942,3.011 19.502,2.453 	"/>
	<polygon fill="#80795B" points="18.942,4.195 18.942,3.011 19.502,2.453 19.502,4.755 	"/>
	<polygon fill="#5E5B43" points="17.761,4.195 18.942,4.195 19.502,4.755 17.201,4.755 	"/>
	<polygon fill="#9A916C" points="17.201,2.453 17.761,3.011 17.761,4.195 17.201,4.755 	"/>
	<rect x="24.41" y="2.453" fill="#8D8C8C" width="2.3" height="2.302"/>
	<rect x="24.97" y="3.011" fill="#8C8663" width="1.184" height="1.185"/>
	<polygon fill="#B8AF82" points="24.41,2.453 24.97,3.011 26.152,3.011 26.71,2.453 	"/>
	<polygon fill="#80795B" points="26.152,4.195 26.152,3.011 26.71,2.453 26.71,4.755 	"/>
	<polygon fill="#5E5B43" points="24.97,4.195 26.152,4.195 26.71,4.755 24.41,4.755 	"/>
	<polygon fill="#9A916C" points="24.41,2.453 24.97,3.011 24.97,4.195 24.41,4.755 	"/>
	<rect x="31.619" y="2.453" fill="#8D8C8C" width="2.301" height="2.302"/>
	<rect x="32.179" y="3.011" fill="#8C8663" width="1.184" height="1.185"/>
	<polygon fill="#B8AF82" points="31.619,2.453 32.179,3.011 33.361,3.011 33.919,2.453 	"/>
	<polygon fill="#80795B" points="33.361,4.195 33.361,3.011 33.919,2.453 33.919,4.755 	"/>
	<polygon fill="#5E5B43" points="32.179,4.195 33.361,4.195 33.919,4.755 31.619,4.755 	"/>
	<polygon fill="#9A916C" points="31.619,2.453 32.179,3.011 32.179,4.195 31.619,4.755 	"/>
	<rect x="17.201" y="9.662" fill="#8D8C8C" width="2.301" height="2.302"/>
	<rect x="17.761" y="10.22" fill="#8C8663" width="1.184" height="1.185"/>
	<polygon fill="#B8AF82" points="17.201,9.662 17.761,10.22 18.942,10.22 19.502,9.662 	"/>
	<polygon fill="#80795B" points="18.942,11.405 18.942,10.22 19.502,9.662 19.502,11.964 	"/>
	<polygon fill="#5E5B43" points="17.761,11.405 18.942,11.405 19.502,11.964 17.201,11.964 	"/>
	<polygon fill="#9A916C" points="17.201,9.662 17.761,10.22 17.761,11.405 17.201,11.964 	"/>
	<rect x="24.41" y="9.662" fill="#8D8C8C" width="2.3" height="2.302"/>
	<rect x="24.97" y="10.22" fill="#8C8663" width="1.184" height="1.185"/>
	<polygon fill="#B8AF82" points="24.41,9.662 24.97,10.22 26.152,10.22 26.71,9.662 	"/>
	<polygon fill="#80795B" points="26.152,11.405 26.152,10.22 26.71,9.662 26.71,11.964 	"/>
	<polygon fill="#5E5B43" points="24.97,11.405 26.152,11.405 26.71,11.964 24.41,11.964 	"/>
	<polygon fill="#9A916C" points="24.41,9.662 24.97,10.22 24.97,11.405 24.41,11.964 	"/>
	<rect x="31.619" y="9.662" fill="#8D8C8C" width="2.301" height="2.302"/>
	<rect x="32.179" y="10.22" fill="#8C8663" width="1.184" height="1.185"/>
	<polygon fill="#B8AF82" points="31.619,9.662 32.179,10.22 33.361,10.22 33.919,9.662 	"/>
	<polygon fill="#80795B" points="33.361,11.405 33.361,10.22 33.919,9.662 33.919,11.964 	"/>
	<polygon fill="#5E5B43" points="32.179,11.405 33.361,11.405 33.919,11.964 31.619,11.964 	"/>
	<polygon fill="#9A916C" points="31.619,9.662 32.179,10.22 32.179,11.405 31.619,11.964 	"/>
	<path fill="#8D8C8C" d="M11.19,44.094c1.005,0,1.832-0.736,1.985-1.699h0.031v-6.868c0-1.113-0.902-2.017-2.017-2.017
		c-1.114,0-2.019,0.902-2.019,2.017v6.868h0.033C9.358,43.355,10.184,44.094,11.19,44.094z"/>
	<rect x="9.583" y="37.036" fill="#FBBE0E" width="3.215" height="3.653"/>
	<path fill="#8D8C8C" d="M39.949,44.094c1.005,0,1.83-0.736,1.984-1.699h0.031v-5.876c0-1.113-0.904-2.017-2.018-2.017
		s-2.018,0.902-2.018,2.017v5.876h0.033C38.117,43.355,38.941,44.094,39.949,44.094z"/>
	<rect x="38.338" y="37.603" fill="#FBBE0E" width="3.215" height="3.654"/>
	<path fill="#8D8C8C" d="M18.353,44.094c1.005,0,1.831-0.736,1.984-1.699h0.031v-6.868c0-1.113-0.902-2.017-2.017-2.017
		s-2.019,0.902-2.019,2.017v6.868h0.033C16.521,43.355,17.346,44.094,18.353,44.094z"/>
	<rect x="16.745" y="37.036" fill="#FBBE0E" width="3.215" height="3.653"/>
	<path fill="#8D8C8C" d="M32.792,44.094c1.006,0,1.832-0.736,1.984-1.699h0.031v-9.707c0-1.113-0.901-2.017-2.017-2.017
		c-1.112,0-2.019,0.902-2.019,2.017v9.707h0.033C30.96,43.355,31.785,44.094,32.792,44.094z"/>
	<rect x="29.994" y="33.508" fill="#666666" width="5.598" height="7.751"/>
	<circle fill="#404040" cx="32.792" cy="37.383" r="1.985"/>
	<g>
		<path fill="#FFFFFF" d="M16.704,18.615c0.032-0.108,0.076-0.204,0.204-0.204c0.132,0,0.18,0.1,0.208,0.204l0.771,2.707
			c0.028,0.096-0.08,0.2-0.192,0.2c-0.124,0-0.188-0.104-0.216-0.2l-0.148-0.48h-0.852l-0.152,0.48
			c-0.028,0.096-0.092,0.2-0.216,0.2c-0.112,0-0.22-0.104-0.192-0.2L16.704,18.615z M16.912,19.359h-0.008l-0.312,1.083h0.627
			L16.912,19.359z"/>
		<path fill="#FFFFFF" d="M18.851,19.65c0-0.14,0.016-0.284,0.192-0.284c0.152,0,0.192,0.128,0.192,0.256v0.156l0.3-0.248
			c0.108-0.088,0.22-0.164,0.339-0.164h0.308c0.148,0,0.272,0.048,0.376,0.152c0.128,0.128,0.172,0.26,0.172,0.436
			c0,0.132-0.024,0.268-0.188,0.268c-0.14,0-0.196-0.112-0.196-0.236c0-0.064,0-0.112-0.04-0.168
			c-0.048-0.068-0.14-0.068-0.232-0.068h-0.112c-0.072,0-0.124,0.036-0.192,0.092l-0.536,0.444v0.972
			c0,0.132-0.028,0.264-0.192,0.264c-0.164,0-0.192-0.132-0.192-0.264V19.65z"/>
		<path fill="#FFFFFF" d="M22.787,19.366c0.132,0,0.24,0.072,0.38,0.212l0.064,0.068v-0.808c0-0.132,0.028-0.264,0.192-0.264
			c0.164,0,0.192,0.132,0.192,0.264v2.415c0,0.132-0.028,0.268-0.192,0.268c-0.152,0-0.192-0.128-0.192-0.256v-0.024l-0.084,0.084
			c-0.12,0.112-0.252,0.196-0.368,0.196h-0.372c-0.128,0-0.272-0.088-0.328-0.136l-0.132-0.112c-0.16-0.136-0.212-0.24-0.212-0.443
			v-0.772c0-0.204,0.052-0.308,0.212-0.443l0.132-0.112c0.12-0.104,0.208-0.136,0.368-0.136H22.787z M22.119,20.677
			c0,0.108,0,0.244,0.06,0.292l0.116,0.092c0.048,0.04,0.096,0.076,0.144,0.076h0.272c0.048,0,0.116-0.032,0.188-0.096l0.22-0.188
			c0.056-0.048,0.112-0.096,0.112-0.168v-0.484c0-0.072-0.056-0.12-0.112-0.168l-0.22-0.188c-0.072-0.064-0.14-0.096-0.188-0.096
			h-0.272c-0.048,0-0.096,0.036-0.144,0.076l-0.116,0.092c-0.06,0.048-0.06,0.184-0.06,0.292V20.677z"/>
		<path fill="#FFFFFF" d="M26.498,21.238c0,0.088,0.016,0.284-0.188,0.284c-0.164,0-0.192-0.136-0.192-0.268v-0.064l-0.312,0.204
			c-0.124,0.08-0.228,0.128-0.332,0.128H25.19c-0.108,0-0.228-0.032-0.355-0.14c-0.172-0.148-0.168-0.312-0.176-0.52l-0.04-1.208
			c-0.004-0.14,0.016-0.288,0.192-0.288c0.164,0,0.184,0.14,0.188,0.264l0.04,1.18c0.004,0.088,0.008,0.192,0.04,0.248
			c0.032,0.056,0.132,0.08,0.224,0.08h0.128c0.044,0,0.084-0.012,0.12-0.036l0.564-0.355V19.63c0-0.132,0.028-0.264,0.192-0.264
			c0.163,0,0.191,0.132,0.191,0.264V21.238z"/>
		<path fill="#FFFFFF" d="M28.642,21.137h0.287c0.128,0,0.264,0.028,0.264,0.192c0,0.168-0.151,0.192-0.264,0.192h-0.975
			c-0.113,0-0.265-0.024-0.265-0.192c0-0.164,0.136-0.192,0.265-0.192h0.303V19.75h-0.303c-0.113,0-0.265-0.024-0.265-0.192
			c0-0.164,0.136-0.192,0.265-0.192h0.403c0.22,0,0.284,0.04,0.284,0.268V21.137z M28.062,18.591c0-0.136,0.076-0.18,0.18-0.18h0.22
			c0.104,0,0.181,0.044,0.181,0.18v0.184c0,0.136-0.076,0.18-0.181,0.18h-0.22c-0.104,0-0.18-0.044-0.18-0.18V18.591z"/>
		<path fill="#FFFFFF" d="M30.769,20.142v1.116c0,0.132-0.027,0.264-0.191,0.264s-0.192-0.132-0.192-0.264V19.65
			c0-0.14,0.017-0.284,0.192-0.284c0.172,0,0.191,0.144,0.191,0.28v0.044v0.008l0.312-0.204c0.1-0.064,0.207-0.128,0.332-0.128
			h0.283c0.148,0,0.24,0.04,0.355,0.14c0.172,0.147,0.164,0.312,0.172,0.52l0.041,1.207c0.004,0.136-0.017,0.288-0.188,0.288
			c-0.156,0-0.188-0.132-0.192-0.26l-0.039-1.184c-0.008-0.236-0.028-0.328-0.26-0.328h-0.129c-0.039,0-0.08,0.012-0.119,0.036
			L30.769,20.142z"/>
		<path fill="#FFFFFF" d="M33.269,20.082c0-0.256,0.053-0.344,0.244-0.5c0.188-0.156,0.275-0.216,0.543-0.216h0.305
			c0.268,0,0.355,0.06,0.543,0.216c0.192,0.156,0.244,0.244,0.244,0.5v0.724c0,0.252-0.063,0.348-0.264,0.516
			c-0.199,0.167-0.279,0.2-0.523,0.2h-0.305c-0.243,0-0.323-0.032-0.523-0.2c-0.199-0.168-0.264-0.264-0.264-0.516V20.082z
			 M33.653,20.805c0,0.08,0.028,0.132,0.14,0.228c0.084,0.072,0.145,0.104,0.264,0.104h0.305c0.119,0,0.18-0.032,0.264-0.104
			c0.111-0.096,0.141-0.148,0.141-0.228v-0.724c0-0.08-0.029-0.132-0.141-0.228c-0.084-0.072-0.145-0.104-0.264-0.104h-0.305
			c-0.119,0-0.18,0.032-0.264,0.104c-0.111,0.096-0.14,0.148-0.14,0.228V20.805z"/>
	</g>
	<g>
		<path fill="#FFFFFF" d="M21.824,23.422c0-0.128,0.056-0.2,0.2-0.2c0.144,0,0.2,0.072,0.2,0.2v2.91h-0.528l-1.043-2.398v-0.004
			h-0.008v2.199c0,0.128-0.056,0.2-0.2,0.2c-0.144,0-0.2-0.072-0.2-0.2v-2.911h0.528l1.043,2.427h-0.004h0.008L21.824,23.422z"/>
		<path fill="#FFFFFF" d="M23.82,24.557c-0.112,0-0.264-0.024-0.264-0.192c0-0.164,0.136-0.192,0.264-0.192h0.527
			c0.2,0,0.344,0.02,0.496,0.172c0.148,0.148,0.168,0.264,0.172,0.456l0.04,1.304c0.004,0.112-0.052,0.224-0.18,0.224
			c-0.1,0-0.2-0.084-0.196-0.192l-0.264,0.136c-0.108,0.056-0.112,0.056-0.236,0.056h-0.368c-0.172,0-0.296-0.02-0.436-0.136
			c-0.16-0.132-0.2-0.272-0.2-0.472v-0.168c0-0.184,0.044-0.3,0.188-0.428c0.132-0.116,0.28-0.144,0.448-0.144h0.824v-0.088
			c0-0.288-0.064-0.336-0.34-0.336H23.82z M23.816,25.365c-0.104,0-0.256,0.028-0.256,0.168v0.256c0,0.128,0.156,0.156,0.248,0.156
			h0.424l0.424-0.22V25.64c0-0.212-0.06-0.276-0.272-0.276H23.816z"/>
		<path fill="#FFFFFF" d="M26.444,24.948v1.116c0,0.132-0.028,0.264-0.192,0.264c-0.163,0-0.191-0.132-0.191-0.264v-1.607
			c0-0.14,0.016-0.284,0.191-0.284c0.172,0,0.192,0.144,0.192,0.28v0.044v0.008l0.312-0.204c0.101-0.064,0.209-0.128,0.332-0.128
			h0.284c0.147,0,0.239,0.04,0.356,0.14c0.172,0.147,0.163,0.312,0.172,0.52l0.039,1.207c0.004,0.136-0.016,0.288-0.188,0.288
			c-0.156,0-0.188-0.132-0.191-0.26l-0.041-1.184c-0.008-0.236-0.027-0.328-0.26-0.328h-0.127c-0.041,0-0.08,0.012-0.121,0.036
			L26.444,24.948z"/>
		<path fill="#FFFFFF" d="M28.943,24.888c0-0.256,0.053-0.344,0.244-0.5c0.188-0.156,0.276-0.216,0.544-0.216h0.304
			c0.268,0,0.355,0.06,0.544,0.216c0.192,0.156,0.244,0.244,0.244,0.5v0.724c0,0.252-0.063,0.348-0.265,0.516
			c-0.199,0.167-0.279,0.2-0.523,0.2h-0.304c-0.243,0-0.323-0.032-0.523-0.2c-0.2-0.168-0.265-0.264-0.265-0.516V24.888z
			 M29.328,25.612c0,0.08,0.027,0.132,0.14,0.228c0.084,0.072,0.144,0.104,0.264,0.104h0.304c0.12,0,0.18-0.032,0.264-0.104
			c0.112-0.096,0.141-0.148,0.141-0.228v-0.724c0-0.08-0.028-0.132-0.141-0.228c-0.084-0.072-0.144-0.104-0.264-0.104h-0.304
			c-0.12,0-0.18,0.032-0.264,0.104c-0.112,0.096-0.14,0.148-0.14,0.228V25.612z"/>
	</g>
	<g>
		<path fill="#FFFFFF" d="M0.544,14.108H0.452c-0.083,0-0.153-0.03-0.153-0.125c0-0.09,0.068-0.125,0.145-0.125h0.418
			c0.195,0,0.293,0.08,0.378,0.25l0.22,0.44c0.05,0.103,0.075,0.175,0.075,0.291c0,0.1-0.028,0.185-0.073,0.275l-0.228,0.455
			c-0.088,0.178-0.2,0.235-0.396,0.235H0.424c-0.065,0-0.125-0.035-0.125-0.125c0-0.09,0.06-0.125,0.125-0.125h0.12V14.108z
			 M0.795,15.554h0.047c0.105,0,0.13-0.013,0.175-0.105l0.22-0.445c0.027-0.058,0.047-0.1,0.047-0.163
			c0-0.085-0.027-0.133-0.062-0.205l-0.208-0.423c-0.053-0.107-0.075-0.105-0.19-0.105h-0.03V15.554z"/>
		<path fill="#FFFFFF" d="M3.087,13.858c0.138,0,0.25,0.112,0.25,0.25v1.447c0,0.14-0.107,0.25-0.25,0.25H2.352
			c-0.143,0-0.25-0.11-0.25-0.25v-1.447c0-0.138,0.113-0.25,0.25-0.25H3.087z M3.087,15.554v-1.447H2.352v1.447H3.087z"/>
		<path fill="#FFFFFF" d="M4.154,15.679c0,0.08-0.035,0.125-0.125,0.125c-0.09,0-0.125-0.045-0.125-0.125v-1.822h0.841
			c0.198,0,0.396,0.14,0.396,0.363v0.173c0,0.235-0.195,0.355-0.396,0.355h-0.23l0.563,0.806c0.027,0.037,0.062,0.085,0.062,0.132
			c0,0.07-0.058,0.118-0.127,0.118c-0.05,0-0.083-0.03-0.11-0.07l-0.69-0.986H4.154V15.679z M4.154,14.498h0.555
			c0.07,0,0.18-0.005,0.18-0.105V14.22c0-0.1-0.103-0.113-0.178-0.113H4.154V14.498z"/>
		<path fill="#FFFFFF" d="M6.182,14.831l-0.445-0.766c-0.018-0.027-0.03-0.055-0.03-0.09c0-0.065,0.06-0.118,0.123-0.118
			c0.083,0,0.11,0.062,0.145,0.123l0.351,0.598l0.351-0.598c0.035-0.06,0.062-0.123,0.145-0.123c0.062,0,0.123,0.052,0.123,0.118
			c0,0.035-0.013,0.062-0.03,0.09l-0.445,0.766l0.445,0.766c0.018,0.027,0.03,0.055,0.03,0.09c0,0.065-0.06,0.118-0.123,0.118
			c-0.083,0-0.11-0.062-0.145-0.123l-0.351-0.598l-0.351,0.598c-0.035,0.06-0.062,0.123-0.145,0.123
			c-0.062,0-0.123-0.053-0.123-0.118c0-0.035,0.013-0.062,0.03-0.09L6.182,14.831z"/>
	</g>
	<g>
		<path fill="#FFFFFF" d="M8.563,4.753V4.66c0-0.083,0.03-0.153,0.125-0.153c0.09,0,0.125,0.067,0.125,0.145v0.418
			c0,0.195-0.08,0.293-0.25,0.378l-0.44,0.22C8.02,5.719,7.947,5.744,7.832,5.744c-0.1,0-0.185-0.027-0.275-0.073L7.102,5.444
			c-0.178-0.087-0.235-0.2-0.235-0.396V4.633c0-0.065,0.035-0.125,0.125-0.125c0.09,0,0.125,0.06,0.125,0.125v0.12H8.563z
			 M7.116,5.003v0.047c0,0.105,0.013,0.13,0.105,0.175l0.445,0.22c0.058,0.027,0.1,0.047,0.163,0.047
			c0.085,0,0.133-0.027,0.205-0.062l0.423-0.208c0.107-0.053,0.105-0.075,0.105-0.19v-0.03H7.116z"/>
		<path fill="#FFFFFF" d="M7.116,7.296h0.506c0.072,0,0.125,0.033,0.125,0.125c0,0.092-0.053,0.125-0.125,0.125H6.991
			c-0.09,0-0.125-0.06-0.125-0.125V6.435c0-0.065,0.035-0.125,0.125-0.125c0.09,0,0.125,0.06,0.125,0.125v0.368h1.447V6.435
			c0-0.065,0.035-0.125,0.125-0.125s0.125,0.06,0.125,0.125v0.618H7.116V7.296z"/>
		<path fill="#FFFFFF" d="M8.563,8.363h-0.09c-0.08,0-0.125-0.035-0.125-0.125c0-0.09,0.045-0.125,0.125-0.125h0.34v1.236h-0.34
			c-0.08,0-0.125-0.035-0.125-0.125c0-0.09,0.045-0.125,0.125-0.125h0.09V8.855H6.991c-0.08,0-0.125-0.035-0.125-0.125
			s0.045-0.125,0.125-0.125h1.572V8.363z"/>
		<path fill="#FFFFFF" d="M7.84,10.39l0.766-0.445c0.027-0.018,0.055-0.03,0.09-0.03c0.065,0,0.118,0.06,0.118,0.123
			c0,0.083-0.062,0.11-0.123,0.146l-0.598,0.35l0.598,0.35c0.06,0.035,0.123,0.063,0.123,0.146c0,0.062-0.052,0.123-0.118,0.123
			c-0.035,0-0.062-0.013-0.09-0.03L7.84,10.675L7.074,11.12c-0.027,0.018-0.055,0.03-0.09,0.03c-0.065,0-0.118-0.06-0.118-0.123
			c0-0.083,0.062-0.11,0.123-0.146l0.598-0.35l-0.598-0.35c-0.06-0.035-0.123-0.063-0.123-0.146c0-0.062,0.053-0.123,0.118-0.123
			c0.035,0,0.062,0.013,0.09,0.03L7.84,10.39z"/>
	</g>
	<g>
		<path fill="#FFFFFF" d="M43.078,10.165h-0.4c-0.08,0-0.125-0.035-0.125-0.125c0-0.09,0.045-0.125,0.125-0.125h0.396
			c0.032,0,0.067,0.002,0.098,0.015l1.218,0.478c0.063,0.025,0.111,0.047,0.111,0.125s-0.048,0.1-0.111,0.125l-1.218,0.478
			c-0.03,0.013-0.065,0.015-0.098,0.015h-0.396c-0.08,0-0.125-0.035-0.125-0.125c0-0.09,0.045-0.125,0.125-0.125h0.4l0.956-0.368
			L43.078,10.165z"/>
		<path fill="#FFFFFF" d="M44.25,8.606V8.238c0-0.065,0.034-0.125,0.125-0.125c0.09,0,0.125,0.06,0.125,0.125v0.986
			c0,0.065-0.035,0.125-0.125,0.125c-0.091,0-0.125-0.06-0.125-0.125V8.856h-1.447v0.368c0,0.065-0.035,0.125-0.125,0.125
			s-0.125-0.06-0.125-0.125V8.238c0-0.065,0.035-0.125,0.125-0.125s0.125,0.06,0.125,0.125v0.368H44.25z"/>
		<path fill="#FFFFFF" d="M42.679,6.558c-0.08,0-0.125-0.035-0.125-0.125c0-0.09,0.045-0.125,0.125-0.125h1.822v0.331L43,7.291
			h-0.002v0.005h1.377c0.08,0,0.125,0.035,0.125,0.125c0,0.09-0.045,0.125-0.125,0.125h-1.822V7.216l1.52-0.653v0.002V6.561
			L42.679,6.558z"/>
	</g>
	<g>
		<path fill="#FFFFFF" d="M1.018,22.906c0,0.096-0.042,0.15-0.15,0.15c-0.108,0-0.15-0.054-0.15-0.15v-2.188h1.01
			c0.238,0,0.475,0.168,0.475,0.436v0.208c0,0.283-0.234,0.427-0.475,0.427H1.451l0.676,0.968c0.033,0.045,0.075,0.103,0.075,0.16
			c0,0.084-0.069,0.141-0.153,0.141c-0.06,0-0.099-0.036-0.132-0.084l-0.83-1.185H1.018V22.906z M1.018,21.487h0.667
			c0.084,0,0.216-0.006,0.216-0.126v-0.208c0-0.12-0.123-0.135-0.213-0.135h-0.67V21.487z"/>
		<path fill="#FFFFFF" d="M4.259,22.467c0.06,0.078,0.105,0.147,0.105,0.25c0,0.226-0.171,0.34-0.379,0.34H3.325
			c-0.114,0-0.213-0.021-0.304-0.096C2.94,22.894,2.88,22.786,2.88,22.68c0-0.096,0.054-0.18,0.159-0.18
			c0.087,0,0.141,0.072,0.141,0.153c0,0.09,0.048,0.102,0.132,0.102h0.652c0.024,0,0.099,0.009,0.099-0.036
			c0-0.024-0.042-0.069-0.054-0.087l-1.031-1.326C2.916,21.226,2.88,21.166,2.88,21.06c0-0.12,0.057-0.222,0.159-0.289
			c0.084-0.054,0.153-0.054,0.25-0.054h0.637c0.114,0,0.21,0.024,0.298,0.1c0.078,0.069,0.141,0.18,0.141,0.285
			c0,0.096-0.048,0.175-0.156,0.175c-0.09,0-0.145-0.057-0.145-0.142c0-0.102-0.051-0.117-0.144-0.117H3.283
			c-0.033,0-0.103-0.009-0.103,0.042c0,0.027,0.033,0.063,0.045,0.081L4.259,22.467z"/>
		<path fill="#FFFFFF" d="M5.343,21.018v0.108c0,0.096-0.042,0.15-0.15,0.15c-0.108,0-0.15-0.054-0.15-0.15v-0.409h1.485v0.409
			c0,0.096-0.042,0.15-0.15,0.15s-0.15-0.054-0.15-0.15v-0.108H5.935v1.888c0,0.096-0.042,0.15-0.15,0.15
			c-0.108,0-0.15-0.054-0.15-0.15v-1.888H5.343z"/>
	</g>
	<g>
		<path fill="#FFFFFF" d="M44.896,22.906c0,0.096-0.042,0.15-0.15,0.15c-0.107,0-0.15-0.054-0.15-0.15v-2.188h1.01
			c0.238,0,0.476,0.168,0.476,0.436v0.208c0,0.283-0.234,0.427-0.476,0.427H45.33l0.676,0.968c0.033,0.045,0.075,0.103,0.075,0.16
			c0,0.084-0.069,0.141-0.153,0.141c-0.061,0-0.1-0.036-0.133-0.084l-0.829-1.185h-0.069V22.906z M44.896,21.487h0.668
			c0.084,0,0.216-0.006,0.216-0.126v-0.208c0-0.12-0.123-0.135-0.214-0.135h-0.67V21.487z"/>
		<path fill="#FFFFFF" d="M48.138,22.467c0.061,0.078,0.105,0.147,0.105,0.25c0,0.226-0.172,0.34-0.379,0.34h-0.662
			c-0.113,0-0.213-0.021-0.303-0.096c-0.082-0.066-0.142-0.174-0.142-0.28c0-0.096,0.054-0.18,0.159-0.18
			c0.087,0,0.141,0.072,0.141,0.153c0,0.09,0.049,0.102,0.133,0.102h0.652c0.023,0,0.1,0.009,0.1-0.036
			c0-0.024-0.043-0.069-0.055-0.087l-1.031-1.326c-0.062-0.081-0.099-0.141-0.099-0.247c0-0.12,0.058-0.222,0.159-0.289
			c0.084-0.054,0.153-0.054,0.25-0.054h0.637c0.114,0,0.211,0.024,0.297,0.1c0.079,0.069,0.143,0.18,0.143,0.285
			c0,0.096-0.049,0.175-0.156,0.175c-0.091,0-0.145-0.057-0.145-0.142c0-0.102-0.051-0.117-0.145-0.117h-0.637
			c-0.033,0-0.104-0.009-0.104,0.042c0,0.027,0.033,0.063,0.046,0.081L48.138,22.467z"/>
		<path fill="#FFFFFF" d="M49.221,21.018v0.108c0,0.096-0.042,0.15-0.15,0.15s-0.149-0.054-0.149-0.15v-0.409h1.484v0.409
			c0,0.096-0.042,0.15-0.15,0.15s-0.15-0.054-0.15-0.15v-0.108h-0.291v1.888c0,0.096-0.043,0.15-0.15,0.15
			c-0.108,0-0.15-0.054-0.15-0.15v-1.888H49.221z"/>
	</g>
	<g>
		<path fill="#FFFFFF" d="M45.488,15.084c-0.078,0-0.15-0.042-0.15-0.15c0-0.108,0.072-0.15,0.15-0.15h0.593v0.592
			c0,0.292-0.195,0.472-0.481,0.472h-0.517c-0.138,0-0.241-0.024-0.346-0.12c-0.12-0.108-0.142-0.22-0.142-0.37v-0.752
			c0-0.192,0.043-0.292,0.156-0.438l0.355-0.454c0.119-0.153,0.225-0.205,0.42-0.205h0.403c0.078,0,0.15,0.042,0.15,0.15
			c0,0.108-0.072,0.15-0.15,0.15h-0.36c-0.166,0-0.154-0.003-0.253,0.123L44.99,14.35c-0.094,0.117-0.094,0.244-0.094,0.391v0.589
			c0,0.166,0.036,0.216,0.207,0.216h0.479c0.108,0,0.198-0.024,0.198-0.156v-0.307H45.488z"/>
		<path fill="#FFFFFF" d="M47.945,13.662c0-0.096,0.043-0.15,0.15-0.15c0.109,0,0.15,0.054,0.15,0.15v2.188h-0.396l-0.784-1.804
			v-0.003h-0.007v1.653c0,0.096-0.041,0.15-0.15,0.15c-0.107,0-0.149-0.054-0.149-0.15v-2.188h0.396l0.784,1.825h-0.002h0.006
			L47.945,13.662z"/>
		<path fill="#FFFFFF" d="M49.215,13.809h-0.111c-0.099,0-0.183-0.036-0.183-0.15c0-0.108,0.08-0.15,0.174-0.15h0.502
			c0.234,0,0.352,0.096,0.453,0.301l0.266,0.529c0.06,0.123,0.09,0.21,0.09,0.349c0,0.12-0.033,0.222-0.088,0.331l-0.273,0.547
			c-0.104,0.213-0.24,0.283-0.475,0.283h-0.499c-0.078,0-0.149-0.042-0.149-0.15c0-0.108,0.071-0.15,0.149-0.15h0.145V13.809z
			 M49.516,15.547h0.058c0.125,0,0.156-0.015,0.209-0.126l0.266-0.535c0.033-0.069,0.057-0.12,0.057-0.195
			c0-0.102-0.033-0.159-0.075-0.247l-0.249-0.508c-0.063-0.129-0.09-0.126-0.229-0.126h-0.036V15.547z"/>
	</g>
	<g>
		<path fill="#FFFFFF" d="M45.187,28.498c0-0.096,0.043-0.15,0.15-0.15c0.109,0,0.15,0.054,0.15,0.15v0.448h0.442
			c0.078,0,0.15,0.042,0.15,0.15c0,0.108-0.072,0.15-0.15,0.15h-0.442v0.442c0,0.096-0.041,0.15-0.15,0.15
			c-0.107,0-0.15-0.054-0.15-0.15v-0.442h-0.441c-0.078,0-0.15-0.042-0.15-0.15c0-0.108,0.072-0.15,0.15-0.15h0.441V28.498z"/>
		<path fill="#FFFFFF" d="M47.357,28.946h0.553c0.096,0,0.168,0.015,0.24,0.084c0.084,0.078,0.094,0.15,0.094,0.255v0.643
			c0,0.093-0.01,0.16-0.072,0.235c-0.076,0.09-0.154,0.102-0.262,0.102h-0.668c-0.078,0-0.123-0.021-0.197-0.054l-0.115-0.051
			c-0.081-0.036-0.171-0.063-0.171-0.168c0-0.078,0.065-0.15,0.144-0.15c0.037,0,0.063,0.009,0.097,0.024l0.091,0.039
			c0.041,0.018,0.111,0.06,0.158,0.06h0.695v-0.718h-0.887v-1.32h1.037c0.078,0,0.15,0.042,0.15,0.15c0,0.108-0.072,0.15-0.15,0.15
			h-0.736V28.946z"/>
		<path fill="#FFFFFF" d="M50.105,28.558v-0.481c0-0.096,0.042-0.15,0.15-0.15s0.15,0.054,0.15,0.15v0.475
			c0,0.039-0.003,0.081-0.018,0.117l-0.574,1.464c-0.031,0.075-0.058,0.132-0.15,0.132c-0.094,0-0.121-0.057-0.15-0.132
			l-0.574-1.464c-0.016-0.036-0.018-0.078-0.018-0.117v-0.475c0-0.096,0.041-0.15,0.149-0.15s0.15,0.054,0.15,0.15v0.481
			l0.442,1.148L50.105,28.558z"/>
	</g>
	<g>
		<path fill="#FFFFFF" d="M46.265,35.289c0.025-0.081,0.058-0.153,0.154-0.153c0.099,0,0.135,0.075,0.156,0.153l0.58,2.035
			c0.021,0.072-0.061,0.15-0.145,0.15c-0.094,0-0.141-0.078-0.162-0.15l-0.111-0.361h-0.641l-0.113,0.361
			c-0.021,0.072-0.07,0.15-0.163,0.15c-0.084,0-0.165-0.078-0.144-0.15L46.265,35.289z M46.421,35.848h-0.006l-0.234,0.815h0.473
			L46.421,35.848z"/>
		<path fill="#FFFFFF" d="M49.023,35.135c0.166,0,0.301,0.135,0.301,0.301v1.737c0,0.168-0.129,0.301-0.301,0.301H48.14
			c-0.172,0-0.301-0.132-0.301-0.301v-1.737c0-0.166,0.135-0.301,0.301-0.301H49.023z M49.023,37.174v-1.737H48.14v1.737H49.023z"/>
	</g>
	<g>
		<path fill="#FFFFFF" d="M46.265,42.498c0.025-0.081,0.058-0.153,0.154-0.153c0.099,0,0.135,0.075,0.156,0.153l0.58,2.035
			c0.021,0.072-0.061,0.15-0.145,0.15c-0.094,0-0.141-0.078-0.162-0.15l-0.111-0.361h-0.641l-0.113,0.361
			c-0.021,0.072-0.07,0.15-0.163,0.15c-0.084,0-0.165-0.078-0.144-0.15L46.265,42.498z M46.421,43.057h-0.006l-0.234,0.815h0.473
			L46.421,43.057z"/>
		<path fill="#FFFFFF" d="M49.023,44.383v-0.607c0-0.087,0.039-0.15,0.15-0.15s0.15,0.063,0.15,0.15v0.757
			c0,0.108-0.072,0.15-0.15,0.15H47.99c-0.078,0-0.15-0.042-0.15-0.15c0-0.108,0.072-0.15,0.15-0.15h0.441v-1.737H47.99
			c-0.078,0-0.15-0.042-0.15-0.15c0-0.108,0.072-0.15,0.15-0.15h0.742v2.038H49.023z"/>
	</g>
	<g>
		<path fill="#FFFFFF" d="M46.265,49.707c0.025-0.081,0.058-0.153,0.154-0.153c0.099,0,0.135,0.075,0.156,0.153l0.58,2.035
			c0.021,0.072-0.061,0.15-0.145,0.15c-0.094,0-0.141-0.078-0.162-0.15l-0.111-0.361h-0.641l-0.113,0.361
			c-0.021,0.072-0.07,0.15-0.163,0.15c-0.084,0-0.165-0.078-0.144-0.15L46.265,49.707z M46.421,50.266h-0.006l-0.234,0.815h0.473
			L46.421,50.266z"/>
		<path fill="#FFFFFF" d="M48.14,51.592h1.033c0.078,0,0.15,0.042,0.15,0.15c0,0.108-0.072,0.15-0.15,0.15h-1.334v-0.98
			c0-0.226,0.114-0.34,0.34-0.34h0.844v-0.718H47.99c-0.078,0-0.15-0.042-0.15-0.15c0-0.108,0.072-0.15,0.15-0.15h0.998
			c0.1,0,0.168,0.015,0.243,0.084c0.084,0.078,0.093,0.159,0.093,0.268v0.616c0,0.108-0.009,0.189-0.093,0.268
			c-0.075,0.069-0.144,0.084-0.243,0.084H48.14V51.592z"/>
	</g>
	<g>
		<path fill="#FFFFFF" d="M46.265,56.916c0.025-0.081,0.058-0.153,0.154-0.153c0.099,0,0.135,0.075,0.156,0.153l0.58,2.035
			c0.021,0.072-0.061,0.15-0.145,0.15c-0.094,0-0.141-0.078-0.162-0.15l-0.111-0.361h-0.641l-0.113,0.361
			c-0.021,0.072-0.07,0.15-0.163,0.15c-0.084,0-0.165-0.078-0.144-0.15L46.265,56.916z M46.421,57.475h-0.006l-0.234,0.815h0.473
			L46.421,57.475z"/>
		<path fill="#FFFFFF" d="M47.99,57.063c-0.078,0-0.15-0.042-0.15-0.15c0-0.108,0.072-0.15,0.15-0.15h1.033
			c0.172,0,0.301,0.129,0.301,0.301v0.577c0,0.12-0.023,0.208-0.117,0.292c0.094,0.084,0.117,0.171,0.117,0.292v0.577
			c0,0.171-0.129,0.301-0.301,0.301H47.99c-0.078,0-0.15-0.042-0.15-0.15c0-0.108,0.072-0.15,0.15-0.15h1.033v-0.499
			c0-0.168-0.065-0.219-0.15-0.219h-0.588c-0.078,0-0.15-0.042-0.15-0.15c0-0.108,0.072-0.15,0.15-0.15h0.588
			c0.085,0,0.15-0.051,0.15-0.219v-0.499H47.99z"/>
	</g>
	<g>
		<path fill="#FFFFFF" d="M46.265,64.125c0.025-0.081,0.058-0.153,0.154-0.153c0.099,0,0.135,0.075,0.156,0.153l0.58,2.035
			c0.021,0.072-0.061,0.15-0.145,0.15c-0.094,0-0.141-0.078-0.162-0.15l-0.111-0.361h-0.641l-0.113,0.361
			c-0.021,0.072-0.07,0.15-0.163,0.15c-0.084,0-0.165-0.078-0.144-0.15L46.265,64.125z M46.421,64.684h-0.006l-0.234,0.815h0.473
			L46.421,64.684z"/>
		<path fill="#FFFFFF" d="M48.873,65.246v-0.869c0-0.075,0.037-0.15,0.15-0.15c0.115,0,0.15,0.075,0.15,0.15v0.869
			c0.078,0,0.15,0.042,0.15,0.15c0,0.108-0.072,0.15-0.15,0.15v0.613c0,0.096-0.041,0.15-0.15,0.15c-0.107,0-0.15-0.055-0.15-0.15
			v-0.613H47.99v-1.425c0-0.075,0.035-0.15,0.15-0.15c0.113,0,0.15,0.075,0.15,0.15v1.125H48.873z"/>
	</g>
	<g>
		<path fill="#FFFFFF" d="M46.265,71.334c0.025-0.081,0.058-0.153,0.154-0.153c0.099,0,0.135,0.075,0.156,0.153l0.58,2.035
			c0.021,0.072-0.061,0.15-0.145,0.15c-0.094,0-0.141-0.078-0.162-0.15l-0.111-0.361h-0.641l-0.113,0.361
			c-0.021,0.072-0.07,0.15-0.163,0.15c-0.084,0-0.165-0.078-0.144-0.15L46.265,71.334z M46.421,71.892h-0.006l-0.234,0.815h0.473
			L46.421,71.892z"/>
		<path fill="#FFFFFF" d="M48.437,72.199h0.553c0.098,0,0.169,0.016,0.241,0.085c0.084,0.078,0.093,0.15,0.093,0.255v0.644
			c0,0.093-0.009,0.159-0.072,0.235c-0.074,0.09-0.152,0.102-0.262,0.102h-0.666c-0.078,0-0.124-0.021-0.199-0.055l-0.113-0.051
			c-0.082-0.035-0.172-0.062-0.172-0.168c0-0.078,0.066-0.15,0.145-0.15c0.035,0,0.062,0.009,0.096,0.023l0.09,0.039
			c0.043,0.019,0.111,0.061,0.16,0.061h0.693V72.5h-0.887V71.18h1.037c0.078,0,0.15,0.042,0.15,0.15s-0.072,0.15-0.15,0.15h-0.736
			V72.199z"/>
	</g>
	<g>
		<path fill="#FFFFFF" d="M46.265,78.543c0.025-0.081,0.058-0.153,0.154-0.153c0.099,0,0.135,0.075,0.156,0.153l0.58,2.035
			c0.021,0.072-0.061,0.15-0.145,0.15c-0.094,0-0.141-0.078-0.162-0.15l-0.111-0.361h-0.641l-0.113,0.361
			c-0.021,0.072-0.07,0.15-0.163,0.15c-0.084,0-0.165-0.078-0.144-0.15L46.265,78.543z M46.421,79.101h-0.006l-0.234,0.815h0.473
			L46.421,79.101z"/>
		<path fill="#FFFFFF" d="M48.14,79.664h1.004c0.15,0,0.18,0.063,0.18,0.201v0.674c0,0.142-0.06,0.189-0.195,0.189h-1.094
			c-0.142,0-0.195-0.051-0.195-0.189V78.54c0-0.069,0.023-0.15,0.129-0.15h0.181c0.078,0,0.142,0.072,0.142,0.15
			c0,0.091-0.063,0.15-0.15,0.15V79.664z M48.14,79.965v0.463h0.883v-0.463H48.14z"/>
	</g>
	<g>
		<path fill="#FFFFFF" d="M46.265,85.752c0.025-0.081,0.058-0.153,0.154-0.153c0.099,0,0.135,0.075,0.156,0.153l0.58,2.035
			c0.021,0.072-0.061,0.15-0.145,0.15c-0.094,0-0.141-0.078-0.162-0.15l-0.111-0.36h-0.641l-0.113,0.36
			c-0.021,0.072-0.07,0.15-0.163,0.15c-0.084,0-0.165-0.078-0.144-0.15L46.265,85.752z M46.421,86.311h-0.006l-0.234,0.814h0.473
			L46.421,86.311z"/>
		<path fill="#FFFFFF" d="M48.14,85.899c0,0.066-0.055,0.15-0.15,0.15c-0.097,0-0.15-0.084-0.15-0.15v-0.15
			c0-0.065,0.054-0.15,0.15-0.15h1.334v0.872c0,0.105,0.004,0.117-0.08,0.189l-0.422,0.363c-0.078,0.069-0.084,0.075-0.084,0.181
			v0.583c0,0.097-0.042,0.15-0.15,0.15c-0.107,0-0.15-0.054-0.15-0.15v-0.724c0-0.1,0.004-0.108,0.078-0.175l0.415-0.357
			c0.1-0.088,0.093-0.085,0.093-0.217v-0.415H48.14z"/>
	</g>
	<g>
		<path fill="#FFFFFF" d="M44.668,93.327c0.021-0.067,0.048-0.128,0.128-0.128c0.082,0,0.112,0.062,0.129,0.128l0.484,1.694
			c0.018,0.061-0.051,0.125-0.121,0.125c-0.077,0-0.117-0.064-0.135-0.125l-0.093-0.301h-0.532l-0.096,0.301
			c-0.018,0.061-0.058,0.125-0.135,0.125c-0.07,0-0.139-0.064-0.121-0.125L44.668,93.327z M44.798,93.793h-0.005l-0.195,0.678h0.394
			L44.798,93.793z"/>
		<path fill="#FFFFFF" d="M46.23,95.021c0,0.08-0.035,0.125-0.125,0.125s-0.125-0.045-0.125-0.125v-1.822h0.841
			c0.198,0,0.396,0.141,0.396,0.363v0.173c0,0.235-0.195,0.354-0.396,0.354h-0.229l0.562,0.807c0.027,0.037,0.062,0.085,0.062,0.133
			c0,0.07-0.058,0.117-0.127,0.117c-0.051,0-0.084-0.03-0.111-0.07l-0.689-0.986H46.23V95.021z M46.23,93.84h0.556
			c0.07,0,0.181-0.005,0.181-0.104v-0.173c0-0.1-0.104-0.113-0.178-0.113H46.23V93.84z"/>
		<path fill="#FFFFFF" d="M48.894,94.896c0.064,0,0.125,0.035,0.125,0.125s-0.061,0.125-0.125,0.125h-1.111v-1.947h1.111
			c0.064,0,0.125,0.035,0.125,0.125c0,0.091-0.061,0.125-0.125,0.125h-0.861v0.599H48.4c0.065,0,0.125,0.035,0.125,0.125
			c0,0.091-0.06,0.126-0.125,0.126h-0.367v0.598H48.894z"/>
		<path fill="#FFFFFF" d="M49.584,93.199h1.111c0.065,0,0.125,0.035,0.125,0.125c0,0.091-0.06,0.125-0.125,0.125h-0.86v0.386h0.615
			c0.064,0,0.125,0.035,0.125,0.126c0,0.09-0.061,0.125-0.125,0.125h-0.615v0.936c0,0.08-0.035,0.125-0.126,0.125
			c-0.09,0-0.125-0.045-0.125-0.125V93.199z"/>
	</g>
	<g>
		<path fill="#FFFFFF" d="M44.986,100.317c-0.078,0-0.15-0.042-0.15-0.15s0.072-0.15,0.15-0.15h1.033
			c0.172,0,0.301,0.13,0.301,0.301v0.577c0,0.12-0.023,0.207-0.117,0.291c0.094,0.085,0.117,0.172,0.117,0.292v0.577
			c0,0.172-0.129,0.301-0.301,0.301h-1.033c-0.078,0-0.15-0.042-0.15-0.15c0-0.107,0.072-0.15,0.15-0.15h1.033v-0.499
			c0-0.168-0.065-0.22-0.15-0.22h-0.588c-0.078,0-0.15-0.041-0.15-0.15c0-0.107,0.072-0.15,0.15-0.15h0.588
			c0.085,0,0.15-0.051,0.15-0.219v-0.499H44.986z"/>
		<path fill="#FFFFFF" d="M48.182,100.648v-0.481c0-0.097,0.042-0.15,0.15-0.15s0.15,0.054,0.15,0.15v0.476
			c0,0.039-0.003,0.08-0.019,0.117l-0.574,1.463c-0.029,0.076-0.057,0.133-0.15,0.133c-0.093,0-0.119-0.057-0.15-0.133l-0.573-1.463
			c-0.015-0.037-0.019-0.078-0.019-0.117v-0.476c0-0.097,0.043-0.15,0.15-0.15c0.108,0,0.15,0.054,0.15,0.15v0.481l0.441,1.148
			L48.182,100.648z"/>
		<path fill="#FFFFFF" d="M49.31,100.317c-0.078,0-0.149-0.042-0.149-0.15s0.071-0.15,0.149-0.15h1.035
			c0.171,0,0.301,0.13,0.301,0.301v0.577c0,0.12-0.024,0.207-0.117,0.291c0.093,0.085,0.117,0.172,0.117,0.292v0.577
			c0,0.172-0.13,0.301-0.301,0.301H49.31c-0.078,0-0.149-0.042-0.149-0.15c0-0.107,0.071-0.15,0.149-0.15h1.035v-0.499
			c0-0.168-0.066-0.22-0.15-0.22h-0.59c-0.078,0-0.15-0.041-0.15-0.15c0-0.107,0.072-0.15,0.15-0.15h0.59
			c0.084,0,0.15-0.051,0.15-0.219v-0.499H49.31z"/>
	</g>
	<g>
		<path fill="#FFFFFF" d="M44.89,107.525h-0.111c-0.1,0-0.184-0.036-0.184-0.15c0-0.107,0.082-0.15,0.175-0.15h0.502
			c0.234,0,0.352,0.096,0.454,0.301l0.264,0.529c0.061,0.123,0.091,0.21,0.091,0.349c0,0.12-0.033,0.222-0.087,0.331l-0.273,0.547
			c-0.105,0.213-0.24,0.282-0.476,0.282h-0.499c-0.078,0-0.15-0.042-0.15-0.15s0.072-0.15,0.15-0.15h0.145V107.525z M45.191,109.262
			h0.057c0.127,0,0.156-0.015,0.211-0.126l0.264-0.535c0.033-0.069,0.058-0.12,0.058-0.195c0-0.102-0.032-0.159-0.075-0.246
			l-0.25-0.508c-0.062-0.13-0.09-0.127-0.229-0.127h-0.035V109.262z"/>
		<path fill="#FFFFFF" d="M47.943,109.262v-0.606c0-0.088,0.039-0.15,0.15-0.15s0.15,0.062,0.15,0.15v0.757
			c0,0.108-0.072,0.15-0.15,0.15h-1.186c-0.078,0-0.149-0.042-0.149-0.15s0.071-0.15,0.149-0.15h0.442v-1.737h-0.442
			c-0.078,0-0.149-0.042-0.149-0.15c0-0.107,0.071-0.15,0.149-0.15h0.743v2.038H47.943z"/>
		<path fill="#FFFFFF" d="M49.071,107.525c-0.078,0-0.149-0.042-0.149-0.15c0-0.107,0.071-0.15,0.149-0.15h1.034
			c0.172,0,0.301,0.129,0.301,0.301v0.577c0,0.12-0.023,0.208-0.117,0.292c0.094,0.084,0.117,0.171,0.117,0.291v0.577
			c0,0.171-0.129,0.301-0.301,0.301h-1.034c-0.078,0-0.149-0.042-0.149-0.15s0.071-0.15,0.149-0.15h1.034v-0.499
			c0-0.168-0.066-0.219-0.15-0.219h-0.589c-0.078,0-0.15-0.043-0.15-0.15c0-0.108,0.072-0.15,0.15-0.15h0.589
			c0.084,0,0.15-0.051,0.15-0.22v-0.499H49.071z"/>
	</g>
	<g>
		<path fill="#FFFFFF" d="M1.61,29.502c-0.078,0-0.15-0.042-0.15-0.15c0-0.108,0.072-0.15,0.15-0.15h0.592v0.592
			c0,0.292-0.195,0.472-0.481,0.472H1.204c-0.138,0-0.241-0.024-0.346-0.12c-0.12-0.108-0.141-0.22-0.141-0.37v-0.752
			c0-0.192,0.042-0.292,0.156-0.438l0.354-0.454c0.12-0.153,0.226-0.205,0.421-0.205h0.403c0.078,0,0.15,0.042,0.15,0.15
			c0,0.108-0.072,0.15-0.15,0.15H1.691c-0.165,0-0.153-0.003-0.252,0.123l-0.328,0.418c-0.093,0.117-0.093,0.244-0.093,0.391v0.589
			c0,0.166,0.036,0.216,0.208,0.216h0.478c0.108,0,0.198-0.024,0.198-0.156v-0.307H1.61z"/>
		<path fill="#FFFFFF" d="M4.067,28.08c0-0.096,0.042-0.15,0.15-0.15c0.108,0,0.15,0.054,0.15,0.15v2.188H3.971l-0.784-1.804v-0.003
			H3.18v1.653c0,0.096-0.042,0.15-0.15,0.15c-0.108,0-0.15-0.054-0.15-0.15v-2.188h0.396l0.785,1.825H4.058h0.006L4.067,28.08z"/>
		<path fill="#FFFFFF" d="M5.337,28.227H5.226c-0.099,0-0.183-0.036-0.183-0.15c0-0.108,0.081-0.15,0.174-0.15h0.502
			c0.234,0,0.352,0.096,0.454,0.301l0.265,0.529c0.06,0.123,0.09,0.21,0.09,0.349c0,0.12-0.033,0.222-0.087,0.331l-0.273,0.547
			c-0.105,0.213-0.24,0.283-0.475,0.283H5.192c-0.078,0-0.15-0.042-0.15-0.15c0-0.108,0.072-0.15,0.15-0.15h0.145V28.227z
			 M5.638,29.965h0.057c0.126,0,0.156-0.015,0.21-0.126l0.264-0.535c0.033-0.069,0.057-0.12,0.057-0.195
			c0-0.102-0.033-0.159-0.075-0.247l-0.25-0.508c-0.063-0.129-0.09-0.126-0.229-0.126H5.638V29.965z"/>
	</g>
	<g>
		<path fill="#FFFFFF" d="M2.093,35.436H1.981c-0.099,0-0.183-0.036-0.183-0.15c0-0.108,0.081-0.15,0.174-0.15h0.502
			c0.234,0,0.352,0.096,0.454,0.301l0.265,0.529c0.06,0.123,0.09,0.21,0.09,0.349c0,0.12-0.033,0.222-0.087,0.331l-0.273,0.547
			c-0.105,0.213-0.24,0.283-0.475,0.283H1.948c-0.078,0-0.15-0.042-0.15-0.15c0-0.108,0.072-0.15,0.15-0.15h0.145V35.436z
			 M2.394,37.174h0.057c0.126,0,0.156-0.015,0.21-0.126l0.264-0.535c0.033-0.069,0.057-0.12,0.057-0.195
			c0-0.102-0.033-0.159-0.075-0.247l-0.25-0.508c-0.063-0.129-0.09-0.126-0.229-0.126H2.394V37.174z"/>
		<path fill="#FFFFFF" d="M4.261,37.174h1.034c0.078,0,0.15,0.042,0.15,0.15c0,0.108-0.072,0.15-0.15,0.15H3.961v-0.98
			c0-0.226,0.114-0.34,0.339-0.34h0.845v-0.718H4.111c-0.078,0-0.15-0.042-0.15-0.15c0-0.108,0.072-0.15,0.15-0.15h0.998
			c0.099,0,0.168,0.015,0.244,0.084c0.084,0.078,0.093,0.159,0.093,0.268v0.616c0,0.108-0.009,0.189-0.093,0.268
			c-0.075,0.069-0.145,0.084-0.244,0.084H4.261V37.174z"/>
	</g>
	<g>
		<path fill="#FFFFFF" d="M2.093,42.645H1.981c-0.099,0-0.183-0.036-0.183-0.15c0-0.108,0.081-0.15,0.174-0.15h0.502
			c0.234,0,0.352,0.096,0.454,0.301l0.265,0.529c0.06,0.123,0.09,0.21,0.09,0.349c0,0.12-0.033,0.222-0.087,0.331l-0.273,0.547
			c-0.105,0.213-0.24,0.283-0.475,0.283H1.948c-0.078,0-0.15-0.042-0.15-0.15c0-0.108,0.072-0.15,0.15-0.15h0.145V42.645z
			 M2.394,44.383h0.057c0.126,0,0.156-0.015,0.21-0.126l0.264-0.535c0.033-0.069,0.057-0.12,0.057-0.195
			c0-0.102-0.033-0.159-0.075-0.247l-0.25-0.508c-0.063-0.129-0.09-0.126-0.229-0.126H2.394V44.383z"/>
		<path fill="#FFFFFF" d="M4.111,42.645c-0.078,0-0.15-0.042-0.15-0.15c0-0.108,0.072-0.15,0.15-0.15h1.034
			c0.171,0,0.301,0.129,0.301,0.301v0.577c0,0.12-0.024,0.208-0.117,0.292c0.093,0.084,0.117,0.171,0.117,0.292v0.577
			c0,0.171-0.129,0.301-0.301,0.301H4.111c-0.078,0-0.15-0.042-0.15-0.15c0-0.108,0.072-0.15,0.15-0.15h1.034v-0.499
			c0-0.168-0.066-0.219-0.15-0.219H4.406c-0.078,0-0.15-0.042-0.15-0.15c0-0.108,0.072-0.15,0.15-0.15h0.589
			c0.084,0,0.15-0.051,0.15-0.219v-0.499H4.111z"/>
	</g>
	<g>
		<path fill="#FFFFFF" d="M2.093,49.854H1.981c-0.099,0-0.183-0.036-0.183-0.15c0-0.108,0.081-0.15,0.174-0.15h0.502
			c0.234,0,0.352,0.096,0.454,0.301l0.265,0.529c0.06,0.123,0.09,0.21,0.09,0.349c0,0.12-0.033,0.222-0.087,0.331L2.922,51.61
			c-0.105,0.213-0.24,0.283-0.475,0.283H1.948c-0.078,0-0.15-0.042-0.15-0.15c0-0.108,0.072-0.15,0.15-0.15h0.145V49.854z
			 M2.394,51.592h0.057c0.126,0,0.156-0.015,0.21-0.126l0.264-0.535c0.033-0.069,0.057-0.12,0.057-0.195
			c0-0.102-0.033-0.159-0.075-0.247l-0.25-0.508c-0.063-0.129-0.09-0.126-0.229-0.126H2.394V51.592z"/>
		<path fill="#FFFFFF" d="M4.995,50.828V49.96c0-0.075,0.036-0.15,0.15-0.15s0.15,0.075,0.15,0.15v0.869
			c0.078,0,0.15,0.042,0.15,0.15c0,0.108-0.072,0.15-0.15,0.15v0.613c0,0.096-0.042,0.15-0.15,0.15c-0.108,0-0.15-0.054-0.15-0.15
			v-0.613H4.111v-1.425c0-0.075,0.036-0.15,0.15-0.15s0.15,0.075,0.15,0.15v1.125H4.995z"/>
	</g>
	<g>
		<path fill="#FFFFFF" d="M2.093,57.063H1.981c-0.099,0-0.183-0.036-0.183-0.15c0-0.108,0.081-0.15,0.174-0.15h0.502
			c0.234,0,0.352,0.096,0.454,0.301l0.265,0.529c0.06,0.123,0.09,0.21,0.09,0.349c0,0.12-0.033,0.222-0.087,0.331l-0.273,0.547
			c-0.105,0.213-0.24,0.283-0.475,0.283H1.948c-0.078,0-0.15-0.042-0.15-0.15c0-0.108,0.072-0.15,0.15-0.15h0.145V57.063z
			 M2.394,58.801h0.057c0.126,0,0.156-0.015,0.21-0.126l0.264-0.535c0.033-0.069,0.057-0.12,0.057-0.195
			c0-0.102-0.033-0.159-0.075-0.247l-0.25-0.508c-0.063-0.129-0.09-0.126-0.229-0.126H2.394V58.801z"/>
		<path fill="#FFFFFF" d="M4.559,57.781h0.553c0.096,0,0.168,0.015,0.24,0.084c0.084,0.078,0.093,0.15,0.093,0.255v0.643
			c0,0.093-0.009,0.16-0.072,0.235c-0.075,0.09-0.153,0.102-0.261,0.102H4.445c-0.078,0-0.124-0.021-0.199-0.054l-0.114-0.051
			c-0.082-0.036-0.171-0.063-0.171-0.168c0-0.078,0.066-0.15,0.144-0.15c0.036,0,0.063,0.009,0.096,0.024l0.09,0.039
			c0.042,0.018,0.111,0.06,0.159,0.06h0.694v-0.718H4.258v-1.32h1.037c0.078,0,0.15,0.042,0.15,0.15c0,0.108-0.072,0.15-0.15,0.15
			H4.559V57.781z"/>
	</g>
	<g>
		<path fill="#FFFFFF" d="M2.093,64.272H1.981c-0.099,0-0.183-0.036-0.183-0.15c0-0.108,0.081-0.15,0.174-0.15h0.502
			c0.234,0,0.352,0.096,0.454,0.301l0.265,0.529c0.06,0.123,0.09,0.21,0.09,0.349c0,0.12-0.033,0.222-0.087,0.331l-0.273,0.546
			c-0.105,0.214-0.24,0.283-0.475,0.283H1.948c-0.078,0-0.15-0.042-0.15-0.15c0-0.107,0.072-0.15,0.15-0.15h0.145V64.272z
			 M2.394,66.01h0.057c0.126,0,0.156-0.015,0.21-0.126l0.264-0.535c0.033-0.069,0.057-0.12,0.057-0.195
			c0-0.102-0.033-0.159-0.075-0.247l-0.25-0.508c-0.063-0.129-0.09-0.126-0.229-0.126H2.394V66.01z"/>
		<path fill="#FFFFFF" d="M4.261,65.246h1.004c0.15,0,0.181,0.063,0.181,0.201v0.673c0,0.142-0.06,0.189-0.195,0.189H4.156
			c-0.142,0-0.195-0.051-0.195-0.189v-1.999c0-0.069,0.024-0.15,0.129-0.15h0.181c0.078,0,0.141,0.072,0.141,0.15
			c0,0.09-0.063,0.15-0.15,0.15V65.246z M4.261,65.547v0.463h0.884v-0.463H4.261z"/>
	</g>
	<g>
		<path fill="#FFFFFF" d="M2.093,71.481H1.981c-0.099,0-0.183-0.036-0.183-0.15c0-0.108,0.081-0.15,0.174-0.15h0.502
			c0.234,0,0.352,0.097,0.454,0.301l0.265,0.529c0.06,0.123,0.09,0.21,0.09,0.349c0,0.12-0.033,0.223-0.087,0.33l-0.273,0.547
			c-0.105,0.214-0.24,0.283-0.475,0.283H1.948c-0.078,0-0.15-0.042-0.15-0.15c0-0.107,0.072-0.15,0.15-0.15h0.145V71.481z
			 M2.394,73.219h0.057c0.126,0,0.156-0.015,0.21-0.126l0.264-0.535c0.033-0.069,0.057-0.12,0.057-0.195
			c0-0.103-0.033-0.159-0.075-0.247l-0.25-0.508c-0.063-0.129-0.09-0.126-0.229-0.126H2.394V73.219z"/>
		<path fill="#FFFFFF" d="M4.261,71.481c0,0.066-0.054,0.15-0.15,0.15s-0.15-0.084-0.15-0.15v-0.15c0-0.065,0.054-0.15,0.15-0.15
			h1.335v0.872c0,0.105,0.003,0.117-0.081,0.189l-0.421,0.363c-0.078,0.069-0.084,0.075-0.084,0.181v0.583
			c0,0.096-0.042,0.15-0.15,0.15c-0.108,0-0.15-0.055-0.15-0.15v-0.725c0-0.1,0.003-0.107,0.078-0.174l0.415-0.357
			c0.1-0.088,0.093-0.085,0.093-0.217v-0.415H4.261z"/>
	</g>
	<g>
		<path fill="#FFFFFF" d="M2.093,78.69H1.981c-0.099,0-0.183-0.036-0.183-0.15c0-0.108,0.081-0.15,0.174-0.15h0.502
			c0.234,0,0.352,0.097,0.454,0.301l0.265,0.529c0.06,0.123,0.09,0.21,0.09,0.349c0,0.12-0.033,0.223-0.087,0.33l-0.273,0.547
			c-0.105,0.214-0.24,0.283-0.475,0.283H1.948c-0.078,0-0.15-0.042-0.15-0.15c0-0.107,0.072-0.15,0.15-0.15h0.145V78.69z
			 M2.394,80.427h0.057c0.126,0,0.156-0.015,0.21-0.126l0.264-0.535c0.033-0.069,0.057-0.12,0.057-0.195
			c0-0.103-0.033-0.159-0.075-0.247l-0.25-0.508c-0.063-0.129-0.09-0.126-0.229-0.126H2.394V80.427z"/>
		<path fill="#FFFFFF" d="M4.995,78.389c0.103,0,0.15,0.072,0.15,0.15v0.868c0.093,0,0.166,0.033,0.22,0.085
			c0.054,0.051,0.081,0.126,0.081,0.22v0.715c0,0.184-0.114,0.301-0.301,0.301H4.261c-0.186,0-0.3-0.117-0.3-0.301v-0.715
			c0-0.094,0.027-0.169,0.081-0.22c0.054-0.052,0.126-0.085,0.219-0.085V78.54c0-0.078,0.048-0.15,0.15-0.15H4.995z M5.145,80.427
			v-0.719H4.261v0.719H5.145z M4.845,79.408V78.69H4.562v0.718H4.845z"/>
	</g>
	<g>
		<path fill="#FFFFFF" d="M2.093,85.899H1.981c-0.099,0-0.183-0.036-0.183-0.15c0-0.107,0.081-0.15,0.174-0.15h0.502
			c0.234,0,0.352,0.097,0.454,0.301l0.265,0.529c0.06,0.123,0.09,0.21,0.09,0.349c0,0.12-0.033,0.223-0.087,0.331l-0.273,0.547
			c-0.105,0.213-0.24,0.282-0.475,0.282H1.948c-0.078,0-0.15-0.042-0.15-0.15c0-0.107,0.072-0.15,0.15-0.15h0.145V85.899z
			 M2.394,87.636h0.057c0.126,0,0.156-0.015,0.21-0.126l0.264-0.535c0.033-0.069,0.057-0.12,0.057-0.195
			c0-0.102-0.033-0.159-0.075-0.246l-0.25-0.508c-0.063-0.13-0.09-0.127-0.229-0.127H2.394V87.636z"/>
		<path fill="#FFFFFF" d="M5.145,86.669H4.111c-0.084,0-0.15-0.072-0.15-0.15v-0.77c0-0.078,0.066-0.15,0.15-0.15h1.185
			c0.084,0,0.15,0.072,0.15,0.15v2.038c0,0.081-0.06,0.15-0.15,0.15h-0.15c-0.09,0-0.15-0.069-0.15-0.15
			c0-0.09,0.063-0.15,0.15-0.15V86.669z M5.145,86.368v-0.469H4.261v0.469H5.145z"/>
	</g>
	<g>
		<path fill="#FFFFFF" d="M1.012,93.108H0.9c-0.099,0-0.183-0.036-0.183-0.15c0-0.108,0.081-0.15,0.174-0.15h0.502
			c0.234,0,0.352,0.097,0.454,0.301l0.265,0.529c0.06,0.123,0.09,0.21,0.09,0.349c0,0.12-0.033,0.223-0.087,0.33l-0.273,0.547
			c-0.105,0.214-0.24,0.283-0.475,0.283H0.867c-0.078,0-0.15-0.042-0.15-0.15c0-0.107,0.072-0.15,0.15-0.15h0.145V93.108z
			 M1.312,94.845H1.37c0.126,0,0.156-0.015,0.21-0.126l0.264-0.535c0.033-0.069,0.057-0.12,0.057-0.195
			c0-0.103-0.033-0.159-0.075-0.247l-0.25-0.508c-0.063-0.129-0.09-0.126-0.229-0.126H1.312V94.845z"/>
		<path fill="#FFFFFF" d="M4.064,94.845v-0.607c0-0.087,0.039-0.15,0.15-0.15s0.15,0.063,0.15,0.15v0.758
			c0,0.108-0.072,0.15-0.15,0.15H3.03c-0.078,0-0.15-0.042-0.15-0.15c0-0.107,0.072-0.15,0.15-0.15h0.442v-1.737H3.03
			c-0.078,0-0.15-0.042-0.15-0.15s0.072-0.15,0.15-0.15h0.743v2.038H4.064z"/>
		<path fill="#FFFFFF" d="M6.227,92.807c0.166,0,0.301,0.136,0.301,0.301v1.737c0,0.168-0.129,0.301-0.301,0.301H5.343
			c-0.171,0-0.3-0.133-0.3-0.301v-1.737c0-0.165,0.135-0.301,0.3-0.301H6.227z M6.227,94.845v-1.737H5.343v1.737H6.227z"/>
	</g>
	<g>
		<path fill="#FFFFFF" d="M1.012,100.317H0.9c-0.099,0-0.183-0.036-0.183-0.15c0-0.108,0.081-0.15,0.174-0.15h0.502
			c0.234,0,0.352,0.097,0.454,0.301l0.265,0.529c0.06,0.123,0.09,0.21,0.09,0.349c0,0.12-0.033,0.223-0.087,0.33l-0.273,0.547
			c-0.105,0.214-0.24,0.283-0.475,0.283H0.867c-0.078,0-0.15-0.042-0.15-0.15c0-0.107,0.072-0.15,0.15-0.15h0.145V100.317z
			 M1.312,102.054H1.37c0.126,0,0.156-0.015,0.21-0.126l0.264-0.535c0.033-0.069,0.057-0.12,0.057-0.195
			c0-0.103-0.033-0.159-0.075-0.247l-0.25-0.508c-0.063-0.129-0.09-0.126-0.229-0.126H1.312V102.054z"/>
		<path fill="#FFFFFF" d="M4.064,102.054v-0.607c0-0.087,0.039-0.15,0.15-0.15s0.15,0.063,0.15,0.15v0.758
			c0,0.108-0.072,0.15-0.15,0.15H3.03c-0.078,0-0.15-0.042-0.15-0.15c0-0.107,0.072-0.15,0.15-0.15h0.442v-1.737H3.03
			c-0.078,0-0.15-0.042-0.15-0.15s0.072-0.15,0.15-0.15h0.743v2.038H4.064z"/>
		<path fill="#FFFFFF" d="M6.227,102.054v-0.607c0-0.087,0.039-0.15,0.15-0.15s0.15,0.063,0.15,0.15v0.758
			c0,0.108-0.072,0.15-0.15,0.15H5.192c-0.078,0-0.15-0.042-0.15-0.15c0-0.107,0.072-0.15,0.15-0.15h0.442v-1.737H5.192
			c-0.078,0-0.15-0.042-0.15-0.15s0.072-0.15,0.15-0.15h0.743v2.038H6.227z"/>
	</g>
	<g>
		<path fill="#FFFFFF" d="M1.012,107.525H0.9c-0.099,0-0.183-0.036-0.183-0.15c0-0.107,0.081-0.15,0.174-0.15h0.502
			c0.234,0,0.352,0.096,0.454,0.301l0.265,0.529c0.06,0.123,0.09,0.21,0.09,0.349c0,0.12-0.033,0.222-0.087,0.331l-0.273,0.547
			c-0.105,0.213-0.24,0.282-0.475,0.282H0.867c-0.078,0-0.15-0.042-0.15-0.15s0.072-0.15,0.15-0.15h0.145V107.525z M1.312,109.262
			H1.37c0.126,0,0.156-0.015,0.21-0.126l0.264-0.535c0.033-0.069,0.057-0.12,0.057-0.195c0-0.102-0.033-0.159-0.075-0.246
			l-0.25-0.508c-0.063-0.13-0.09-0.127-0.229-0.127H1.312V109.262z"/>
		<path fill="#FFFFFF" d="M4.064,109.262v-0.606c0-0.088,0.039-0.15,0.15-0.15s0.15,0.062,0.15,0.15v0.757
			c0,0.108-0.072,0.15-0.15,0.15H3.03c-0.078,0-0.15-0.042-0.15-0.15s0.072-0.15,0.15-0.15h0.442v-1.737H3.03
			c-0.078,0-0.15-0.042-0.15-0.15c0-0.107,0.072-0.15,0.15-0.15h0.743v2.038H4.064z"/>
		<path fill="#FFFFFF" d="M5.343,109.262h1.034c0.078,0,0.15,0.042,0.15,0.15s-0.072,0.15-0.15,0.15H5.042v-0.979
			c0-0.227,0.114-0.34,0.339-0.34h0.845v-0.719H5.192c-0.078,0-0.15-0.042-0.15-0.15c0-0.107,0.072-0.15,0.15-0.15H6.19
			c0.1,0,0.168,0.016,0.244,0.084c0.084,0.078,0.093,0.16,0.093,0.268v0.617c0,0.107-0.009,0.189-0.093,0.268
			c-0.075,0.068-0.144,0.084-0.244,0.084H5.343V109.262z"/>
	</g>
	<g>
		<rect x="8.524" y="100.231" fill="#8D8C8C" width="7.102" height="6.258"/>
		<rect x="8.524" y="112.055" fill="#8D8C8C" width="7.102" height="7.242"/>
	</g>
	<g>
		<rect x="35.496" y="100.231" fill="#8D8C8C" width="7.102" height="6.258"/>
		<rect x="35.496" y="112.055" fill="#8D8C8C" width="7.102" height="7.242"/>
	</g>
	<g>
		<polygon fill="#404040" points="29.765,105.65 28.939,104.562 34.75,104.562 34.75,103.607 15.852,103.607 15.852,104.562 
			22.182,104.562 21.354,105.65 14.88,105.65 14.88,130.133 36.241,130.133 36.241,105.65 		"/>
	</g>
	<path d="M21.014,115.738c0.156,0,0.271,0.127,0.254,0.282l-1.096,10.502c-0.016,0.155-0.157,0.282-0.313,0.282h-1.744
		c-0.156,0-0.297-0.127-0.313-0.282l-1.096-10.502c-0.016-0.155,0.098-0.282,0.254-0.282h0.254c0.156,0,0.295,0.127,0.309,0.282
		l0.83,9.548c0.013,0.155,0.152,0.282,0.309,0.282h0.65c0.156,0,0.295-0.127,0.309-0.282l0.83-9.548
		c0.013-0.155,0.152-0.282,0.308-0.282H21.014z"/>
	<path d="M34.162,115.738c0.156,0,0.271,0.127,0.254,0.282l-1.098,10.503c-0.016,0.155-0.156,0.282-0.312,0.282h-1.744
		c-0.156,0-0.297-0.127-0.312-0.282l-1.098-10.503c-0.016-0.155,0.098-0.282,0.254-0.282h0.256c0.156,0,0.295,0.127,0.309,0.282
		l0.828,9.548c0.014,0.155,0.152,0.282,0.309,0.282h0.65c0.156,0,0.296-0.127,0.309-0.282l0.83-9.548
		c0.014-0.155,0.152-0.282,0.309-0.282H34.162z"/>
	<g>
		<polygon fill="none" points="31.525,125.844 32.745,125.844 32.812,125.016 31.457,125.016 		"/>
		<polygon fill="#939393" points="32.812,125.016 32.745,125.844 31.525,125.844 31.457,125.016 		"/>
		<polygon fill="#545454" points="32.812,125.016 32.847,124.664 31.419,124.664 31.457,125.016 		"/>
	</g>
	<g>
		<polygon fill="none" points="18.376,125.844 19.596,125.844 19.664,125.016 18.309,125.016 		"/>
		<polygon fill="#939393" points="19.664,125.016 19.596,125.844 18.376,125.844 18.309,125.016 		"/>
		<polygon fill="#545454" points="19.664,125.016 19.7,124.664 18.272,124.664 18.309,125.016 		"/>
	</g>
	<rect x="22.652" y="117.269" fill="#939393" width="5.557" height="2.014"/>
	<rect x="22.652" y="116.154" fill="#545454" width="5.557" height="1.115"/>
	<path d="M22.315,127.762c0.156,0,0.292-0.127,0.301-0.283l0.699-11.614c0.009-0.156,0.145-0.283,0.301-0.283h3.888
		c0.156,0,0.292,0.127,0.301,0.283l0.699,11.614c0.009,0.156,0.145,0.283,0.301,0.283h0.518c0.156,0,0.273-0.127,0.263-0.283
		l-0.96-13.201c-0.012-0.155-0.148-0.283-0.305-0.283h-5.521c-0.156,0-0.293,0.127-0.305,0.283l-0.96,13.201
		c-0.011,0.155,0.107,0.283,0.263,0.283H22.315z"/>
	
		<line fill="none" stroke="#FFFFFF" stroke-linecap="round" stroke-opacity="0.24" x1="15.511" y1="106.247" x2="15.511" y2="129.819"/>
	
		<line fill="none" stroke="#FFFFFF" stroke-width="0.5" stroke-linecap="round" stroke-opacity="0.15" x1="35.867" y1="106.247" x2="35.867" y2="129.819"/>
	
		<line fill="none" stroke="#FFFFFF" stroke-linecap="round" stroke-opacity="0.3" x1="22.863" y1="104.677" x2="28.257" y2="104.677"/>
</g>
</svg>
