<?xml version="1.0" encoding="utf-8"?>
<svg version="1.2" baseProfile="tiny" id="svg2" xmlns:svg="http://www.w3.org/2000/svg"
	 xmlns="http://www.w3.org/2000/svg" xmlns:xlink="http://www.w3.org/1999/xlink" x="0px" y="0px" width="2.947in"
	 height="2.056in" viewBox="0 0 212.184 148.032" xml:space="preserve">
<g id="breadboardbreadboard">
	<rect id="connector0pin" x="82.648" y="4.11" width="2.774" height="2.773"/>
	<rect id="connector1pin" x="89.825" y="4.11" width="2.772" height="2.773"/>
	<rect id="connector2pin" x="97.003" y="4.11" width="2.772" height="2.773"/>
	<rect id="connector3pin" x="104.18" y="4.11" width="2.774" height="2.773"/>
	<rect id="connector4pin" x="111.359" y="4.11" width="2.773" height="2.773"/>
	<rect id="connector5pin" x="118.535" y="4.11" width="2.772" height="2.773"/>
	<rect id="connector6pin" x="125.714" y="4.11" width="2.773" height="2.773"/>
	<rect id="connector7pin" x="132.892" y="4.11" width="2.773" height="2.773"/>
	<rect id="connector8pin" x="147.438" y="4.11" width="2.772" height="2.773"/>
	<rect id="connector9pin" x="154.615" y="4.11" width="2.773" height="2.773"/>
	<rect id="connector10pin" x="161.792" y="4.11" width="2.772" height="2.773"/>
	<rect id="connector11pin" x="168.97" y="4.11" width="2.772" height="2.773"/>
	<rect id="connector12pin" x="176.147" y="4.11" width="2.774" height="2.773"/>
	<rect id="connector13pin" x="183.324" y="4.11" width="2.772" height="2.773"/>
	<rect id="connector14pin" x="190.502" y="4.11" width="2.771" height="2.773"/>
	<rect id="connector15pin" x="197.68" y="4.11" width="2.774" height="2.773"/>
	<rect id="connector16pin" x="111.443" y="140.887" width="2.774" height="2.771"/>
	<rect id="connector17pin" x="118.642" y="140.887" width="2.774" height="2.771"/>
	<rect id="connector18pin" x="125.84" y="140.887" width="2.773" height="2.771"/>
	<rect id="connector19pin" x="133.018" y="140.887" width="2.772" height="2.771"/>
	<rect id="connector20pin" x="140.196" y="140.887" width="2.774" height="2.771"/>
	<rect id="connector21pin" x="147.372" y="140.887" width="2.773" height="2.771"/>
	<rect id="connector22pin" x="161.835" y="140.887" width="2.771" height="2.771"/>
	<rect id="connector23pin" x="169.012" y="140.887" width="2.773" height="2.771"/>
	<rect id="connector24pin" x="176.19" y="140.887" width="2.773" height="2.771"/>
	<rect id="connector25pin" x="183.367" y="140.887" width="2.772" height="2.771"/>
	<rect id="connector26pin" x="190.544" y="140.887" width="2.772" height="2.771"/>
	<rect id="connector27pin" x="197.722" y="140.887" width="2.771" height="2.771"/>
	<g>
		<g>
			<path fill="#0F7391" d="M205.249,35.918V3.694L201.262,0H21.974v148.032h183.277v-5.033l6.923-7.135V42.507L205.249,35.918z
				 M64.771,10.87c-2.524,0-4.574-2.049-4.574-4.574s2.05-4.574,4.574-4.574c2.525,0,4.574,2.049,4.574,4.574
				S67.296,10.87,64.771,10.87z M205.501,45.819c1.62,0,2.936,1.317,2.936,2.938c0,1.623-1.314,2.936-2.936,2.936
				c-1.623,0-2.939-1.313-2.939-2.936C202.562,47.137,203.878,45.819,205.501,45.819z M206.003,130.747
				c-2.363,0-4.278-1.916-4.278-4.276c0-2.367,1.915-4.281,4.278-4.281c2.364,0,4.276,1.914,4.276,4.281
				C210.282,128.831,208.367,130.747,206.003,130.747z"/>
		</g>
	</g>
	<path fill="#02809E" d="M100.371,68.774c0-1.004-0.736-1.831-1.697-1.984v-0.029h-6.86c-1.111,0-2.014,0.901-2.014,2.014
		c0,1.112,0.901,2.015,2.014,2.015h6.86v-0.032C99.633,70.605,100.371,69.78,100.371,68.774z"/>
	<path fill="#02809E" d="M100.371,62.721c0-1.003-0.736-1.829-1.697-1.982v-0.031h-6.86c-1.111,0-2.014,0.903-2.014,2.014
		c0,1.114,0.901,2.015,2.014,2.015h6.86v-0.031C99.633,64.553,100.371,63.725,100.371,62.721z"/>
	<path fill="#02809E" d="M100.371,56.669c0-1.005-0.736-1.831-1.697-1.984v-0.031h-6.86c-1.111,0-2.014,0.903-2.014,2.015
		c0,1.112,0.901,2.014,2.014,2.014h6.86v-0.031C99.633,58.499,100.371,57.673,100.371,56.669z"/>
	<path fill="#02809E" d="M127.828,63.88c0-1.005-0.736-1.83-1.699-1.982v-0.031h-6.858c-1.111,0-2.015,0.9-2.015,2.013
		c0,1.113,0.902,2.014,2.015,2.014h6.858v-0.031C127.091,65.711,127.828,64.885,127.828,63.88z"/>
	<path fill="#02809E" d="M144.584,74.422c0-3.033-2.229-5.529-5.133-5.989v-0.094h-17.522c-3.358,0-6.082,2.723-6.082,6.083
		s2.724,6.083,6.082,6.083h17.522v-0.094C142.357,79.95,144.584,77.454,144.584,74.422z"/>
	<path fill="#02809E" d="M142.429,63.88c0-1.005-0.735-1.83-1.696-1.982v-0.031h-6.859c-1.112,0-2.015,0.9-2.015,2.013
		c0,1.113,0.901,2.014,2.015,2.014h6.859v-0.031C141.692,65.711,142.429,64.885,142.429,63.88z"/>
	<path fill="#02809E" d="M159.886,63.88c0-1.005-0.735-1.83-1.696-1.982v-0.031h-6.859c-1.113,0-2.016,0.9-2.016,2.013
		c0,1.113,0.901,2.014,2.016,2.014h6.858v-0.031C159.149,65.711,159.886,64.885,159.886,63.88z"/>
	<path fill="#02809E" d="M159.886,71.619c0-1.005-0.735-1.831-1.696-1.983v-0.031h-6.859c-1.113,0-2.016,0.901-2.016,2.014
		c0,1.113,0.901,2.014,2.016,2.014h6.858v-0.031C159.149,73.45,159.886,72.624,159.886,71.619z"/>
	<path fill="#02809E" d="M159.886,79.357c0-1.005-0.735-1.831-1.696-1.981v-0.031h-6.859c-1.113,0-2.016,0.9-2.016,2.014
		s0.901,2.016,2.016,2.016h6.858V81.34C159.149,81.188,159.886,80.362,159.886,79.357z"/>
	<path fill="#02809E" d="M174.37,67.316c0-1.004-0.735-1.831-1.697-1.982v-0.031h-6.859c-1.111,0-2.014,0.901-2.014,2.014
		c0,1.113,0.901,2.014,2.014,2.014h6.859V69.3C173.634,69.147,174.37,68.32,174.37,67.316z"/>
	<path fill="#02809E" d="M174.37,79.793c0-1.004-0.735-1.83-1.697-1.982v-0.029h-6.859c-1.111,0-2.014,0.9-2.014,2.012
		c0,1.113,0.901,2.017,2.014,2.017h6.859v-0.031C173.634,81.625,174.37,80.797,174.37,79.793z"/>
	<path fill="#02809E" d="M178.143,67.316c0-1.004,0.735-1.831,1.697-1.982v-0.031h6.858c1.111,0,2.013,0.901,2.013,2.014
		c0,1.113-0.9,2.014-2.013,2.014h-6.858V69.3C178.879,69.147,178.143,68.32,178.143,67.316z"/>
	<path fill="#02809E" d="M178.143,79.793c0-1.004,0.735-1.83,1.697-1.982v-0.029h6.858c1.111,0,2.013,0.9,2.013,2.012
		c0,1.113-0.9,2.017-2.013,2.017h-6.858v-0.031C178.879,81.625,178.143,80.797,178.143,79.793z"/>
	<path fill="#02809E" d="M100.371,80.879c0-1.004-0.736-1.828-1.697-1.98v-0.031h-6.86c-1.111,0-2.014,0.9-2.014,2.014
		s0.901,2.017,2.014,2.017h6.86v-0.034C99.633,82.711,100.371,81.887,100.371,80.879z"/>
	<path fill="#02809E" d="M100.371,26.401c0-1.004-0.736-1.829-1.697-1.981v-0.033h-6.86c-1.111,0-2.014,0.901-2.014,2.014
		c0,1.113,0.901,2.016,2.014,2.016h6.86v-0.034C99.633,28.231,100.371,27.407,100.371,26.401z"/>
	<path fill="#02809E" d="M66.897,21.901c0-1.004-0.735-1.829-1.696-1.981v-0.032h-6.86c-1.112,0-2.015,0.901-2.015,2.013
		c0,1.112,0.901,2.017,2.015,2.017h6.859v-0.034C66.159,23.732,66.897,22.908,66.897,21.901z"/>
	<path fill="#02809E" d="M79.675,21.901c0-1.004-0.737-1.829-1.698-1.981v-0.032h-6.858c-1.112,0-2.016,0.901-2.016,2.013
		c0,1.112,0.902,2.017,2.016,2.017h6.858v-0.034C78.937,23.732,79.675,22.908,79.675,21.901z"/>
	<path fill="#02809E" d="M100.371,38.508c0-1.004-0.736-1.829-1.697-1.982v-0.031h-6.86c-1.111,0-2.014,0.901-2.014,2.014
		c0,1.113,0.901,2.015,2.014,2.015h6.86v-0.031C99.633,40.338,100.371,39.513,100.371,38.508z"/>
	<path fill="#02809E" d="M76.38,100.67c0-1.004-0.735-1.83-1.697-1.98v-0.033h-6.859c-1.113,0-2.015,0.902-2.015,2.014
		c0,1.113,0.9,2.017,2.015,2.017h6.858v-0.032C75.643,102.5,76.38,101.674,76.38,100.67z"/>
	<path fill="#02809E" d="M76.38,92.392c0-1.005-0.735-1.829-1.697-1.981v-0.031h-6.859c-1.113,0-2.015,0.9-2.015,2.014
		s0.9,2.016,2.015,2.016h6.858v-0.031C75.643,94.223,76.38,93.397,76.38,92.392z"/>
	<path fill="#02809E" d="M59.194,69.636c1.006,0,1.831-0.737,1.982-1.699h0.034v-4.846c0-1.11-0.904-2.016-2.018-2.016
		c-1.11,0-2.014,0.904-2.014,2.016v4.846h0.031C57.365,68.899,58.19,69.636,59.194,69.636z"/>
	<path fill="#02809E" d="M66.578,69.636c1.005,0,1.832-0.737,1.981-1.699h0.032v-4.846c0-1.11-0.901-2.016-2.015-2.016
		c-1.111,0-2.016,0.904-2.016,2.016v4.846h0.031C64.75,68.899,65.575,69.636,66.578,69.636z"/>
	<path fill="#02809E" d="M73.963,69.636c1.005,0,1.831-0.737,1.98-1.699h0.033v-4.846c0-1.11-0.9-2.016-2.015-2.016
		c-1.111,0-2.016,0.904-2.016,2.016v4.846h0.032C72.135,68.899,72.96,69.636,73.963,69.636z"/>
	<path fill="#02809E" d="M81.348,69.636c1.005,0,1.832-0.737,1.983-1.699h0.031v-4.846c0-1.11-0.901-2.016-2.016-2.016
		c-1.111,0-2.014,0.904-2.014,2.016v4.846h0.03C79.519,68.899,80.345,69.636,81.348,69.636z"/>
	<path fill="#02809E" d="M167.086,47.197c0,1.005,0.737,1.832,1.699,1.984v0.029h6.859c1.111,0,2.015-0.9,2.015-2.013
		c0-1.111-0.902-2.014-2.015-2.014h-6.859v0.031C167.824,45.367,167.086,46.194,167.086,47.197z"/>
	<path fill="#02809E" d="M56.571,94.258c0-1.004-0.736-1.832-1.698-1.982v-0.033h-6.859c-1.114,0-2.016,0.901-2.016,2.018
		c0,1.109,0.9,2.014,2.016,2.014h6.858v-0.031C55.832,96.088,56.571,95.262,56.571,94.258z"/>
	<path fill="#02809E" d="M56.571,100.805c0-1.006-0.736-1.83-1.698-1.984v-0.029h-6.859c-1.114,0-2.016,0.898-2.016,2.015
		c0,1.108,0.9,2.014,2.016,2.014h6.858v-0.03C55.832,102.631,56.571,101.808,56.571,100.805z"/>
	<path fill="#02809E" d="M56.571,107.35c0-1.005-0.736-1.83-1.698-1.982v-0.031h-6.859c-1.114,0-2.016,0.902-2.016,2.015
		s0.9,2.015,2.016,2.015h6.858v-0.031C55.832,109.181,56.571,108.356,56.571,107.35z"/>
	<rect x="29.884" y="90.799" fill="#02809E" width="20.308" height="19.303"/>
	<rect x="26.36" y="93.149" fill="#02809E" width="5.036" height="14.602"/>
	<circle fill="#02809E" cx="74.819" cy="6.078" r="1.762"/>
	<g>
		<g>
			<path fill="#02809E" d="M74.819,1.633c-2.457,0-4.448,1.991-4.448,4.446c0,2.458,1.991,4.447,4.448,4.447
				c2.456,0,4.448-1.99,4.448-4.447C79.266,3.623,77.275,1.633,74.819,1.633z M74.819,10.064c-2.202,0-3.986-1.785-3.986-3.986
				c0-2.201,1.785-3.986,3.986-3.986c2.202,0,3.985,1.785,3.985,3.986C78.804,8.28,77.02,10.064,74.819,10.064z"/>
		</g>
	</g>
	<circle fill="#02809E" cx="28.963" cy="141.398" r="1.763"/>
	<g>
		<g>
			<path fill="#02809E" d="M28.964,136.952c-2.457,0-4.45,1.992-4.45,4.447c0,2.457,1.993,4.447,4.45,4.447
				c2.454,0,4.447-1.99,4.447-4.447C33.411,138.944,31.42,136.952,28.964,136.952z M28.964,145.383
				c-2.204,0-3.987-1.783-3.987-3.984s1.785-3.986,3.987-3.986c2.201,0,3.984,1.784,3.984,3.986
				C32.949,143.6,31.165,145.383,28.964,145.383z"/>
		</g>
	</g>
	<circle fill="#02809E" cx="197.025" cy="31.557" r="1.762"/>
	<g>
		<g>
			<path fill="#02809E" d="M197.026,27.108c-2.456,0-4.449,1.993-4.449,4.449c0,2.455,1.993,4.444,4.449,4.444
				c2.453,0,4.448-1.99,4.448-4.444C201.473,29.101,199.481,27.108,197.026,27.108z M197.026,35.541
				c-2.204,0-3.985-1.785-3.985-3.984c0-2.204,1.785-3.987,3.985-3.987s3.982,1.784,3.982,3.987
				C201.009,33.757,199.226,35.541,197.026,35.541z"/>
		</g>
	</g>
	<circle fill="#02809E" cx="30.304" cy="24.842" r="4.28"/>
	<circle fill="#02809E" cx="30.304" cy="59.583" r="4.28"/>
	<rect x="54.807" y="33.454" fill="#02809E" width="28.531" height="16.113"/>
	<rect x="61.381" y="110.083" fill="#02809E" width="17.538" height="7.973"/>
	<rect x="62.281" y="77.329" fill="#02809E" width="16.163" height="9.348"/>
	<rect x="101.213" y="92.522" fill="#02809E" width="96.841" height="21.482"/>
	<circle fill="#02809E" cx="52.584" cy="125.919" r="5.665"/>
	<circle fill="#02809E" cx="45.199" cy="139.682" r="5.664"/>
	<path fill="#02809E" d="M83.573,137.56c0.432-1.115,0.675-2.319,0.675-3.585c0-5.491-4.453-9.941-9.942-9.941
		s-9.943,4.451-9.943,9.941c0,2.574,0.986,4.913,2.593,6.678L83.573,137.56z"/>
	<path fill="#02809E" d="M106.783,137.56c0.432-1.115,0.675-2.319,0.675-3.585c0-5.491-4.453-9.941-9.942-9.941
		c-5.493,0-9.942,4.451-9.942,9.941c0,2.574,0.985,4.913,2.592,6.678L106.783,137.56z"/>
	<path fill="#8D8C8C" d="M100.371,44.561c0-1.004-0.736-1.829-1.697-1.982v-0.031h-6.86c-1.111,0-2.014,0.901-2.014,2.013
		s0.901,2.015,2.014,2.015h6.86v-0.032C99.633,46.392,100.371,45.567,100.371,44.561z"/>
	<rect x="93.323" y="42.925" fill="#FBBE0E" width="3.648" height="3.21"/>
	<path fill="#8D8C8C" d="M100.371,32.455c0-1.004-0.736-1.829-1.697-1.982v-0.031h-6.86c-1.111,0-2.014,0.901-2.014,2.014
		c0,1.113,0.901,2.015,2.014,2.015h6.86v-0.032C99.633,34.286,100.371,33.46,100.371,32.455z"/>
	<rect x="93.323" y="30.819" fill="#FBBE0E" width="3.648" height="3.21"/>
	<path fill="#8D8C8C" d="M190.522,47.197c0-1.004-0.736-1.83-1.697-1.981v-0.032h-6.859c-1.113,0-2.015,0.901-2.015,2.014
		c0,1.112,0.9,2.015,2.015,2.015h6.859v-0.032C189.782,49.026,190.522,48.2,190.522,47.197z"/>
	<rect x="183.473" y="45.561" fill="#FBBE0E" width="3.648" height="3.21"/>
	<path fill="#8D8C8C" d="M100.371,50.615c0-1.004-0.736-1.83-1.697-1.983v-0.031h-6.86c-1.111,0-2.014,0.903-2.014,2.014
		c0,1.113,0.901,2.015,2.014,2.015h6.86v-0.032C99.633,52.446,100.371,51.62,100.371,50.615z"/>
	<rect x="93.323" y="48.978" fill="#FBBE0E" width="3.648" height="3.21"/>
	<rect x="168.263" y="64.996" fill="#8D8C8C" width="16.615" height="16.991"/>
	<path fill="#404040" d="M184.502,67.386c0,0.835-0.677,1.513-1.514,1.513c-0.834,0-1.512-0.675-1.512-1.513
		c0-0.832,0.675-1.513,1.512-1.513C183.825,65.876,184.502,66.555,184.502,67.386z"/>
	<path fill="#404040" d="M171.788,67.386c0,0.835-0.677,1.513-1.513,1.513c-0.837,0-1.513-0.675-1.513-1.513
		c0-0.832,0.675-1.513,1.513-1.513C171.112,65.876,171.788,66.555,171.788,67.386z"/>
	<circle fill="#404040" cx="170.277" cy="80.101" r="1.511"/>
	<circle fill="#404040" cx="182.991" cy="80.101" r="1.511"/>
	<circle fill="#404040" cx="176.256" cy="73.492" r="4.909"/>
	<polygon fill="#404040" points="208.373,59.78 204.441,59.78 201.1,59.78 197.167,59.78 195.656,61.289 195.656,65.223 
		197.167,66.732 201.1,66.732 204.441,66.732 208.373,66.732 209.885,65.223 209.885,61.289 	"/>
	<polygon fill="#404040" points="208.373,66.961 204.441,66.961 201.1,66.961 197.167,66.961 195.656,68.471 195.656,72.403 
		197.167,73.915 201.1,73.915 204.441,73.915 208.373,73.915 209.885,72.403 209.885,68.471 	"/>
	<polygon fill="#404040" points="208.373,74.14 204.441,74.14 201.1,74.14 197.167,74.14 195.656,75.651 195.656,79.584 
		197.167,81.094 201.1,81.094 204.441,81.094 208.373,81.094 209.885,79.584 209.885,75.651 	"/>
	<polygon fill="#404040" points="208.373,59.78 204.441,59.78 201.1,59.78 197.167,59.78 195.656,61.289 195.656,65.223 
		197.167,66.732 201.1,66.732 204.441,66.732 208.373,66.732 209.885,65.223 209.885,61.289 	"/>
	<polygon fill="#404040" points="208.373,66.961 204.441,66.961 201.1,66.961 197.167,66.961 195.656,68.471 195.656,72.403 
		197.167,73.915 201.1,73.915 204.441,73.915 208.373,73.915 209.885,72.403 209.885,68.471 	"/>
	<polygon fill="#404040" points="208.373,74.14 204.441,74.14 201.1,74.14 197.167,74.14 195.656,75.651 195.656,79.584 
		197.167,81.094 201.1,81.094 204.441,81.094 208.373,81.094 209.885,79.584 209.885,75.651 	"/>
	<rect x="198.065" y="76.334" fill="#8D8C8C" width="2.298" height="2.299"/>
	<rect x="205.264" y="76.334" fill="#8D8C8C" width="2.297" height="2.299"/>
	<rect x="198.065" y="69.136" fill="#8D8C8C" width="2.298" height="2.298"/>
	<rect x="205.264" y="69.136" fill="#8D8C8C" width="2.297" height="2.298"/>
	<rect x="198.065" y="61.937" fill="#8D8C8C" width="2.298" height="2.298"/>
	<rect x="205.264" y="61.937" fill="#8D8455" width="2.297" height="2.298"/>
	<polygon fill="#404040" points="35.611,66.808 31.677,66.808 35.611,66.808 31.677,66.808 30.165,68.318 30.165,72.253 
		31.677,73.763 35.611,73.763 31.677,73.763 35.611,73.763 37.12,72.253 37.12,68.318 	"/>
	<rect x="205.823" y="62.495" fill="#8C8663" width="1.182" height="1.182"/>
	<polygon fill="#B8AF82" points="205.264,61.937 205.823,62.495 207.003,62.495 207.562,61.937 	"/>
	<polygon fill="#80795B" points="207.003,63.677 207.003,62.495 207.562,61.937 207.562,64.235 	"/>
	<polygon fill="#5E5B43" points="205.823,63.677 207.003,63.677 207.562,64.235 205.264,64.235 	"/>
	<polygon fill="#9A916C" points="205.264,61.937 205.823,62.495 205.823,63.677 205.264,64.235 	"/>
	<rect x="198.623" y="62.495" fill="#8C8663" width="1.182" height="1.182"/>
	<polygon fill="#B8AF82" points="198.065,61.937 198.623,62.495 199.804,62.495 200.363,61.937 	"/>
	<polygon fill="#80795B" points="199.804,63.677 199.804,62.495 200.363,61.937 200.363,64.235 	"/>
	<polygon fill="#5E5B43" points="198.623,63.677 199.804,63.677 200.363,64.235 198.065,64.235 	"/>
	<polygon fill="#9A916C" points="198.065,61.937 198.623,62.495 198.623,63.677 198.065,64.235 	"/>
	<rect x="205.823" y="69.693" fill="#8C8663" width="1.182" height="1.182"/>
	<polygon fill="#B8AF82" points="205.264,69.136 205.823,69.693 207.003,69.693 207.562,69.136 	"/>
	<polygon fill="#80795B" points="207.003,70.875 207.003,69.693 207.562,69.136 207.562,71.434 	"/>
	<polygon fill="#5E5B43" points="205.823,70.875 207.003,70.875 207.562,71.434 205.264,71.434 	"/>
	<polygon fill="#9A916C" points="205.264,69.136 205.823,69.693 205.823,70.875 205.264,71.434 	"/>
	<rect x="198.623" y="69.693" fill="#8C8663" width="1.182" height="1.182"/>
	<polygon fill="#B8AF82" points="198.065,69.136 198.623,69.693 199.804,69.693 200.363,69.136 	"/>
	<polygon fill="#80795B" points="199.804,70.875 199.804,69.693 200.363,69.136 200.363,71.434 	"/>
	<polygon fill="#5E5B43" points="198.623,70.875 199.804,70.875 200.363,71.434 198.065,71.434 	"/>
	<polygon fill="#9A916C" points="198.065,69.136 198.623,69.693 198.623,70.875 198.065,71.434 	"/>
	<rect x="205.823" y="76.892" fill="#8C8663" width="1.182" height="1.183"/>
	<polygon fill="#B8AF82" points="205.264,76.334 205.823,76.892 207.003,76.892 207.562,76.334 	"/>
	<polygon fill="#80795B" points="207.003,78.075 207.003,76.892 207.562,76.334 207.562,78.633 	"/>
	<polygon fill="#5E5B43" points="205.823,78.075 207.003,78.075 207.562,78.633 205.264,78.633 	"/>
	<polygon fill="#9A916C" points="205.264,76.334 205.823,76.892 205.823,78.075 205.264,78.633 	"/>
	<rect x="198.623" y="76.892" fill="#8C8663" width="1.182" height="1.183"/>
	<polygon fill="#B8AF82" points="198.065,76.334 198.623,76.892 199.804,76.892 200.363,76.334 	"/>
	<polygon fill="#80795B" points="199.804,78.075 199.804,76.892 200.363,76.334 200.363,78.633 	"/>
	<polygon fill="#5E5B43" points="198.623,78.075 199.804,78.075 200.363,78.633 198.065,78.633 	"/>
	<polygon fill="#9A916C" points="198.065,76.334 198.623,76.892 198.623,78.075 198.065,78.633 	"/>
	<rect x="33.053" y="69.693" fill="#8C8663" width="1.181" height="1.182"/>
	<polygon fill="#B8AF82" points="32.493,69.136 33.053,69.693 34.233,69.693 34.791,69.136 	"/>
	<polygon fill="#80795B" points="34.233,70.875 34.233,69.693 34.791,69.136 34.791,71.434 	"/>
	<polygon fill="#5E5B43" points="33.053,70.875 34.233,70.875 34.791,71.434 32.493,71.434 	"/>
	<polygon fill="#9A916C" points="32.493,69.136 33.053,69.693 33.053,70.875 32.493,71.434 	"/>
	<polygon fill="#404040" points="35.611,74.006 31.678,74.006 35.611,74.006 31.678,74.006 30.166,75.518 30.166,79.452 
		31.678,80.961 35.611,80.961 31.678,80.961 35.611,80.961 37.121,79.452 37.121,75.518 	"/>
	<rect x="33.053" y="76.892" fill="#8C8663" width="1.182" height="1.183"/>
	<polygon fill="#B8AF82" points="32.494,76.334 33.053,76.892 34.234,76.892 34.792,76.334 	"/>
	<polygon fill="#80795B" points="34.234,78.075 34.234,76.892 34.792,76.334 34.792,78.633 	"/>
	<polygon fill="#5E5B43" points="33.053,78.075 34.234,78.075 34.792,78.633 32.494,78.633 	"/>
	<polygon fill="#9A916C" points="32.494,76.334 33.053,76.892 33.053,78.075 32.494,78.633 	"/>
	<polygon fill="#404040" points="35.611,81.206 31.677,81.206 35.611,81.206 31.677,81.206 30.165,82.715 30.165,86.651 
		31.677,88.161 35.611,88.161 31.677,88.161 35.611,88.161 37.12,86.651 37.12,82.715 	"/>
	<rect x="33.053" y="84.09" fill="#8C8663" width="1.181" height="1.183"/>
	<polygon fill="#B8AF82" points="32.493,83.534 33.053,84.09 34.233,84.09 34.791,83.534 	"/>
	<polygon fill="#80795B" points="34.233,85.273 34.233,84.09 34.791,83.534 34.791,85.833 	"/>
	<polygon fill="#5E5B43" points="33.053,85.273 34.233,85.273 34.791,85.833 32.493,85.833 	"/>
	<polygon fill="#9A916C" points="32.493,83.534 33.053,84.09 33.053,85.273 32.493,85.833 	"/>
	<path d="M30.159,66.808v14.153h6.954V66.808H30.159z M34.792,78.633h-2.297v-2.299h2.297V78.633z M34.791,71.434h-2.297v-2.298
		h2.297V71.434z"/>
	<rect x="31.947" y="68.888" fill="#746A39" width="0.548" height="9.942"/>
	<rect x="32.792" y="71.434" fill="#4D4726" width="1.7" height="0.546"/>
	<rect x="32.792" y="75.788" fill="#4D4726" width="1.7" height="0.547"/>
	<polygon fill="#262626" points="30.159,66.808 30.159,71.98 31.775,71.98 31.775,68.731 35.51,68.731 35.51,71.98 37.115,71.98 
		37.115,66.808 	"/>
	<polygon fill="#262626" points="37.128,80.961 37.128,75.788 35.512,75.788 35.512,79.038 31.777,79.038 31.777,75.788 
		30.171,75.788 30.171,80.961 	"/>
	<g>
		<g>
			<path fill="#FFFFFF" d="M131.131,118.592l0.266,0.455l0.153-0.455l0.05-1.27c0.007-0.169,0.038-0.355,0.247-0.355
				c0.216,0,0.246,0.187,0.24,0.355l-0.051,1.363l-0.24,0.729c-0.051,0.147-0.076,0.312-0.253,0.312h-0.189
				c-0.087,0-0.159-0.092-0.204-0.159l-0.267-0.399l-0.265,0.399c-0.047,0.067-0.118,0.159-0.205,0.159h-0.19
				c-0.173,0-0.198-0.165-0.251-0.312l-0.24-0.729l-0.052-1.363c-0.005-0.169,0.026-0.355,0.241-0.355
				c0.21,0,0.24,0.187,0.246,0.355l0.05,1.27l0.153,0.455l0.267-0.455v-0.45c0-0.169,0.035-0.345,0.245-0.345
				c0.211,0,0.248,0.174,0.248,0.345L131.131,118.592L131.131,118.592z"/>
			<path fill="#FFFFFF" d="M134.813,118.592l0.268,0.455l0.152-0.455l0.052-1.27c0.005-0.169,0.035-0.355,0.245-0.355
				c0.216,0,0.245,0.187,0.24,0.355l-0.05,1.363l-0.24,0.729c-0.052,0.147-0.076,0.312-0.253,0.312h-0.189
				c-0.086,0-0.158-0.092-0.203-0.159l-0.268-0.399l-0.267,0.399c-0.044,0.067-0.118,0.159-0.203,0.159h-0.188
				c-0.176,0-0.198-0.165-0.253-0.312l-0.239-0.729l-0.051-1.363c-0.006-0.169,0.025-0.355,0.239-0.355
				c0.211,0,0.24,0.187,0.246,0.355l0.051,1.27l0.153,0.455l0.267-0.455v-0.45c0-0.169,0.035-0.345,0.245-0.345
				s0.246,0.174,0.246,0.345V118.592L134.813,118.592z"/>
			<path fill="#FFFFFF" d="M138.495,118.592l0.267,0.455l0.153-0.455l0.05-1.27c0.006-0.169,0.037-0.355,0.246-0.355
				c0.216,0,0.246,0.187,0.24,0.355l-0.052,1.363l-0.239,0.729c-0.051,0.147-0.076,0.312-0.251,0.312h-0.19
				c-0.087,0-0.16-0.092-0.204-0.159l-0.266-0.399l-0.268,0.399c-0.045,0.067-0.118,0.159-0.204,0.159h-0.188
				c-0.175,0-0.2-0.165-0.252-0.312l-0.241-0.729l-0.051-1.363c-0.005-0.169,0.025-0.355,0.24-0.355c0.211,0,0.24,0.187,0.246,0.355
				l0.051,1.27l0.152,0.455l0.268-0.455v-0.45c0-0.169,0.036-0.345,0.247-0.345c0.21,0,0.245,0.174,0.245,0.345L138.495,118.592
				L138.495,118.592z"/>
			<path fill="#FFFFFF" d="M141.747,119.073c-0.112,0-0.195,0-0.268-0.098c-0.056-0.076-0.056-0.135-0.056-0.229v-0.287
				c0-0.099,0-0.153,0.056-0.229c0.073-0.097,0.154-0.097,0.268-0.097h0.369c0.111,0,0.193,0,0.266,0.097
				c0.057,0.076,0.057,0.136,0.057,0.229v0.287c0,0.096,0,0.151-0.057,0.229c-0.073,0.098-0.153,0.098-0.266,0.098H141.747z"/>
			<path fill="#FFFFFF" d="M145.236,117.461c-0.143,0-0.338-0.031-0.338-0.246c0-0.211,0.173-0.246,0.338-0.246h0.676
				c0.255,0,0.439,0.025,0.637,0.221c0.188,0.189,0.215,0.338,0.22,0.584l0.052,1.668c0.006,0.145-0.067,0.286-0.229,0.286
				c-0.128,0-0.255-0.106-0.251-0.247L146,119.655c-0.138,0.073-0.143,0.073-0.303,0.073h-0.47c-0.222,0-0.379-0.024-0.558-0.174
				c-0.204-0.169-0.255-0.349-0.255-0.604v-0.215c0-0.236,0.057-0.383,0.239-0.55c0.168-0.146,0.358-0.185,0.574-0.185h1.056v-0.11
				c0-0.37-0.081-0.433-0.436-0.433L145.236,117.461L145.236,117.461z M145.231,118.495c-0.135,0-0.328,0.035-0.328,0.215v0.328
				c0,0.164,0.198,0.197,0.316,0.197h0.543l0.543-0.281v-0.106c0-0.271-0.075-0.353-0.347-0.353H145.231L145.231,118.495z"/>
			<path fill="#FFFFFF" d="M148.093,117.333c0-0.178,0.021-0.362,0.246-0.362c0.194,0,0.246,0.163,0.246,0.327v0.197l0.383-0.315
				c0.138-0.111,0.283-0.209,0.435-0.209h0.396c0.188,0,0.347,0.062,0.479,0.194c0.165,0.164,0.222,0.332,0.222,0.559
				c0,0.168-0.031,0.343-0.24,0.343c-0.18,0-0.251-0.142-0.251-0.302c0-0.081,0-0.143-0.051-0.217
				c-0.062-0.086-0.181-0.086-0.298-0.086h-0.143c-0.092,0-0.16,0.045-0.247,0.117l-0.685,0.568v1.244
				c0,0.169-0.037,0.339-0.247,0.339c-0.209,0-0.245-0.167-0.245-0.339L148.093,117.333L148.093,117.333z"/>
			<path fill="#FFFFFF" d="M153.121,116.969c0.168,0,0.309,0.092,0.486,0.271l0.082,0.086v-1.035c0-0.166,0.036-0.336,0.245-0.336
				c0.21,0,0.246,0.166,0.246,0.336v3.092c0,0.17-0.036,0.346-0.246,0.346c-0.194,0-0.245-0.166-0.245-0.326v-0.033l-0.105,0.107
				c-0.153,0.143-0.323,0.252-0.471,0.252h-0.476c-0.165,0-0.348-0.111-0.42-0.174l-0.169-0.143
				c-0.204-0.175-0.271-0.308-0.271-0.568v-0.987c0-0.259,0.067-0.396,0.271-0.567l0.169-0.143c0.153-0.135,0.267-0.175,0.47-0.175
				h0.435L153.121,116.969L153.121,116.969z M152.267,118.648c0,0.136,0,0.313,0.076,0.374l0.148,0.119
				c0.061,0.05,0.122,0.097,0.184,0.097h0.349c0.062,0,0.146-0.04,0.24-0.122l0.282-0.242c0.072-0.061,0.143-0.123,0.143-0.215
				v-0.619c0-0.092-0.072-0.152-0.143-0.215l-0.282-0.24c-0.094-0.082-0.179-0.123-0.24-0.123h-0.349
				c-0.062,0-0.122,0.045-0.184,0.099l-0.148,0.116c-0.076,0.062-0.076,0.236-0.076,0.375V118.648z"/>
			<path fill="#FFFFFF" d="M157.864,119.366c0,0.109,0.021,0.362-0.239,0.362c-0.211,0-0.246-0.174-0.246-0.345v-0.08l-0.4,0.26
				c-0.158,0.104-0.29,0.164-0.425,0.164h-0.363c-0.139,0-0.292-0.043-0.457-0.178c-0.22-0.191-0.215-0.4-0.225-0.666l-0.05-1.545
				c-0.005-0.18,0.02-0.369,0.246-0.369c0.21,0,0.234,0.178,0.239,0.338l0.052,1.51c0.005,0.113,0.011,0.246,0.05,0.316
				c0.043,0.072,0.169,0.104,0.286,0.104h0.165c0.057,0,0.105-0.016,0.152-0.045l0.724-0.457v-1.426c0-0.167,0.036-0.34,0.246-0.34
				c0.209,0,0.244,0.17,0.244,0.34L157.864,119.366L157.864,119.366z"/>
			<path fill="#FFFFFF" d="M160.599,119.238h0.369c0.164,0,0.339,0.036,0.339,0.246c0,0.216-0.195,0.246-0.339,0.246h-1.248
				c-0.143,0-0.339-0.03-0.339-0.246c0-0.21,0.174-0.246,0.339-0.246h0.39v-1.776h-0.39c-0.143,0-0.339-0.03-0.339-0.246
				c0-0.209,0.174-0.245,0.339-0.245h0.518c0.281,0,0.363,0.051,0.363,0.344L160.599,119.238L160.599,119.238z M159.856,115.977
				c0-0.176,0.1-0.23,0.23-0.23h0.281c0.135,0,0.229,0.057,0.229,0.23v0.234c0,0.172-0.098,0.229-0.229,0.229h-0.281
				c-0.134,0-0.23-0.057-0.23-0.229V115.977z"/>
			<path fill="#FFFFFF" d="M163.314,117.963v1.427c0,0.167-0.037,0.338-0.247,0.338c-0.209,0-0.245-0.168-0.245-0.338v-2.058
				c0-0.179,0.021-0.363,0.245-0.363c0.223,0,0.247,0.186,0.247,0.357v0.057v0.012l0.399-0.262c0.129-0.08,0.267-0.164,0.426-0.164
				h0.363c0.189,0,0.308,0.051,0.456,0.179c0.222,0.19,0.21,0.399,0.222,0.667l0.049,1.545c0.007,0.172-0.019,0.368-0.24,0.368
				c-0.196,0-0.239-0.168-0.244-0.332l-0.051-1.515c-0.012-0.303-0.036-0.42-0.334-0.42h-0.164c-0.051,0-0.103,0.015-0.153,0.045
				L163.314,117.963z"/>
			<path fill="#FFFFFF" d="M166.504,117.885c0-0.326,0.066-0.438,0.312-0.639c0.24-0.199,0.354-0.277,0.697-0.277h0.39
				c0.345,0,0.456,0.074,0.696,0.277c0.246,0.198,0.313,0.312,0.313,0.639v0.928c0,0.322-0.082,0.445-0.338,0.66
				c-0.258,0.216-0.358,0.255-0.673,0.255h-0.39c-0.312,0-0.414-0.042-0.672-0.255c-0.255-0.215-0.338-0.338-0.338-0.66v-0.928
				H166.504z M166.995,118.813c0,0.104,0.038,0.168,0.18,0.291c0.105,0.094,0.185,0.134,0.339,0.134h0.39
				c0.153,0,0.229-0.04,0.339-0.134c0.143-0.123,0.179-0.189,0.179-0.291v-0.928c0-0.102-0.036-0.168-0.179-0.289
				c-0.106-0.094-0.186-0.135-0.339-0.135h-0.39c-0.154,0-0.229,0.041-0.339,0.135c-0.142,0.121-0.18,0.189-0.18,0.289V118.813z"/>
			<path fill="#FFFFFF" d="M171.205,119.073c-0.112,0-0.195,0-0.268-0.098c-0.057-0.076-0.057-0.135-0.057-0.229v-0.287
				c0-0.099,0-0.153,0.057-0.229c0.072-0.097,0.153-0.097,0.268-0.097h0.369c0.11,0,0.193,0,0.266,0.097
				c0.056,0.076,0.056,0.136,0.056,0.229v0.287c0,0.096,0,0.151-0.056,0.229c-0.073,0.098-0.153,0.098-0.266,0.098H171.205z"/>
			<path fill="#FFFFFF" d="M173.867,118.111c0-0.302,0.057-0.45,0.292-0.646l0.362-0.303c0.23-0.188,0.349-0.193,0.637-0.193h0.776
				c0.165,0,0.339,0.037,0.339,0.248c0,0.215-0.193,0.244-0.339,0.244h-0.863c-0.099,0-0.194,0.053-0.282,0.123l-0.298,0.254
				c-0.075,0.062-0.135,0.111-0.135,0.209v0.611c0,0.096,0.058,0.147,0.135,0.209l0.298,0.25c0.087,0.073,0.185,0.125,0.282,0.125
				h0.863c0.145,0,0.339,0.029,0.339,0.245c0,0.209-0.174,0.247-0.339,0.247h-0.776c-0.285,0-0.404-0.007-0.637-0.195l-0.362-0.302
				c-0.235-0.194-0.292-0.344-0.292-0.646V118.111z"/>
			<path fill="#FFFFFF" d="M177.551,118.111c0-0.302,0.056-0.45,0.291-0.646l0.363-0.303c0.229-0.188,0.348-0.193,0.636-0.193h0.777
				c0.165,0,0.338,0.037,0.338,0.248c0,0.215-0.195,0.244-0.338,0.244h-0.865c-0.098,0-0.194,0.053-0.281,0.123l-0.297,0.254
				c-0.076,0.062-0.134,0.111-0.134,0.209v0.611c0,0.096,0.055,0.147,0.134,0.209l0.297,0.25c0.087,0.073,0.186,0.125,0.281,0.125
				h0.865c0.144,0,0.338,0.029,0.338,0.245c0,0.209-0.173,0.247-0.338,0.247h-0.777c-0.285,0-0.405-0.007-0.636-0.195l-0.363-0.302
				c-0.235-0.194-0.291-0.344-0.291-0.646V118.111z"/>
		</g>
	</g>
	<g>
		<g>
			<path fill="#FFFFFF" d="M102.491,43.096v0.184c0,0.164-0.073,0.256-0.255,0.256c-0.185,0-0.255-0.093-0.255-0.256v-0.696h2.528
				v0.696c0,0.164-0.072,0.256-0.255,0.256c-0.184,0-0.255-0.093-0.255-0.256v-0.184h-0.495v3.215c0,0.164-0.073,0.256-0.256,0.256
				c-0.186,0-0.255-0.092-0.255-0.256v-3.215H102.491z"/>
			<path fill="#FFFFFF" d="M106.635,44.576l-0.912-1.566c-0.038-0.057-0.062-0.113-0.062-0.185c0-0.133,0.122-0.24,0.251-0.24
				c0.169,0,0.225,0.128,0.297,0.251l0.717,1.223l0.717-1.223c0.072-0.123,0.128-0.251,0.297-0.251c0.128,0,0.251,0.107,0.251,0.24
				c0,0.072-0.023,0.128-0.062,0.185l-0.913,1.566l0.913,1.566c0.037,0.056,0.062,0.112,0.062,0.185c0,0.133-0.123,0.24-0.251,0.24
				c-0.169,0-0.225-0.128-0.297-0.251l-0.717-1.223l-0.717,1.223c-0.073,0.123-0.128,0.251-0.297,0.251
				c-0.129,0-0.251-0.107-0.251-0.24c0-0.072,0.022-0.128,0.062-0.185L106.635,44.576z"/>
		</g>
	</g>
	<g>
		<g>
			<path fill="#FFFFFF" d="M104.253,33.818c0.134,0,0.254,0.072,0.254,0.255c0,0.183-0.122,0.255-0.254,0.255h-2.273v-3.727
				c0-0.164,0.072-0.255,0.255-0.255c0.185,0,0.256,0.092,0.256,0.255v3.215L104.253,33.818L104.253,33.818z"/>
		</g>
	</g>
	<g>
		<g>
			<path fill="#FFFFFF" d="M192.936,49.173c0,0.164-0.072,0.255-0.255,0.255c-0.185,0-0.255-0.092-0.255-0.255v-3.727h1.698
				c0.234,0,0.403,0.036,0.588,0.21c0.222,0.204,0.24,0.394,0.24,0.671v0.696c0,0.261-0.02,0.445-0.21,0.655
				c-0.198,0.225-0.408,0.246-0.686,0.246h-1.123L192.936,49.173L192.936,49.173z M192.936,47.411h1.138
				c0.302,0,0.367-0.076,0.367-0.369v-0.716c0-0.292-0.064-0.369-0.367-0.369h-1.138V47.411z"/>
			<path fill="#FFFFFF" d="M197.688,49.428c-0.174,0-0.276-0.036-0.312-0.22h-0.012c-0.035,0.184-0.138,0.22-0.313,0.22h-0.383
				c-0.181,0-0.226-0.031-0.313-0.184l-0.18-0.312c-0.066-0.112-0.072-0.123-0.072-0.261v-2.969c0-0.164,0.072-0.255,0.255-0.255
				c0.185,0,0.255,0.092,0.255,0.255v2.969l0.138,0.246h0.222l0.137-0.246v-1.612c0-0.159,0.074-0.303,0.256-0.303
				c0.184,0,0.256,0.144,0.256,0.303v1.611l0.139,0.247h0.22l0.14-0.247v-2.969c0-0.164,0.07-0.255,0.255-0.255
				c0.186,0,0.255,0.092,0.255,0.255v2.969c0,0.139-0.005,0.149-0.071,0.262l-0.18,0.312c-0.087,0.153-0.135,0.184-0.313,0.184
				H197.688z"/>
			<path fill="#FFFFFF" d="M200.3,49.173c0,0.164-0.073,0.255-0.255,0.255c-0.185,0-0.255-0.092-0.255-0.255v-3.727h1.721
				c0.404,0,0.808,0.287,0.808,0.742v0.353c0,0.481-0.397,0.727-0.808,0.727h-0.471l1.152,1.648
				c0.058,0.076,0.129,0.173,0.129,0.271c0,0.143-0.116,0.24-0.261,0.24c-0.104,0-0.168-0.061-0.225-0.143l-1.412-2.017h-0.118
				v1.905L200.3,49.173L200.3,49.173z M200.3,46.756h1.137c0.143,0,0.369-0.01,0.369-0.215v-0.353c0-0.205-0.211-0.23-0.364-0.23
				h-1.141L200.3,46.756L200.3,46.756z"/>
		</g>
	</g>
	<g>
		<g>
			<path fill="#FFFFFF" d="M28.148,88.747c0.147,0,0.229,0.064,0.229,0.23c0,0.164-0.082,0.227-0.229,0.227h-3.349v-1.527
				c0-0.211,0.031-0.362,0.188-0.526c0.187-0.196,0.354-0.219,0.604-0.219h0.625c0.234,0,0.401,0.019,0.589,0.19
				c0.2,0.18,0.221,0.367,0.221,0.614v1.005h1.124L28.148,88.747L28.148,88.747z M26.565,88.747v-1.021
				c0-0.271-0.07-0.33-0.333-0.33h-0.645c-0.263,0-0.332,0.061-0.332,0.33v1.021H26.565z"/>
			<path fill="#FFFFFF" d="M28.377,84.469c0,0.158-0.032,0.25-0.197,0.281v0.012c0.165,0.033,0.197,0.125,0.197,0.281v0.345
				c0,0.161-0.027,0.202-0.165,0.282l-0.281,0.16c-0.102,0.062-0.109,0.065-0.234,0.065h-2.669c-0.146,0-0.229-0.065-0.229-0.229
				s0.081-0.229,0.229-0.229h2.669l0.224-0.124v-0.195l-0.224-0.125h-1.449c-0.143,0-0.271-0.063-0.271-0.229
				c0-0.166,0.13-0.23,0.271-0.23h1.449l0.224-0.125v-0.197l-0.224-0.129h-2.669c-0.146,0-0.229-0.063-0.229-0.229
				c0-0.164,0.081-0.229,0.229-0.229h2.669c0.125,0,0.137,0.004,0.234,0.064l0.281,0.162c0.138,0.076,0.165,0.12,0.165,0.281V84.469
				z"/>
			<path fill="#FFFFFF" d="M28.148,82.12c0.147,0,0.229,0.062,0.229,0.229c0,0.165-0.082,0.228-0.229,0.228h-3.349v-1.545
				c0-0.363,0.256-0.729,0.667-0.729h0.316c0.435,0,0.652,0.359,0.652,0.729v0.424l1.483-1.035c0.069-0.051,0.157-0.114,0.244-0.114
				c0.13,0,0.217,0.104,0.217,0.233c0,0.092-0.055,0.151-0.129,0.201l-1.815,1.271v0.105L28.148,82.12L28.148,82.12L28.148,82.12z
				 M25.976,82.12v-1.022c0-0.128-0.011-0.33-0.195-0.33h-0.315c-0.186,0-0.207,0.188-0.207,0.325v1.027H25.976L25.976,82.12z"/>
			<path fill="#FFFFFF" d="M27.476,73.837c0.119-0.091,0.226-0.16,0.381-0.16c0.347,0,0.521,0.26,0.521,0.579v1.014
				c0,0.172-0.033,0.326-0.147,0.465c-0.103,0.125-0.267,0.217-0.429,0.217c-0.147,0-0.276-0.084-0.276-0.244
				c0-0.135,0.109-0.217,0.233-0.217c0.138,0,0.158-0.074,0.158-0.201v-1c0-0.037,0.015-0.152-0.056-0.152
				c-0.037,0-0.104,0.064-0.136,0.083l-2.027,1.576c-0.124,0.097-0.219,0.152-0.377,0.152c-0.185,0-0.342-0.088-0.441-0.244
				c-0.08-0.129-0.08-0.233-0.08-0.379v-0.976c0-0.175,0.036-0.323,0.151-0.456c0.104-0.121,0.275-0.216,0.436-0.216
				c0.147,0,0.267,0.074,0.267,0.239c0,0.137-0.087,0.221-0.217,0.221c-0.157,0-0.18,0.078-0.18,0.222v0.976
				c0,0.049-0.016,0.156,0.064,0.156c0.044,0,0.098-0.051,0.124-0.07L27.476,73.837z"/>
			<path fill="#FFFFFF" d="M27.917,70.593c0-0.121,0.064-0.23,0.229-0.23c0.165,0,0.229,0.11,0.229,0.23v2.043h-3.581v-2.043
				c0-0.121,0.063-0.23,0.229-0.23s0.229,0.11,0.229,0.23v1.583h1.102V71.5c0-0.119,0.065-0.229,0.229-0.229
				c0.165,0,0.229,0.11,0.229,0.229v0.677h1.1L27.917,70.593L27.917,70.593z"/>
			<path fill="#FFFFFF" d="M27.917,67.279c0-0.121,0.064-0.23,0.229-0.23c0.165,0,0.229,0.109,0.229,0.23v2.043h-3.352
				c-0.146,0-0.228-0.064-0.228-0.23c0-0.165,0.08-0.228,0.228-0.228h2.893L27.917,67.279L27.917,67.279z"/>
		</g>
	</g>
	<g>
		<g>
			<path fill="#FFFFFF" d="M102.491,52.173c0,0.165-0.073,0.256-0.255,0.256c-0.185,0-0.255-0.092-0.255-0.256v-3.727h1.721
				c0.404,0,0.809,0.287,0.809,0.742v0.353c0,0.482-0.399,0.728-0.809,0.728h-0.47l1.151,1.648c0.057,0.076,0.129,0.173,0.129,0.271
				c0,0.143-0.118,0.24-0.259,0.24c-0.104,0-0.169-0.061-0.227-0.144l-1.411-2.017h-0.118v1.904h-0.007V52.173z M102.491,49.756
				h1.137c0.144,0,0.37-0.01,0.37-0.215v-0.353c0-0.205-0.211-0.23-0.364-0.23h-1.142L102.491,49.756L102.491,49.756z"/>
			<path fill="#FFFFFF" d="M106.635,50.438l-0.912-1.566c-0.038-0.057-0.062-0.113-0.062-0.185c0-0.133,0.122-0.24,0.251-0.24
				c0.169,0,0.225,0.128,0.297,0.251l0.717,1.223l0.717-1.223c0.072-0.123,0.128-0.251,0.297-0.251c0.128,0,0.251,0.107,0.251,0.24
				c0,0.072-0.023,0.128-0.062,0.185l-0.913,1.566l0.913,1.566c0.037,0.056,0.062,0.112,0.062,0.185c0,0.133-0.123,0.24-0.251,0.24
				c-0.169,0-0.225-0.128-0.297-0.251l-0.717-1.223l-0.717,1.223c-0.073,0.124-0.128,0.251-0.297,0.251
				c-0.129,0-0.251-0.107-0.251-0.24c0-0.072,0.022-0.128,0.062-0.185L106.635,50.438z"/>
		</g>
	</g>
	<g>
		<g>
			<path fill="#FFFFFF" d="M128.611,129.7c0,0.164-0.072,0.254-0.255,0.254c-0.185,0-0.255-0.092-0.255-0.254v-3.728h1.697
				c0.235,0,0.404,0.036,0.588,0.21c0.222,0.205,0.241,0.395,0.241,0.671v0.696c0,0.261-0.021,0.445-0.211,0.654
				c-0.198,0.226-0.408,0.246-0.686,0.246h-1.122L128.611,129.7L128.611,129.7z M128.611,127.938h1.138
				c0.302,0,0.368-0.074,0.368-0.369v-0.716c0-0.292-0.066-0.369-0.368-0.369h-1.138V127.938z"/>
			<path fill="#FFFFFF" d="M134.177,127.411c0.097,0.199,0.134,0.348,0.134,0.568c0,0.246-0.066,0.398-0.167,0.609l-0.471,0.943
				c-0.123,0.243-0.328,0.424-0.624,0.424c-0.297,0-0.502-0.181-0.624-0.424l-0.47-0.943c-0.104-0.211-0.169-0.363-0.169-0.609
				c0-0.223,0.038-0.369,0.135-0.568l0.512-1.02c0.124-0.24,0.333-0.419,0.619-0.419c0.285,0,0.495,0.179,0.618,0.419
				L134.177,127.411z M133.219,126.638c-0.042-0.083-0.066-0.154-0.174-0.154c-0.106,0-0.134,0.071-0.173,0.154l-0.462,0.927
				c-0.076,0.148-0.118,0.245-0.118,0.414c0,0.133,0.029,0.225,0.087,0.338l0.493,0.973c0.036,0.074,0.071,0.154,0.173,0.154
				c0.104,0,0.138-0.08,0.174-0.154l0.493-0.973c0.057-0.111,0.087-0.205,0.087-0.338c0-0.169-0.042-0.266-0.118-0.414
				L133.219,126.638z"/>
			<path fill="#FFFFFF" d="M137.044,129.954c-0.173,0-0.276-0.035-0.313-0.222h-0.01c-0.037,0.187-0.139,0.222-0.312,0.222h-0.386
				c-0.179,0-0.225-0.031-0.312-0.184l-0.181-0.314c-0.064-0.111-0.07-0.123-0.07-0.262v-2.967c0-0.164,0.07-0.255,0.255-0.255
				c0.184,0,0.255,0.093,0.255,0.255v2.967l0.138,0.248h0.222l0.138-0.248v-1.609c0-0.16,0.073-0.303,0.255-0.303
				c0.183,0,0.255,0.143,0.255,0.303v1.609l0.137,0.248h0.223l0.137-0.248v-2.967c0-0.164,0.074-0.255,0.255-0.255
				c0.186,0,0.255,0.093,0.255,0.255v2.967c0,0.139-0.005,0.148-0.07,0.262l-0.18,0.314c-0.087,0.152-0.136,0.184-0.313,0.184
				H137.044L137.044,129.954z"/>
			<path fill="#FFFFFF" d="M141.418,129.442c0.134,0,0.255,0.074,0.255,0.256s-0.123,0.256-0.255,0.256h-2.273v-3.981h2.273
				c0.134,0,0.255,0.071,0.255,0.255c0,0.186-0.123,0.256-0.255,0.256h-1.761v1.223h0.753c0.133,0,0.255,0.072,0.255,0.256
				c0,0.182-0.125,0.254-0.255,0.254h-0.753v1.224h1.761V129.442z"/>
			<path fill="#FFFFFF" d="M143.34,129.7c0,0.164-0.073,0.254-0.255,0.254c-0.186,0-0.255-0.092-0.255-0.254v-3.728h1.721
				c0.404,0,0.809,0.286,0.809,0.741v0.354c0,0.48-0.399,0.727-0.809,0.727h-0.471l1.152,1.648c0.058,0.074,0.128,0.172,0.128,0.271
				c0,0.143-0.116,0.24-0.26,0.24c-0.104,0-0.168-0.062-0.225-0.144l-1.413-2.019h-0.118v1.906h-0.005V129.7z M143.34,127.284h1.137
				c0.143,0,0.368-0.011,0.368-0.216v-0.353c0-0.203-0.21-0.229-0.363-0.229h-1.141L143.34,127.284L143.34,127.284z"/>
		</g>
	</g>
	<g>
		<g>
			<path fill="#FFFFFF" d="M41.823,75.243c-0.256,0-0.455-0.061-0.636-0.26c-0.169-0.189-0.194-0.374-0.194-0.61v-2.855
				c0-0.165,0.07-0.256,0.255-0.256c0.184,0,0.255,0.092,0.255,0.256v2.855c0,0.286,0.086,0.358,0.315,0.358h0.869
				c0.229,0,0.317-0.072,0.317-0.358v-2.855c0-0.165,0.072-0.256,0.255-0.256c0.184,0,0.255,0.092,0.255,0.256v2.855
				c0,0.236-0.023,0.42-0.195,0.61c-0.18,0.199-0.377,0.26-0.635,0.26H41.823z"/>
			<path fill="#FFFFFF" d="M47.026,74.241c0.104,0.134,0.18,0.252,0.18,0.423c0,0.385-0.291,0.58-0.646,0.58h-1.125
				c-0.194,0-0.365-0.037-0.519-0.164c-0.138-0.113-0.24-0.297-0.24-0.478c0-0.164,0.092-0.307,0.271-0.307
				c0.148,0,0.24,0.124,0.24,0.26c0,0.153,0.082,0.174,0.226,0.174h1.109c0.042,0,0.169,0.017,0.169-0.062
				c0-0.043-0.072-0.117-0.094-0.147l-1.755-2.26c-0.106-0.136-0.168-0.241-0.168-0.42c0-0.203,0.099-0.377,0.271-0.492
				c0.145-0.093,0.263-0.093,0.428-0.093h1.085c0.193,0,0.357,0.042,0.507,0.167c0.134,0.118,0.24,0.308,0.24,0.487
				c0,0.165-0.082,0.298-0.268,0.298c-0.152,0-0.245-0.099-0.245-0.242c0-0.173-0.088-0.197-0.247-0.197H45.36
				c-0.057,0-0.174-0.015-0.174,0.072c0,0.045,0.057,0.107,0.075,0.138L47.026,74.241z"/>
			<path fill="#FFFFFF" d="M48.358,71.261h1.434c0.752,0,1.095,0.461,1.095,1.183c0,0.296-0.065,0.568-0.337,0.809
				c0.29,0.276,0.337,0.548,0.337,0.926c0,0.67-0.443,1.065-1.095,1.065h-1.434V71.261z M48.869,72.996h0.921
				c0.369,0,0.585-0.165,0.585-0.555c0-0.43-0.118-0.671-0.585-0.671h-0.921V72.996z M48.869,74.732h0.921
				c0.369,0,0.585-0.164,0.585-0.553c0-0.431-0.118-0.671-0.585-0.671h-0.921V74.732z"/>
		</g>
	</g>
	<g>
		<g>
			<path fill="#FFFFFF" d="M43.266,84.27c0.135,0,0.255,0.074,0.255,0.256s-0.122,0.256-0.255,0.256h-2.271v-3.982h2.271
				c0.135,0,0.255,0.072,0.255,0.254c0,0.188-0.122,0.257-0.255,0.257h-1.759v1.224h0.752c0.134,0,0.255,0.071,0.255,0.254
				c0,0.184-0.123,0.256-0.255,0.256h-0.752v1.223h1.759V84.27z"/>
			<path fill="#FFFFFF" d="M45.649,82.792l-0.913-1.565c-0.035-0.058-0.062-0.113-0.062-0.187c0-0.133,0.122-0.24,0.252-0.24
				c0.168,0,0.225,0.13,0.298,0.252l0.715,1.224l0.717-1.224c0.073-0.122,0.13-0.252,0.298-0.252c0.13,0,0.252,0.107,0.252,0.24
				c0,0.072-0.025,0.129-0.062,0.187l-0.913,1.565l0.913,1.567c0.035,0.056,0.062,0.112,0.062,0.185c0,0.136-0.122,0.24-0.252,0.24
				c-0.168,0-0.226-0.129-0.298-0.252l-0.717-1.223l-0.715,1.223c-0.074,0.123-0.13,0.252-0.298,0.252
				c-0.13,0-0.252-0.104-0.252-0.24c0-0.071,0.025-0.129,0.062-0.185L45.649,82.792z"/>
			<path fill="#FFFFFF" d="M48.869,81.311v0.186c0,0.164-0.072,0.256-0.256,0.256s-0.255-0.094-0.255-0.256v-0.697h2.528v0.697
				c0,0.164-0.071,0.256-0.255,0.256c-0.185,0-0.255-0.094-0.255-0.256v-0.186h-0.495v3.215c0,0.165-0.072,0.256-0.255,0.256
				c-0.185,0-0.255-0.092-0.255-0.256v-3.215H48.869z"/>
		</g>
	</g>
	<g>
		<g>
			<path fill="#FFFFFF" d="M165.547,125.898c0.041-0.136,0.097-0.261,0.26-0.261c0.167,0,0.229,0.13,0.267,0.261l0.987,3.465
				c0.036,0.123-0.104,0.255-0.247,0.255c-0.157,0-0.239-0.135-0.275-0.255l-0.19-0.614h-1.092l-0.194,0.614
				c-0.037,0.123-0.118,0.255-0.276,0.255c-0.144,0-0.283-0.135-0.247-0.255L165.547,125.898z M165.813,126.85h-0.011l-0.4,1.387
				h0.804L165.813,126.85z"/>
			<path fill="#FFFFFF" d="M170.247,125.898c0-0.164,0.072-0.255,0.255-0.255s0.255,0.093,0.255,0.255v3.726h-0.675l-1.335-3.069
				v-0.007h-0.013v2.815c0,0.164-0.071,0.255-0.255,0.255c-0.183,0-0.255-0.094-0.255-0.255v-3.728h0.676l1.334,3.105h-0.005h0.013
				L170.247,125.898z"/>
			<path fill="#FFFFFF" d="M172.911,125.898c0.041-0.136,0.097-0.261,0.26-0.261c0.168,0,0.229,0.13,0.267,0.261l0.987,3.465
				c0.036,0.123-0.104,0.255-0.246,0.255c-0.158,0-0.24-0.135-0.276-0.255l-0.19-0.614h-1.09l-0.195,0.614
				c-0.036,0.123-0.117,0.255-0.276,0.255c-0.144,0-0.281-0.135-0.246-0.255L172.911,125.898z M173.177,126.85h-0.011l-0.4,1.387
				h0.804L173.177,126.85z"/>
			<path fill="#FFFFFF" d="M177.863,129.108c0.135,0,0.256,0.073,0.256,0.255c0,0.181-0.123,0.255-0.256,0.255h-2.271v-3.729
				c0-0.164,0.071-0.256,0.255-0.256c0.186,0,0.255,0.093,0.255,0.256v3.215h1.761L177.863,129.108L177.863,129.108z"/>
			<path fill="#FFFFFF" d="M181.667,127.075c0.098,0.197,0.134,0.346,0.134,0.567c0,0.246-0.066,0.399-0.168,0.61l-0.47,0.94
				c-0.122,0.246-0.327,0.427-0.624,0.427s-0.501-0.181-0.624-0.427l-0.472-0.94c-0.103-0.211-0.167-0.364-0.167-0.61
				c0-0.222,0.035-0.37,0.135-0.567l0.512-1.02c0.123-0.24,0.333-0.42,0.619-0.42c0.285,0,0.495,0.18,0.619,0.42L181.667,127.075z
				 M180.711,126.301c-0.043-0.082-0.068-0.153-0.175-0.153c-0.107,0-0.136,0.071-0.174,0.153l-0.462,0.926
				c-0.075,0.148-0.117,0.246-0.117,0.415c0,0.134,0.029,0.226,0.087,0.339l0.492,0.973c0.036,0.071,0.071,0.154,0.174,0.154
				c0.104,0,0.137-0.083,0.175-0.154l0.492-0.973c0.056-0.113,0.086-0.205,0.086-0.339c0-0.169-0.041-0.267-0.117-0.415
				L180.711,126.301z"/>
			<path fill="#FFFFFF" d="M184.475,128.319c-0.135,0-0.255-0.072-0.255-0.256s0.123-0.254,0.255-0.254h1.007v1.006
				c0,0.496-0.333,0.805-0.82,0.805h-0.88c-0.235,0-0.41-0.043-0.59-0.205c-0.203-0.186-0.239-0.375-0.239-0.631v-1.277
				c0-0.326,0.071-0.493,0.266-0.746l0.604-0.772c0.205-0.259,0.385-0.346,0.718-0.346h0.687c0.135,0,0.255,0.071,0.255,0.256
				c0,0.183-0.123,0.254-0.255,0.254h-0.615c-0.282,0-0.261-0.004-0.431,0.212l-0.557,0.711c-0.16,0.198-0.16,0.413-0.16,0.664
				v1.006c0,0.282,0.062,0.369,0.354,0.369h0.813c0.185,0,0.339-0.042,0.339-0.266v-0.523L184.475,128.319L184.475,128.319z"/>
			<path fill="#FFFFFF" d="M191.839,129.108h0.753c0.134,0,0.255,0.073,0.255,0.255c0,0.181-0.123,0.255-0.255,0.255h-2.017
				c-0.136,0-0.256-0.074-0.256-0.255c0-0.182,0.122-0.255,0.256-0.255h0.752v-2.959h-0.752c-0.136,0-0.256-0.072-0.256-0.256
				c0-0.182,0.122-0.254,0.256-0.254h2.017c0.134,0,0.255,0.072,0.255,0.254c0,0.184-0.123,0.256-0.255,0.256h-0.753V129.108z"/>
			<path fill="#FFFFFF" d="M196.023,125.898c0-0.164,0.073-0.255,0.255-0.255c0.183,0,0.256,0.093,0.256,0.255v3.726h-0.677
				l-1.335-3.069v-0.007h-0.011v2.815c0,0.164-0.073,0.255-0.255,0.255c-0.186,0-0.255-0.094-0.255-0.255v-3.728h0.676l1.335,3.105
				h-0.005h0.01L196.023,125.898z"/>
		</g>
	</g>
	<g>
		<g>
			<path fill="#FFFFFF" d="M124.462,134.133h0.941c0.165,0,0.285,0.023,0.408,0.143c0.145,0.135,0.16,0.256,0.16,0.436v1.095
				c0,0.159-0.016,0.271-0.122,0.399c-0.13,0.154-0.262,0.174-0.446,0.174h-1.137c-0.134,0-0.21-0.037-0.337-0.092l-0.195-0.088
				c-0.139-0.061-0.292-0.107-0.292-0.285c0-0.135,0.112-0.256,0.247-0.256c0.062,0,0.106,0.016,0.165,0.043l0.153,0.066
				c0.073,0.031,0.188,0.104,0.271,0.104h1.186v-1.223h-1.512v-2.248h1.766c0.135,0,0.255,0.074,0.255,0.256
				c0,0.186-0.123,0.254-0.255,0.254h-1.254L124.462,134.133L124.462,134.133z"/>
			<path fill="#FFFFFF" d="M129.143,133.473v-0.82c0-0.164,0.073-0.256,0.255-0.256c0.186,0,0.255,0.094,0.255,0.256v0.809
				c0,0.066-0.006,0.138-0.029,0.199l-0.978,2.492c-0.051,0.129-0.098,0.225-0.256,0.225s-0.204-0.098-0.255-0.225l-0.977-2.492
				c-0.025-0.062-0.03-0.137-0.03-0.199v-0.809c0-0.164,0.073-0.256,0.255-0.256c0.183,0,0.255,0.094,0.255,0.256v0.82l0.752,1.955
				L129.143,133.473z"/>
		</g>
	</g>
	<g>
		<g>
			<path fill="#FFFFFF" d="M134.363,135.081c-0.133,0-0.254-0.072-0.254-0.254c0-0.184,0.123-0.256,0.254-0.256h1.01v1.008
				c0,0.494-0.334,0.803-0.82,0.803h-0.882c-0.235,0-0.408-0.043-0.588-0.203c-0.204-0.186-0.24-0.377-0.24-0.631v-1.276
				c0-0.328,0.072-0.496,0.267-0.748l0.604-0.772c0.205-0.26,0.383-0.348,0.718-0.348h0.686c0.134,0,0.255,0.072,0.255,0.256
				s-0.123,0.256-0.255,0.256h-0.614c-0.282,0-0.262-0.006-0.432,0.209l-0.558,0.713c-0.158,0.197-0.158,0.414-0.158,0.664v1.006
				c0,0.283,0.062,0.369,0.354,0.369h0.812c0.186,0,0.339-0.043,0.339-0.267v-0.522h-0.497V135.081L134.363,135.081z"/>
			<path fill="#FFFFFF" d="M137.077,134.614v1.428c0,0.168-0.036,0.338-0.245,0.338c-0.21,0-0.245-0.168-0.245-0.338v-2.057
				c0-0.18,0.019-0.363,0.245-0.363c0.221,0,0.245,0.185,0.245,0.357v0.057v0.012l0.399-0.262c0.13-0.082,0.268-0.164,0.425-0.164
				h0.365c0.189,0,0.309,0.051,0.455,0.178c0.222,0.191,0.211,0.4,0.222,0.666l0.051,1.545c0.006,0.173-0.021,0.369-0.24,0.369
				c-0.198,0-0.24-0.168-0.245-0.332l-0.052-1.516c-0.012-0.301-0.035-0.42-0.332-0.42h-0.165c-0.05,0-0.104,0.016-0.153,0.047
				L137.077,134.614z"/>
			<path fill="#FFFFFF" d="M141.615,133.622c0.168,0,0.308,0.092,0.485,0.271l0.082,0.087v-1.035c0-0.168,0.036-0.338,0.246-0.338
				c0.209,0,0.245,0.168,0.245,0.338v3.094c0,0.168-0.036,0.344-0.245,0.344c-0.195,0-0.246-0.164-0.246-0.327v-0.03l-0.104,0.105
				c-0.155,0.144-0.322,0.252-0.472,0.252h-0.476c-0.165,0-0.348-0.111-0.42-0.174l-0.169-0.143
				c-0.203-0.174-0.271-0.309-0.271-0.568v-0.986c0-0.262,0.068-0.396,0.271-0.568l0.169-0.145c0.153-0.133,0.266-0.172,0.471-0.172
				L141.615,133.622L141.615,133.622z M140.76,135.299c0,0.138,0,0.312,0.075,0.375l0.147,0.117
				c0.062,0.051,0.123,0.098,0.186,0.098h0.348c0.062,0,0.148-0.041,0.24-0.123l0.282-0.24c0.072-0.062,0.144-0.123,0.144-0.215
				v-0.619c0-0.092-0.073-0.154-0.144-0.216l-0.282-0.241c-0.092-0.08-0.179-0.123-0.24-0.123h-0.348
				c-0.062,0-0.123,0.047-0.186,0.1l-0.147,0.117c-0.075,0.062-0.075,0.234-0.075,0.375V135.299z"/>
		</g>
	</g>
	<g>
		<g>
			<path fill="#FFFFFF" d="M147.95,134.221h-1.76c-0.144,0-0.255-0.123-0.255-0.256v-1.312c0-0.133,0.111-0.254,0.255-0.254h2.017
				c0.144,0,0.255,0.123,0.255,0.254v3.472c0,0.139-0.103,0.256-0.255,0.256h-0.255c-0.153,0-0.254-0.117-0.254-0.256
				c0-0.152,0.104-0.254,0.254-0.254L147.95,134.221L147.95,134.221z M147.95,133.709v-0.799h-1.505v0.799H147.95z"/>
			<path fill="#FFFFFF" d="M151.633,133.474v-0.819c0-0.164,0.073-0.256,0.255-0.256c0.186,0,0.255,0.092,0.255,0.256v0.809
				c0,0.066-0.005,0.137-0.03,0.197l-0.977,2.494c-0.051,0.129-0.099,0.225-0.255,0.225c-0.157,0-0.205-0.098-0.255-0.225
				l-0.979-2.494c-0.024-0.062-0.029-0.135-0.029-0.197v-0.809c0-0.164,0.07-0.256,0.255-0.256s0.255,0.092,0.255,0.256v0.819
				l0.753,1.956L151.633,133.474z"/>
		</g>
	</g>
	<g>
		<g>
			<path fill="#FFFFFF" d="M163.87,132.397c0.282,0,0.513,0.23,0.513,0.514v2.957c0,0.285-0.222,0.512-0.513,0.512h-1.504
				c-0.292,0-0.513-0.225-0.513-0.512v-2.957c0-0.283,0.229-0.514,0.513-0.514H163.87z M163.87,135.868v-2.957h-1.504v2.957H163.87z
				"/>
		</g>
	</g>
	<g>
		<g>
			<path fill="#FFFFFF" d="M171.064,135.868v-1.035c0-0.147,0.066-0.254,0.255-0.254c0.19,0,0.257,0.104,0.257,0.254v1.291
				c0,0.186-0.123,0.256-0.257,0.256h-2.017c-0.134,0-0.255-0.073-0.255-0.256c0-0.184,0.123-0.256,0.255-0.256h0.753v-2.957h-0.753
				c-0.134,0-0.255-0.072-0.255-0.254c0-0.183,0.123-0.256,0.255-0.256h1.265v3.471h0.496L171.064,135.868L171.064,135.868z"/>
		</g>
	</g>
	<g>
		<g>
			<path fill="#FFFFFF" d="M176.751,135.868h1.76c0.135,0,0.255,0.072,0.255,0.256c0,0.186-0.122,0.254-0.255,0.254h-2.271v-1.668
				c0-0.381,0.194-0.578,0.577-0.578h1.438v-1.223h-1.76c-0.135,0-0.255-0.074-0.255-0.256c0-0.184,0.121-0.254,0.255-0.254h1.697
				c0.167,0,0.285,0.025,0.414,0.143c0.143,0.133,0.158,0.271,0.158,0.457v1.049c0,0.185-0.015,0.32-0.158,0.455
				c-0.129,0.117-0.247,0.145-0.414,0.145h-1.442V135.868L176.751,135.868z"/>
		</g>
	</g>
	<g>
		<g>
			<path fill="#FFFFFF" d="M183.689,132.911c-0.135,0-0.255-0.072-0.255-0.257c0-0.183,0.123-0.255,0.255-0.255h1.762
				c0.291,0,0.513,0.221,0.513,0.512v0.982c0,0.204-0.043,0.354-0.199,0.496c0.158,0.143,0.199,0.291,0.199,0.496v0.982
				c0,0.291-0.223,0.512-0.513,0.512h-1.762c-0.135,0-0.255-0.074-0.255-0.256c0-0.185,0.123-0.254,0.255-0.254h1.762v-0.853
				c0-0.285-0.112-0.375-0.256-0.375h-1.004c-0.135,0-0.255-0.072-0.255-0.254c0-0.187,0.122-0.257,0.255-0.257h1.004
				c0.144,0,0.256-0.086,0.256-0.375v-0.852L183.689,132.911L183.689,132.911z"/>
		</g>
	</g>
	<g>
		<g>
			<path fill="#FFFFFF" d="M192.387,134.569v-1.48c0-0.127,0.062-0.254,0.255-0.254c0.194,0,0.255,0.129,0.255,0.254v1.48
				c0.135,0,0.254,0.073,0.254,0.256c0,0.184-0.122,0.256-0.254,0.256v1.041c0,0.166-0.073,0.256-0.255,0.256
				s-0.255-0.094-0.255-0.256v-1.041h-1.505v-2.428c0-0.13,0.062-0.256,0.255-0.256c0.195,0,0.255,0.129,0.255,0.256v1.914h0.993
				L192.387,134.569L192.387,134.569z"/>
		</g>
	</g>
	<g>
		<g>
			<path fill="#FFFFFF" d="M198.837,134.133h0.941c0.165,0,0.286,0.023,0.41,0.143c0.144,0.135,0.158,0.256,0.158,0.436v1.095
				c0,0.159-0.016,0.271-0.122,0.399c-0.129,0.154-0.262,0.174-0.446,0.174h-1.137c-0.133,0-0.21-0.037-0.337-0.092l-0.195-0.088
				c-0.138-0.061-0.291-0.107-0.291-0.285c0-0.135,0.111-0.256,0.245-0.256c0.062,0,0.106,0.016,0.165,0.043l0.153,0.066
				c0.073,0.031,0.189,0.104,0.271,0.104h1.185v-1.223h-1.511v-2.248h1.766c0.134,0,0.255,0.074,0.255,0.256
				c0,0.186-0.122,0.254-0.255,0.254h-1.253L198.837,134.133L198.837,134.133z"/>
		</g>
	</g>
	<g>
		<g>
			<path fill="#FFFFFF" d="M197.956,86.542h0.752c0.134,0,0.255,0.071,0.255,0.256c0,0.184-0.122,0.254-0.255,0.254h-2.019
				c-0.133,0-0.255-0.071-0.255-0.254c0-0.186,0.123-0.256,0.255-0.256h0.753v-2.959h-0.753c-0.133,0-0.255-0.072-0.255-0.254
				c0-0.183,0.123-0.256,0.255-0.256h2.019c0.134,0,0.255,0.073,0.255,0.256c0,0.182-0.122,0.254-0.255,0.254h-0.752V86.542z"/>
			<path fill="#FFFFFF" d="M201.495,87.053c-0.385,0-0.605-0.154-0.77-0.487l-0.47-0.952c-0.087-0.174-0.137-0.338-0.137-0.537
				c0-0.225,0.042-0.363,0.142-0.566l0.471-0.945c0.174-0.354,0.395-0.492,0.788-0.492h0.87c0.113,0,0.255,0.061,0.255,0.254
				c0,0.186-0.138,0.256-0.255,0.256h-0.854c-0.221,0-0.256,0.02-0.353,0.215l-0.446,0.892c-0.065,0.136-0.104,0.228-0.104,0.388
				c0,0.143,0.045,0.229,0.104,0.354l0.437,0.885c0.104,0.21,0.153,0.225,0.384,0.225h0.833c0.113,0,0.256,0.062,0.256,0.256
				c0,0.184-0.139,0.254-0.256,0.254h-0.894L201.495,87.053L201.495,87.053L201.495,87.053z"/>
			<path fill="#FFFFFF" d="M206.15,86.049c0.104,0.133,0.181,0.25,0.181,0.424c0,0.385-0.291,0.58-0.646,0.58h-1.124
				c-0.194,0-0.363-0.037-0.519-0.164c-0.138-0.113-0.24-0.297-0.24-0.477c0-0.164,0.092-0.31,0.271-0.31
				c0.149,0,0.24,0.125,0.24,0.263c0,0.152,0.082,0.172,0.227,0.172h1.109c0.042,0,0.168,0.016,0.168-0.062
				c0-0.042-0.072-0.118-0.092-0.148l-1.755-2.257c-0.107-0.137-0.169-0.241-0.169-0.42c0-0.205,0.099-0.379,0.271-0.493
				c0.145-0.093,0.263-0.093,0.428-0.093h1.085c0.193,0,0.357,0.043,0.507,0.168c0.134,0.118,0.24,0.308,0.24,0.485
				c0,0.166-0.082,0.299-0.268,0.299c-0.152,0-0.245-0.1-0.245-0.241c0-0.174-0.087-0.198-0.247-0.198h-1.085
				c-0.056,0-0.174-0.016-0.174,0.073c0,0.045,0.057,0.104,0.076,0.136L206.15,86.049z"/>
			<path fill="#FFFFFF" d="M207.994,86.795c0,0.164-0.073,0.256-0.256,0.256c-0.185,0-0.255-0.092-0.255-0.256v-3.728h1.698
				c0.235,0,0.404,0.037,0.587,0.211c0.224,0.202,0.241,0.394,0.241,0.671v0.696c0,0.261-0.019,0.444-0.211,0.653
				c-0.197,0.226-0.408,0.246-0.686,0.246h-1.121L207.994,86.795L207.994,86.795z M207.994,85.036h1.137
				c0.302,0,0.368-0.076,0.368-0.369v-0.715c0-0.293-0.066-0.371-0.368-0.371h-1.137V85.036z"/>
		</g>
	</g>
	<g>
		<g>
			<path fill="#FFFFFF" d="M200.384,56.742h-1.035c-0.146,0-0.255-0.066-0.255-0.255s0.107-0.256,0.255-0.256h1.29
				c0.186,0,0.255,0.123,0.255,0.256v2.016c0,0.133-0.073,0.256-0.255,0.256c-0.184,0-0.255-0.123-0.255-0.256v-0.752h-2.958v0.752
				c0,0.133-0.073,0.256-0.255,0.256c-0.181,0-0.254-0.123-0.254-0.256v-1.264h3.47L200.384,56.742L200.384,56.742z"/>
		</g>
	</g>
	<g>
		<g>
			<path fill="#FFFFFF" d="M82.327,23.176c-0.139-0.041-0.263-0.097-0.263-0.26c0-0.169,0.129-0.23,0.263-0.267l3.464-0.988
				c0.123-0.036,0.255,0.103,0.255,0.246c0,0.158-0.135,0.241-0.255,0.276l-0.614,0.189v1.091l0.614,0.195
				c0.123,0.036,0.255,0.118,0.255,0.276c0,0.144-0.135,0.282-0.255,0.246L82.327,23.176z M83.28,22.911v0.01l1.39,0.399v-0.803
				L83.28,22.911z"/>
			<path fill="#FFFFFF" d="M85.792,19.986c0.165,0,0.255,0.072,0.255,0.256c0,0.184-0.092,0.255-0.255,0.255h-3.729v-1.72
				c0-0.405,0.285-0.809,0.742-0.809h0.353c0.48,0,0.729,0.399,0.729,0.809v0.471l1.648-1.152c0.073-0.057,0.172-0.128,0.271-0.128
				c0.143,0,0.24,0.118,0.24,0.26c0,0.103-0.062,0.169-0.145,0.225l-2.017,1.413v0.118h1.904L85.792,19.986L85.792,19.986z
				 M83.376,19.986v-1.137c0-0.143-0.013-0.369-0.217-0.369h-0.353c-0.204,0-0.229,0.21-0.229,0.364v1.141L83.376,19.986
				L83.376,19.986z"/>
			<path fill="#FFFFFF" d="M85.536,14.543c0-0.133,0.072-0.255,0.255-0.255s0.255,0.122,0.255,0.255v2.272h-3.982v-2.272
				c0-0.133,0.073-0.255,0.255-0.255c0.184,0,0.256,0.122,0.256,0.255v1.761h1.224v-0.752c0-0.133,0.072-0.256,0.255-0.256
				s0.255,0.123,0.255,0.256v0.752h1.222v-1.761H85.536z"/>
			<path fill="#FFFFFF" d="M82.066,13.133v-2.272c0-0.133,0.072-0.255,0.255-0.255c0.185,0,0.256,0.122,0.256,0.255v1.761h0.789
				v-1.259c0-0.133,0.072-0.255,0.255-0.255c0.182,0,0.255,0.123,0.255,0.255v1.259h1.914c0.165,0,0.255,0.072,0.255,0.255
				c0,0.185-0.093,0.256-0.255,0.256H82.066L82.066,13.133z"/>
		</g>
	</g>
	<g>
		<g>
			<path fill="#FFFFFF" d="M91.881,18.969c0,0.133-0.073,0.256-0.255,0.256c-0.187,0-0.255-0.123-0.255-0.256v-1.008h1.008
				c0.495,0,0.802,0.333,0.802,0.819v0.88c0,0.235-0.041,0.41-0.203,0.589c-0.184,0.205-0.375,0.24-0.63,0.24H91.07
				c-0.326,0-0.494-0.071-0.746-0.266l-0.773-0.604c-0.259-0.205-0.346-0.384-0.346-0.717v-0.686c0-0.133,0.071-0.255,0.255-0.255
				c0.182,0,0.254,0.123,0.254,0.255v0.614c0,0.281-0.005,0.261,0.211,0.43l0.71,0.558c0.199,0.158,0.414,0.158,0.666,0.158h1.005
				c0.283,0,0.369-0.061,0.369-0.354V18.81c0-0.184-0.041-0.337-0.266-0.337h-0.523L91.881,18.969L91.881,18.969z"/>
			<path fill="#FFFFFF" d="M89.46,14.785c-0.165,0-0.255-0.072-0.255-0.255c0-0.183,0.093-0.255,0.255-0.255h3.728v0.675
				l-3.071,1.336H90.11v0.01h2.814c0.165,0,0.255,0.072,0.255,0.256c0,0.184-0.092,0.255-0.255,0.255h-3.728v-0.675l3.105-1.336
				V14.8v-0.01L89.46,14.785z"/>
			<path fill="#FFFFFF" d="M89.71,12.623v0.189c0,0.169-0.062,0.312-0.255,0.312c-0.186,0-0.255-0.139-0.255-0.297v-0.855
				c0-0.4,0.163-0.599,0.512-0.773l0.9-0.451c0.209-0.102,0.357-0.153,0.594-0.153c0.204,0,0.377,0.056,0.562,0.148L92.7,11.21
				c0.363,0.179,0.479,0.41,0.479,0.809v0.85c0,0.133-0.072,0.255-0.255,0.255s-0.255-0.122-0.255-0.255v-0.246H89.71z
				 M92.669,12.111v-0.097c0-0.215-0.024-0.267-0.215-0.359l-0.912-0.45c-0.118-0.056-0.204-0.097-0.333-0.097
				c-0.174,0-0.271,0.056-0.42,0.128l-0.865,0.425c-0.22,0.107-0.215,0.153-0.215,0.389v0.061H92.669L92.669,12.111z"/>
		</g>
	</g>
	<g>
		<g>
			<path fill="#FFFFFF" d="M118.145,136.133c0,0.133-0.073,0.255-0.255,0.255s-0.255-0.122-0.255-0.255v-1.762
				c0-0.291,0.222-0.513,0.512-0.513h0.983c0.203,0,0.352,0.041,0.495,0.199c0.142-0.16,0.291-0.199,0.495-0.199h0.98
				c0.291,0,0.512,0.222,0.512,0.513v1.762c0,0.133-0.071,0.255-0.255,0.255c-0.183,0-0.255-0.122-0.255-0.255v-1.762h-0.851
				c-0.285,0-0.374,0.111-0.374,0.256v1.004c0,0.133-0.073,0.256-0.255,0.256c-0.187,0-0.255-0.125-0.255-0.256v-1.004
				c0-0.145-0.087-0.256-0.375-0.256h-0.852L118.145,136.133L118.145,136.133z"/>
			<path fill="#FFFFFF" d="M118.708,130.69h-0.82c-0.165,0-0.255-0.072-0.255-0.254c0-0.186,0.092-0.256,0.255-0.256h0.811
				c0.064,0,0.137,0.006,0.197,0.031l2.493,0.976c0.129,0.05,0.225,0.099,0.225,0.255c0,0.16-0.098,0.205-0.225,0.256l-2.493,0.977
				c-0.062,0.025-0.136,0.031-0.197,0.031h-0.811c-0.165,0-0.255-0.072-0.255-0.254c0-0.186,0.092-0.256,0.255-0.256h0.82
				l1.956-0.752L118.708,130.69z"/>
			<path fill="#FFFFFF" d="M118.145,128.768c0,0.135-0.073,0.256-0.255,0.256s-0.255-0.122-0.255-0.256v-1.76
				c0-0.293,0.222-0.512,0.512-0.512h0.983c0.203,0,0.352,0.041,0.495,0.198c0.142-0.159,0.291-0.198,0.495-0.198h0.98
				c0.291,0,0.512,0.219,0.512,0.512v1.76c0,0.135-0.071,0.256-0.255,0.256c-0.183,0-0.255-0.122-0.255-0.256v-1.76h-0.851
				c-0.285,0-0.374,0.111-0.374,0.256v1.003c0,0.136-0.073,0.255-0.255,0.255c-0.187,0-0.255-0.121-0.255-0.255v-1.003
				c0-0.145-0.087-0.256-0.375-0.256h-0.852L118.145,128.768L118.145,128.768z"/>
		</g>
	</g>
	<g>
		<g>
			<path fill="#FFFFFF" d="M114.341,135.877c0.165,0,0.255,0.072,0.255,0.256c0,0.183-0.092,0.255-0.255,0.255h-3.728v-1.722
				c0-0.404,0.285-0.808,0.74-0.808h0.354c0.48,0,0.727,0.397,0.727,0.808v0.471l1.648-1.152c0.076-0.057,0.174-0.129,0.271-0.129
				c0.145,0,0.24,0.118,0.24,0.26c0,0.104-0.061,0.17-0.142,0.225l-2.02,1.412v0.119h1.905L114.341,135.877L114.341,135.877z
				 M111.925,135.877v-1.137c0-0.144-0.01-0.369-0.215-0.369h-0.354c-0.203,0-0.229,0.211-0.229,0.363v1.143H111.925
				L111.925,135.877z"/>
			<path fill="#FFFFFF" d="M114.085,130.434c0-0.135,0.074-0.255,0.255-0.255c0.185,0,0.255,0.122,0.255,0.255v2.271h-3.979v-2.271
				c0-0.135,0.071-0.255,0.255-0.255c0.182,0,0.255,0.122,0.255,0.255v1.76h1.222v-0.753c0-0.134,0.073-0.255,0.256-0.255
				c0.184,0,0.255,0.123,0.255,0.255v0.753h1.224v-1.76H114.085z"/>
			<path fill="#FFFFFF" d="M113.594,126.674c0.133-0.102,0.251-0.178,0.425-0.178c0.383,0,0.578,0.291,0.578,0.645v1.125
				c0,0.195-0.035,0.365-0.164,0.52c-0.112,0.135-0.296,0.239-0.476,0.239c-0.165,0-0.309-0.093-0.309-0.271
				c0-0.15,0.123-0.241,0.261-0.241c0.153,0,0.173-0.081,0.173-0.226v-1.109c0-0.041,0.016-0.17-0.062-0.17
				c-0.042,0-0.117,0.074-0.147,0.094l-2.259,1.756c-0.136,0.107-0.239,0.167-0.419,0.167c-0.204,0-0.379-0.097-0.492-0.271
				c-0.093-0.144-0.093-0.262-0.093-0.424v-1.088c0-0.195,0.042-0.357,0.167-0.504c0.118-0.136,0.309-0.24,0.486-0.24
				c0.165,0,0.298,0.08,0.298,0.264c0,0.154-0.098,0.248-0.241,0.248c-0.173,0-0.197,0.085-0.197,0.244v1.086
				c0,0.057-0.016,0.174,0.072,0.174c0.046,0,0.106-0.057,0.138-0.076L113.594,126.674z"/>
			<path fill="#FFFFFF" d="M114.085,123.071c0-0.135,0.074-0.256,0.255-0.256c0.185,0,0.255,0.122,0.255,0.256v2.271h-3.979v-2.271
				c0-0.135,0.071-0.256,0.255-0.256c0.182,0,0.255,0.122,0.255,0.256v1.76h1.222v-0.752c0-0.135,0.073-0.256,0.256-0.256
				c0.184,0,0.255,0.123,0.255,0.256v0.752h1.224v-1.76H114.085z"/>
			<path fill="#FFFFFF" d="M111.126,121.149h0.185c0.164,0,0.255,0.072,0.255,0.255c0,0.185-0.094,0.255-0.255,0.255h-0.695v-2.527
				h0.695c0.164,0,0.255,0.07,0.255,0.254c0,0.187-0.094,0.257-0.255,0.257h-0.185v0.495h3.215c0.165,0,0.255,0.072,0.255,0.255
				s-0.092,0.256-0.255,0.256h-3.215V121.149z"/>
		</g>
	</g>
	<g>
		<g>
			<path fill="#FFFFFF" d="M97.372,12.309c-0.135,0-0.255-0.072-0.255-0.255c0-0.183,0.121-0.256,0.255-0.256h1.76
				c0.292,0,0.512,0.221,0.512,0.512v0.982c0,0.205-0.041,0.354-0.198,0.497c0.159,0.143,0.198,0.292,0.198,0.496v0.982
				c0,0.292-0.22,0.512-0.512,0.512h-1.76c-0.135,0-0.255-0.072-0.255-0.255s0.121-0.255,0.255-0.255h1.76v-0.85
				c0-0.287-0.111-0.374-0.255-0.374h-1.004c-0.136,0-0.255-0.072-0.255-0.255c0-0.185,0.122-0.255,0.255-0.255h1.004
				c0.144,0,0.255-0.087,0.255-0.375v-0.85L97.372,12.309L97.372,12.309z"/>
		</g>
		<g>
			<path fill="#FFFFFF" d="M99.132,21.405V20.37c0-0.148,0.067-0.255,0.255-0.255c0.19,0,0.255,0.107,0.255,0.255v1.29
				c0,0.185-0.122,0.256-0.255,0.256H97.37c-0.135,0-0.255-0.072-0.255-0.256c0-0.184,0.122-0.255,0.255-0.255h0.753v-2.958H97.37
				c-0.135,0-0.255-0.072-0.255-0.256s0.122-0.255,0.255-0.255h1.265v3.471L99.132,21.405L99.132,21.405z"/>
		</g>
	</g>
	<g>
		<g>
			<path fill="#FFFFFF" d="M104.812,15.268h1.76c0.135,0,0.256,0.072,0.256,0.255s-0.122,0.255-0.256,0.255H104.3V14.11
				c0-0.384,0.195-0.578,0.578-0.578h1.438v-1.224h-1.759c-0.135,0-0.255-0.072-0.255-0.256c0-0.184,0.122-0.255,0.255-0.255h1.697
				c0.168,0,0.285,0.026,0.414,0.143c0.143,0.133,0.159,0.271,0.159,0.456v1.049c0,0.185-0.017,0.322-0.159,0.456
				c-0.129,0.118-0.246,0.144-0.414,0.144h-1.443L104.812,15.268L104.812,15.268z"/>
		</g>
		<g>
			<path fill="#FFFFFF" d="M106.316,21.405V20.37c0-0.148,0.068-0.255,0.255-0.255c0.19,0,0.256,0.107,0.256,0.255v1.29
				c0,0.185-0.122,0.256-0.256,0.256h-2.017c-0.134,0-0.255-0.072-0.255-0.256c0-0.184,0.123-0.255,0.255-0.255h0.753v-2.958h-0.753
				c-0.134,0-0.255-0.072-0.255-0.256s0.123-0.255,0.255-0.255h1.265v3.471L106.316,21.405L106.316,21.405z"/>
		</g>
	</g>
	<g>
		<g>
			<path fill="#FFFFFF" d="M113.499,15.268v-1.035c0-0.148,0.065-0.255,0.255-0.255c0.188,0,0.254,0.107,0.254,0.255v1.29
				c0,0.184-0.122,0.255-0.254,0.255h-2.018c-0.134,0-0.255-0.072-0.255-0.255s0.122-0.255,0.255-0.255h0.752v-2.959h-0.752
				c-0.134,0-0.255-0.072-0.255-0.255c0-0.183,0.122-0.256,0.255-0.256h1.265v3.471L113.499,15.268L113.499,15.268z"/>
		</g>
		<g>
			<path fill="#FFFFFF" d="M113.499,21.405V20.37c0-0.148,0.065-0.255,0.255-0.255c0.188,0,0.254,0.107,0.254,0.255v1.29
				c0,0.185-0.122,0.256-0.254,0.256h-2.018c-0.134,0-0.255-0.072-0.255-0.256c0-0.184,0.122-0.255,0.255-0.255h0.752v-2.958h-0.752
				c-0.134,0-0.255-0.072-0.255-0.256s0.122-0.255,0.255-0.255h1.265v3.471L113.499,21.405L113.499,21.405z"/>
		</g>
	</g>
	<g>
		<g>
			<path fill="#FFFFFF" d="M120.682,11.797c0.283,0,0.512,0.23,0.512,0.512v2.959c0,0.286-0.221,0.512-0.512,0.512h-1.505
				c-0.291,0-0.512-0.225-0.512-0.512v-2.959c0-0.281,0.229-0.512,0.512-0.512H120.682z M120.682,15.268v-2.959h-1.505v2.959
				H120.682z"/>
		</g>
		<g>
			<path fill="#FFFFFF" d="M120.682,21.405V20.37c0-0.148,0.067-0.255,0.255-0.255c0.189,0,0.255,0.107,0.255,0.255v1.29
				c0,0.185-0.123,0.256-0.255,0.256h-2.017c-0.135,0-0.255-0.072-0.255-0.256c0-0.184,0.122-0.255,0.255-0.255h0.752v-2.958h-0.752
				c-0.135,0-0.255-0.072-0.255-0.256s0.122-0.255,0.255-0.255h1.265v3.471L120.682,21.405L120.682,21.405z"/>
		</g>
	</g>
	<g>
		<g>
			<path fill="#FFFFFF" d="M127.865,13.619h-1.761c-0.144,0-0.255-0.122-0.255-0.255v-1.31c0-0.133,0.11-0.256,0.255-0.256h2.018
				c0.143,0,0.255,0.123,0.255,0.256v3.471c0,0.138-0.104,0.255-0.255,0.255h-0.255c-0.153,0-0.256-0.118-0.256-0.255
				c0-0.153,0.106-0.256,0.256-0.256L127.865,13.619L127.865,13.619z M127.865,13.107v-0.798h-1.505v0.798H127.865z"/>
		</g>
	</g>
	<g>
		<g>
			<path fill="#FFFFFF" d="M134.792,11.797c0.174,0,0.255,0.123,0.255,0.255v1.48c0.16,0,0.283,0.056,0.375,0.143
				c0.092,0.087,0.137,0.215,0.137,0.374v1.218c0,0.312-0.195,0.512-0.512,0.512h-1.505c-0.315,0-0.513-0.2-0.513-0.512V14.05
				c0-0.159,0.046-0.287,0.139-0.374c0.092-0.087,0.215-0.143,0.374-0.143v-1.48c0-0.133,0.081-0.255,0.255-0.255L134.792,11.797
				L134.792,11.797z M135.048,15.268v-1.223h-1.504v1.223H135.048z M134.536,13.533v-1.224h-0.48v1.224H134.536z"/>
		</g>
	</g>
	<g>
		<g>
			<path fill="#FFFFFF" d="M147.932,12.309c0,0.113-0.092,0.256-0.255,0.256c-0.164,0-0.255-0.143-0.255-0.256v-0.255
				c0-0.112,0.093-0.256,0.255-0.256h2.272v1.484c0,0.18,0.006,0.2-0.139,0.322l-0.715,0.619c-0.135,0.118-0.144,0.129-0.144,0.308
				v0.994c0,0.164-0.073,0.255-0.256,0.255c-0.185,0-0.255-0.092-0.255-0.255V14.29c0-0.168,0.005-0.184,0.135-0.296l0.706-0.61
				c0.167-0.148,0.158-0.143,0.158-0.368v-0.707H147.932z"/>
		</g>
	</g>
	<g>
		<g>
			<path fill="#FFFFFF" d="M155.126,13.967h1.709c0.255,0,0.307,0.107,0.307,0.344v1.146c0,0.241-0.104,0.323-0.332,0.323h-1.863
				c-0.239,0-0.332-0.087-0.332-0.323v-3.404c0-0.117,0.04-0.255,0.221-0.255h0.308c0.135,0,0.241,0.123,0.241,0.255
				c0,0.154-0.106,0.256-0.255,0.256L155.126,13.967L155.126,13.967z M155.126,14.479v0.789h1.504v-0.789H155.126z"/>
		</g>
	</g>
	<g>
		<g>
			<path fill="#FFFFFF" d="M162.825,13.533h0.942c0.165,0,0.285,0.025,0.408,0.143c0.143,0.134,0.159,0.255,0.159,0.435v1.095
				c0,0.159-0.016,0.271-0.122,0.4c-0.13,0.154-0.261,0.174-0.445,0.174h-1.138c-0.135,0-0.21-0.036-0.338-0.092l-0.194-0.087
				c-0.139-0.061-0.292-0.107-0.292-0.286c0-0.133,0.112-0.256,0.247-0.256c0.062,0,0.105,0.015,0.165,0.042l0.153,0.066
				c0.072,0.031,0.188,0.103,0.271,0.103h1.185v-1.224h-1.513v-2.248h1.767c0.135,0,0.255,0.072,0.255,0.255
				c0,0.183-0.122,0.256-0.255,0.256h-1.254L162.825,13.533L162.825,13.533z"/>
		</g>
	</g>
	<g>
		<g>
			<path fill="#FFFFFF" d="M170.76,13.967v-1.479c0-0.128,0.062-0.255,0.255-0.255c0.195,0,0.255,0.128,0.255,0.255v1.479
				c0.134,0,0.255,0.072,0.255,0.256c0,0.185-0.122,0.256-0.255,0.256v1.043c0,0.165-0.073,0.256-0.255,0.256
				s-0.255-0.092-0.255-0.256v-1.043h-1.505v-2.427c0-0.128,0.062-0.255,0.255-0.255c0.195,0,0.255,0.128,0.255,0.255v1.914
				L170.76,13.967L170.76,13.967z"/>
		</g>
	</g>
	<g>
		<g>
			<path fill="#FFFFFF" d="M176.448,12.309c-0.136,0-0.256-0.072-0.256-0.255c0-0.183,0.122-0.256,0.256-0.256h1.76
				c0.29,0,0.512,0.221,0.512,0.512v0.982c0,0.205-0.042,0.354-0.198,0.497c0.158,0.143,0.198,0.292,0.198,0.496v0.982
				c0,0.292-0.222,0.512-0.512,0.512h-1.76c-0.136,0-0.256-0.072-0.256-0.255s0.122-0.255,0.256-0.255h1.76v-0.85
				c0-0.287-0.112-0.374-0.255-0.374h-1.006c-0.134,0-0.255-0.072-0.255-0.255c0-0.185,0.122-0.255,0.255-0.255h1.006
				c0.142,0,0.255-0.087,0.255-0.375v-0.85L176.448,12.309L176.448,12.309z"/>
		</g>
	</g>
	<g>
		<g>
			<path fill="#FFFFFF" d="M183.897,15.268h1.762c0.135,0,0.255,0.072,0.255,0.255s-0.122,0.255-0.255,0.255h-2.272V14.11
				c0-0.384,0.195-0.578,0.579-0.578h1.438v-1.224h-1.761c-0.134,0-0.255-0.072-0.255-0.256c0-0.184,0.122-0.255,0.255-0.255h1.698
				c0.169,0,0.285,0.026,0.414,0.143c0.144,0.133,0.159,0.271,0.159,0.456v1.049c0,0.185-0.016,0.322-0.159,0.456
				c-0.129,0.118-0.245,0.144-0.414,0.144h-1.443V15.268L183.897,15.268z"/>
		</g>
	</g>
	<g>
		<g>
			<path fill="#FFFFFF" d="M192.595,15.268v-1.035c0-0.148,0.066-0.255,0.255-0.255c0.189,0,0.255,0.107,0.255,0.255v1.29
				c0,0.184-0.123,0.255-0.255,0.255h-2.017c-0.134,0-0.255-0.072-0.255-0.255s0.122-0.255,0.255-0.255h0.752v-2.959h-0.752
				c-0.134,0-0.255-0.072-0.255-0.255c0-0.183,0.122-0.256,0.255-0.256h1.264v3.471L192.595,15.268L192.595,15.268z"/>
		</g>
	</g>
	<g>
		<g>
			<path fill="#FFFFFF" d="M130.137,18.495h-0.188c-0.169,0-0.313-0.061-0.313-0.255c0-0.185,0.137-0.256,0.297-0.256h0.854
				c0.4,0,0.6,0.164,0.772,0.512l0.45,0.901c0.103,0.209,0.154,0.358,0.154,0.593c0,0.205-0.058,0.379-0.148,0.562l-0.466,0.932
				c-0.179,0.364-0.408,0.481-0.809,0.481h-0.852c-0.135,0-0.255-0.072-0.255-0.255s0.122-0.256,0.255-0.256h0.246L130.137,18.495
				L130.137,18.495z M130.65,21.455h0.098c0.215,0,0.267-0.026,0.357-0.215l0.45-0.911c0.057-0.118,0.098-0.205,0.098-0.333
				c0-0.174-0.056-0.271-0.129-0.419l-0.425-0.865c-0.105-0.22-0.154-0.215-0.389-0.215h-0.062L130.65,21.455L130.65,21.455z"/>
			<path fill="#FFFFFF" d="M134.838,21.455h0.752c0.135,0,0.255,0.072,0.255,0.255s-0.122,0.256-0.255,0.256h-2.016
				c-0.136,0-0.256-0.072-0.256-0.256s0.122-0.255,0.256-0.255h0.752v-2.959h-0.752c-0.136,0-0.256-0.072-0.256-0.255
				c0-0.183,0.122-0.255,0.256-0.255h2.016c0.135,0,0.255,0.072,0.255,0.255c0,0.183-0.122,0.255-0.255,0.255h-0.752V21.455z"/>
			<path fill="#FFFFFF" d="M138.521,20.666c-0.135,0-0.255-0.072-0.255-0.256c0-0.185,0.122-0.256,0.255-0.256h1.007v1.009
				c0,0.496-0.333,0.803-0.82,0.803h-0.881c-0.234,0-0.408-0.041-0.589-0.205c-0.204-0.184-0.239-0.374-0.239-0.63v-1.279
				c0-0.327,0.071-0.496,0.266-0.747l0.604-0.773c0.205-0.261,0.384-0.348,0.717-0.348h0.687c0.136,0,0.255,0.072,0.255,0.255
				c0,0.183-0.123,0.255-0.255,0.255h-0.611c-0.283,0-0.262-0.005-0.432,0.21l-0.557,0.711c-0.16,0.2-0.16,0.415-0.16,0.666v1.004
				c0,0.281,0.062,0.368,0.354,0.368h0.812c0.185,0,0.339-0.041,0.339-0.266v-0.522L138.521,20.666L138.521,20.666z"/>
			<path fill="#FFFFFF" d="M142.202,21.455h0.752c0.135,0,0.255,0.072,0.255,0.255s-0.122,0.256-0.255,0.256h-2.017
				c-0.135,0-0.255-0.072-0.255-0.256s0.122-0.255,0.255-0.255h0.752v-2.959h-0.752c-0.135,0-0.255-0.072-0.255-0.255
				c0-0.183,0.122-0.255,0.255-0.255h2.017c0.135,0,0.255,0.072,0.255,0.255c0,0.183-0.122,0.255-0.255,0.255h-0.752V21.455z"/>
			<path fill="#FFFFFF" d="M144.876,18.495v0.184c0,0.165-0.072,0.256-0.255,0.256c-0.186,0-0.255-0.093-0.255-0.256v-0.696h2.528
				v0.696c0,0.165-0.071,0.256-0.255,0.256s-0.255-0.093-0.255-0.256v-0.184h-0.495v3.215c0,0.164-0.074,0.256-0.255,0.256
				c-0.186,0-0.255-0.092-0.255-0.256v-3.215H144.876z"/>
			<path fill="#FFFFFF" d="M149.05,18.245c0.041-0.138,0.097-0.261,0.26-0.261c0.168,0,0.229,0.128,0.268,0.261l0.986,3.465
				c0.036,0.123-0.104,0.256-0.247,0.256c-0.157,0-0.239-0.133-0.275-0.256l-0.189-0.615h-1.093l-0.194,0.615
				c-0.036,0.123-0.118,0.256-0.275,0.256c-0.144,0-0.283-0.133-0.247-0.256L149.05,18.245z M149.316,19.197h-0.01l-0.401,1.387
				h0.805L149.316,19.197z"/>
			<path fill="#FFFFFF" d="M154.001,21.455c0.135,0,0.255,0.072,0.255,0.255s-0.122,0.256-0.255,0.256h-2.272v-3.727
				c0-0.164,0.072-0.255,0.255-0.255c0.186,0,0.256,0.092,0.256,0.255v3.215L154.001,21.455L154.001,21.455z"/>
		</g>
	</g>
	<g>
		<g>
			<path fill="#FFFFFF" d="M114.24,33.571c0.164,0,0.255,0.072,0.255,0.255c0,0.185-0.094,0.255-0.255,0.255h-3.729v-1.699
				c0-0.235,0.037-0.405,0.21-0.589c0.205-0.22,0.396-0.241,0.673-0.241h0.696c0.261,0,0.444,0.021,0.654,0.21
				c0.225,0.199,0.246,0.41,0.246,0.686v1.121L114.24,33.571L114.24,33.571z M112.479,33.571v-1.137
				c0-0.302-0.075-0.369-0.368-0.369h-0.717c-0.291,0-0.371,0.066-0.371,0.369v1.137H112.479z"/>
			<path fill="#FFFFFF" d="M114.496,28.819c0,0.174-0.037,0.276-0.223,0.312v0.01c0.186,0.036,0.223,0.138,0.223,0.312v0.385
				c0,0.179-0.031,0.225-0.187,0.312l-0.312,0.18c-0.111,0.066-0.123,0.071-0.261,0.071h-2.969c-0.165,0-0.255-0.071-0.255-0.256
				c0-0.184,0.092-0.255,0.255-0.255h2.969l0.246-0.138v-0.22l-0.246-0.138h-1.61c-0.16,0-0.303-0.072-0.303-0.256
				s0.143-0.256,0.303-0.256h1.61l0.246-0.138v-0.222l-0.246-0.138h-2.969c-0.165,0-0.255-0.072-0.255-0.255
				c0-0.184,0.092-0.255,0.255-0.255h2.969c0.138,0,0.148,0.005,0.261,0.071l0.312,0.179c0.154,0.087,0.187,0.133,0.187,0.312
				V28.819z"/>
			<path fill="#FFFFFF" d="M110.514,24.829v-0.64h3.729c0.165,0,0.255,0.071,0.255,0.255s-0.093,0.255-0.255,0.255h-3.021v0.01
				l0.722,0.486h0.082c0.159,0,0.308,0.062,0.308,0.256c0,0.184-0.147,0.256-0.308,0.256h-0.082l-0.722,0.486v0.01h3.021
				c0.165,0,0.255,0.072,0.255,0.256s-0.093,0.255-0.255,0.255h-3.729v-0.64l0.9-0.625L110.514,24.829z"/>
		</g>
	</g>
	<g>
		<g>
			<path fill="#FFFFFF" d="M121.54,33.571c0.165,0,0.255,0.072,0.255,0.255c0,0.185-0.092,0.255-0.255,0.255h-3.728v-1.699
				c0-0.235,0.036-0.405,0.21-0.589c0.205-0.22,0.396-0.241,0.672-0.241h0.696c0.261,0,0.444,0.021,0.655,0.21
				c0.225,0.199,0.245,0.41,0.245,0.686v1.121L121.54,33.571L121.54,33.571z M119.78,33.571v-1.137c0-0.302-0.073-0.369-0.368-0.369
				h-0.717c-0.291,0-0.369,0.066-0.369,0.369v1.137H119.78z"/>
			<path fill="#FFFFFF" d="M121.797,28.819c0,0.174-0.036,0.276-0.221,0.312v0.01c0.185,0.036,0.221,0.138,0.221,0.312v0.385
				c0,0.179-0.031,0.225-0.186,0.312l-0.312,0.18c-0.111,0.066-0.123,0.071-0.26,0.071h-2.971c-0.164,0-0.254-0.071-0.254-0.256
				c0-0.184,0.093-0.255,0.254-0.255h2.971l0.246-0.138v-0.22l-0.246-0.138h-1.612c-0.159,0-0.303-0.072-0.303-0.256
				s0.144-0.256,0.303-0.256h1.612l0.246-0.138v-0.222l-0.246-0.138h-2.971c-0.164,0-0.254-0.072-0.254-0.255
				c0-0.184,0.093-0.255,0.254-0.255h2.971c0.137,0,0.147,0.005,0.26,0.071l0.312,0.179c0.153,0.087,0.186,0.133,0.186,0.312V28.819
				L121.797,28.819z"/>
			<path fill="#FFFFFF" d="M117.815,24.829v-0.64h3.729c0.164,0,0.255,0.071,0.255,0.255s-0.093,0.255-0.255,0.255h-3.021v0.01
				l0.724,0.486h0.081c0.158,0,0.308,0.062,0.308,0.256c0,0.184-0.148,0.256-0.308,0.256h-0.081l-0.724,0.486v0.01h3.021
				c0.164,0,0.255,0.072,0.255,0.256s-0.093,0.255-0.255,0.255h-3.729v-0.64l0.901-0.625L117.815,24.829z"/>
		</g>
	</g>
	<g>
		<g>
			<path fill="#FFFFFF" d="M128.842,33.571c0.164,0,0.254,0.072,0.254,0.255c0,0.185-0.092,0.255-0.254,0.255h-3.729v-1.699
				c0-0.235,0.036-0.405,0.212-0.589c0.202-0.22,0.394-0.241,0.671-0.241h0.696c0.26,0,0.444,0.021,0.655,0.21
				c0.225,0.199,0.245,0.41,0.245,0.686v1.121L128.842,33.571L128.842,33.571z M127.08,33.571v-1.137
				c0-0.302-0.075-0.369-0.369-0.369h-0.717c-0.29,0-0.369,0.066-0.369,0.369v1.137H127.08z"/>
			<path fill="#FFFFFF" d="M129.097,28.819c0,0.174-0.036,0.276-0.22,0.312v0.01c0.184,0.036,0.22,0.138,0.22,0.312v0.385
				c0,0.179-0.03,0.225-0.185,0.312l-0.313,0.18c-0.11,0.066-0.123,0.071-0.26,0.071h-2.969c-0.165,0-0.255-0.071-0.255-0.256
				c0-0.184,0.092-0.255,0.255-0.255h2.969l0.246-0.138v-0.22l-0.246-0.138h-1.611c-0.159,0-0.303-0.072-0.303-0.256
				s0.144-0.256,0.303-0.256h1.611l0.246-0.138v-0.222l-0.246-0.138h-2.969c-0.165,0-0.255-0.072-0.255-0.255
				c0-0.184,0.092-0.255,0.255-0.255h2.969c0.137,0,0.148,0.005,0.26,0.071l0.313,0.179c0.153,0.087,0.185,0.133,0.185,0.312V28.819
				z"/>
			<path fill="#FFFFFF" d="M125.115,24.829v-0.64h3.728c0.164,0,0.254,0.071,0.254,0.255s-0.092,0.255-0.254,0.255h-3.019v0.01
				l0.722,0.486h0.08c0.16,0,0.309,0.062,0.309,0.256c0,0.184-0.147,0.256-0.309,0.256h-0.08l-0.722,0.486v0.01h3.019
				c0.164,0,0.254,0.072,0.254,0.256s-0.092,0.255-0.254,0.255h-3.728v-0.64l0.9-0.625L125.115,24.829z"/>
		</g>
	</g>
	<g>
		<g>
			<path fill="#FFFFFF" d="M158.083,33.571c0.165,0,0.255,0.072,0.255,0.255c0,0.185-0.092,0.255-0.255,0.255h-3.728v-1.699
				c0-0.235,0.036-0.405,0.21-0.589c0.204-0.22,0.396-0.241,0.672-0.241h0.697c0.259,0,0.443,0.021,0.653,0.21
				c0.225,0.199,0.247,0.41,0.247,0.686v1.121L158.083,33.571L158.083,33.571z M156.323,33.571v-1.137
				c0-0.302-0.075-0.369-0.369-0.369h-0.718c-0.29,0-0.368,0.066-0.368,0.369v1.137H156.323z"/>
			<path fill="#FFFFFF" d="M158.34,28.819c0,0.174-0.036,0.276-0.222,0.312v0.01c0.186,0.036,0.222,0.138,0.222,0.312v0.385
				c0,0.179-0.031,0.225-0.186,0.312l-0.312,0.18c-0.112,0.066-0.123,0.071-0.26,0.071h-2.97c-0.164,0-0.255-0.071-0.255-0.256
				c0-0.184,0.093-0.255,0.255-0.255h2.97l0.246-0.138v-0.22l-0.246-0.138h-1.612c-0.16,0-0.302-0.072-0.302-0.256
				s0.142-0.256,0.302-0.256h1.612l0.246-0.138v-0.222l-0.246-0.138h-2.97c-0.164,0-0.255-0.072-0.255-0.255
				c0-0.184,0.093-0.255,0.255-0.255h2.97c0.137,0,0.146,0.005,0.26,0.071l0.312,0.179c0.153,0.087,0.186,0.133,0.186,0.312V28.819z
				"/>
			<path fill="#FFFFFF" d="M154.358,24.829v-0.64h3.728c0.165,0,0.255,0.071,0.255,0.255s-0.092,0.255-0.255,0.255h-3.02v0.01
				l0.724,0.486h0.08c0.159,0,0.309,0.062,0.309,0.256c0,0.184-0.147,0.256-0.309,0.256h-0.08l-0.724,0.486v0.01h3.02
				c0.165,0,0.255,0.072,0.255,0.256s-0.092,0.255-0.255,0.255h-3.728v-0.64l0.901-0.625L154.358,24.829z"/>
		</g>
	</g>
	<g>
		<g>
			<path fill="#FFFFFF" d="M164.881,33.571c0.165,0,0.255,0.072,0.255,0.255c0,0.185-0.092,0.255-0.255,0.255h-3.728v-1.699
				c0-0.235,0.036-0.405,0.21-0.589c0.203-0.22,0.396-0.241,0.673-0.241h0.695c0.261,0,0.445,0.021,0.655,0.21
				c0.225,0.199,0.245,0.41,0.245,0.686v1.121L164.881,33.571L164.881,33.571z M163.12,33.571v-1.137
				c0-0.302-0.074-0.369-0.369-0.369h-0.716c-0.291,0-0.369,0.066-0.369,0.369v1.137H163.12z"/>
			<path fill="#FFFFFF" d="M165.137,28.819c0,0.174-0.036,0.276-0.22,0.312v0.01c0.184,0.036,0.22,0.138,0.22,0.312v0.385
				c0,0.179-0.031,0.225-0.185,0.312l-0.312,0.18c-0.111,0.066-0.123,0.071-0.261,0.071h-2.969c-0.165,0-0.256-0.071-0.256-0.256
				c0-0.184,0.093-0.255,0.256-0.255h2.969l0.246-0.138v-0.22l-0.246-0.138h-1.612c-0.158,0-0.302-0.072-0.302-0.256
				s0.144-0.256,0.302-0.256h1.612l0.246-0.138v-0.222l-0.246-0.138h-2.969c-0.165,0-0.256-0.072-0.256-0.255
				c0-0.184,0.093-0.255,0.256-0.255h2.969c0.138,0,0.148,0.005,0.261,0.071l0.312,0.179c0.152,0.087,0.185,0.133,0.185,0.312
				V28.819z"/>
			<path fill="#FFFFFF" d="M161.155,24.829v-0.64h3.728c0.165,0,0.255,0.071,0.255,0.255s-0.092,0.255-0.255,0.255h-3.02v0.01
				l0.723,0.486h0.081c0.159,0,0.308,0.062,0.308,0.256c0,0.184-0.147,0.256-0.308,0.256h-0.081l-0.723,0.486v0.01h3.02
				c0.165,0,0.255,0.072,0.255,0.256s-0.092,0.255-0.255,0.255h-3.728v-0.64l0.901-0.625L161.155,24.829z"/>
		</g>
	</g>
	<g>
		<g>
			<path fill="#FFFFFF" d="M179.232,33.571c0.165,0,0.255,0.072,0.255,0.255c0,0.185-0.093,0.255-0.255,0.255h-3.727v-1.699
				c0-0.235,0.035-0.405,0.21-0.589c0.204-0.22,0.394-0.241,0.671-0.241h0.697c0.26,0,0.442,0.021,0.653,0.21
				c0.226,0.199,0.246,0.41,0.246,0.686v1.121L179.232,33.571L179.232,33.571z M177.471,33.571v-1.137
				c0-0.302-0.076-0.369-0.37-0.369h-0.717c-0.29,0-0.369,0.066-0.369,0.369v1.137H177.471z"/>
			<path fill="#FFFFFF" d="M179.488,28.819c0,0.174-0.035,0.276-0.222,0.312v0.01c0.187,0.036,0.222,0.138,0.222,0.312v0.385
				c0,0.179-0.029,0.225-0.184,0.312l-0.313,0.18c-0.11,0.066-0.123,0.071-0.261,0.071h-2.969c-0.165,0-0.255-0.071-0.255-0.256
				c0-0.184,0.092-0.255,0.255-0.255h2.969l0.246-0.138v-0.22l-0.246-0.138h-1.61c-0.159,0-0.304-0.072-0.304-0.256
				s0.145-0.256,0.304-0.256h1.61l0.246-0.138v-0.222l-0.246-0.138h-2.969c-0.165,0-0.255-0.072-0.255-0.255
				c0-0.184,0.092-0.255,0.255-0.255h2.969c0.138,0,0.149,0.005,0.261,0.071l0.313,0.179c0.153,0.087,0.184,0.133,0.184,0.312
				V28.819z"/>
			<path fill="#FFFFFF" d="M175.505,24.829v-0.64h3.728c0.164,0,0.255,0.071,0.255,0.255s-0.093,0.255-0.255,0.255h-3.019v0.01
				l0.722,0.486h0.08c0.16,0,0.31,0.062,0.31,0.256c0,0.184-0.148,0.256-0.31,0.256h-0.08l-0.722,0.486v0.01h3.019
				c0.164,0,0.255,0.072,0.255,0.256s-0.093,0.255-0.255,0.255h-3.728v-0.64l0.901-0.625L175.505,24.829z"/>
		</g>
	</g>
	<g>
		<g>
			<path fill="#FFFFFF" d="M190.618,23.752h0.186c0.164,0,0.255,0.072,0.255,0.255c0,0.185-0.093,0.256-0.255,0.256h-0.697v-2.528
				h0.697c0.164,0,0.255,0.071,0.255,0.255c0,0.185-0.093,0.256-0.255,0.256h-0.186v0.496h3.216c0.165,0,0.255,0.072,0.255,0.256
				c0,0.185-0.092,0.255-0.255,0.255h-3.216V23.752z"/>
			<path fill="#FFFFFF" d="M192.098,19.609l-1.565,0.912c-0.058,0.036-0.113,0.061-0.187,0.061c-0.135,0-0.24-0.123-0.24-0.25
				c0-0.169,0.129-0.225,0.252-0.297l1.224-0.716l-1.224-0.717c-0.123-0.072-0.252-0.128-0.252-0.297c0-0.128,0.105-0.25,0.24-0.25
				c0.072,0,0.129,0.025,0.187,0.061l1.565,0.911l1.566-0.911c0.057-0.036,0.111-0.061,0.186-0.061c0.134,0,0.241,0.122,0.241,0.25
				c0,0.169-0.13,0.225-0.253,0.297l-1.222,0.717l1.222,0.716c0.123,0.072,0.253,0.128,0.253,0.297c0,0.128-0.107,0.25-0.241,0.25
				c-0.073,0-0.129-0.025-0.186-0.061L192.098,19.609z"/>
		</g>
	</g>
	<g>
		<g>
			<path fill="#FFFFFF" d="M199.787,11.797c0.281,0,0.512,0.23,0.512,0.512v2.959c0,0.286-0.222,0.512-0.512,0.512h-1.508
				c-0.289,0-0.512-0.225-0.512-0.512v-2.959c0-0.281,0.23-0.512,0.512-0.512H199.787z M199.787,15.268v-2.959h-1.508v2.959H199.787
				z"/>
		</g>
	</g>
	<g>
		<g>
			<path fill="#FFFFFF" d="M200.757,23.752c0.164,0,0.254,0.072,0.254,0.255c0,0.185-0.092,0.256-0.254,0.256h-3.729v-1.72
				c0-0.405,0.285-0.809,0.741-0.809h0.354c0.48,0,0.728,0.399,0.728,0.809v0.471l1.648-1.152c0.075-0.057,0.173-0.128,0.271-0.128
				c0.144,0,0.24,0.118,0.24,0.261c0,0.102-0.062,0.169-0.142,0.226l-2.02,1.412v0.118h1.904L200.757,23.752L200.757,23.752z
				 M198.34,23.752v-1.137c0-0.143-0.01-0.369-0.216-0.369h-0.354c-0.203,0-0.229,0.21-0.229,0.364v1.141L198.34,23.752
				L198.34,23.752z"/>
			<path fill="#FFFFFF" d="M199.022,19.609l-1.566,0.912c-0.058,0.036-0.112,0.061-0.186,0.061c-0.135,0-0.24-0.123-0.24-0.25
				c0-0.169,0.129-0.225,0.253-0.297l1.222-0.716l-1.222-0.717c-0.124-0.072-0.253-0.128-0.253-0.297c0-0.128,0.105-0.25,0.24-0.25
				c0.072,0,0.129,0.025,0.186,0.061l1.566,0.911l1.566-0.911c0.057-0.036,0.112-0.061,0.185-0.061c0.136,0,0.24,0.122,0.24,0.25
				c0,0.169-0.128,0.225-0.251,0.297l-1.224,0.717l1.224,0.716c0.123,0.072,0.251,0.128,0.251,0.297c0,0.128-0.104,0.25-0.24,0.25
				c-0.071,0-0.128-0.025-0.185-0.061L199.022,19.609z"/>
		</g>
	</g>
	<polyline fill="none" stroke="#FFFFFF" points="38.155,68.903 39.222,68.903 39.222,76.383 38.155,76.383 	"/>
	<polyline fill="none" stroke="#FFFFFF" points="38.155,78.532 39.222,78.532 39.222,86.012 38.155,86.012 	"/>
	<rect x="0.01" y="25.387" fill="#676666" width="37.929" height="33.902"/>
	<rect x="37.94" y="25.387" fill="#676666" width="8.056" height="33.902"/>
	<rect x="15.114" y="115.471" width="37.261" height="23.83"/>
	<rect x="14.78" y="114.129" width="7.722" height="26.182"/>
	<rect x="80.445" y="1.908" fill="#404040" width="7.18" height="7.178"/>
	<rect x="82.648" y="4.11" width="2.774" height="2.773"/>
	<polygon fill="#2A2A29" points="81.625,3.087 82.648,4.11 85.421,4.11 86.443,3.087 	"/>
	<polygon fill="#474747" points="86.444,3.087 85.421,4.113 85.421,6.885 86.444,7.906 	"/>
	<polygon fill="#595959" points="86.443,7.906 85.421,6.885 82.647,6.885 81.625,7.906 	"/>
	<polygon fill="#373737" points="81.624,7.906 82.647,6.883 82.647,4.11 81.624,3.087 	"/>
	<rect x="87.623" y="1.908" fill="#404040" width="7.177" height="7.178"/>
	<rect x="89.825" y="4.11" width="2.772" height="2.773"/>
	<polygon fill="#2A2A29" points="88.802,3.087 89.824,4.11 92.598,4.11 93.621,3.087 	"/>
	<polygon fill="#474747" points="93.621,3.087 92.598,4.113 92.598,6.885 93.621,7.906 	"/>
	<polygon fill="#595959" points="93.619,7.906 92.598,6.885 89.824,6.885 88.802,7.906 	"/>
	<polygon fill="#373737" points="88.801,7.906 89.824,6.883 89.824,4.11 88.801,3.087 	"/>
	<rect x="94.8" y="1.908" fill="#404040" width="7.18" height="7.178"/>
	<rect x="97.003" y="4.11" width="2.772" height="2.773"/>
	<polygon fill="#2A2A29" points="95.98,3.087 97.002,4.11 99.777,4.11 100.799,3.087 	"/>
	<polygon fill="#474747" points="100.799,3.087 99.777,4.113 99.777,6.885 100.799,7.906 	"/>
	<polygon fill="#595959" points="100.798,7.906 99.776,6.885 97.001,6.885 95.98,7.906 	"/>
	<polygon fill="#373737" points="95.979,7.906 97.001,6.883 97.001,4.11 95.979,3.087 	"/>
	<rect x="101.978" y="1.908" fill="#404040" width="7.178" height="7.178"/>
	<rect x="104.18" y="4.11" width="2.774" height="2.773"/>
	<polygon fill="#2A2A29" points="103.157,3.087 104.18,4.11 106.953,4.11 107.977,3.087 	"/>
	<polygon fill="#474747" points="107.977,3.087 106.953,4.113 106.953,6.885 107.977,7.906 	"/>
	<polygon fill="#595959" points="107.975,7.906 106.953,6.885 104.179,6.885 103.157,7.906 	"/>
	<polygon fill="#373737" points="103.156,7.906 104.179,6.883 104.179,4.11 103.156,3.087 	"/>
	<rect x="123.638" y="138.684" fill="#404040" width="7.178" height="7.178"/>
	<rect x="125.84" y="140.887" width="2.773" height="2.771"/>
	<polygon fill="#2A2A29" points="124.817,139.864 125.839,140.885 128.614,140.885 129.635,139.864 	"/>
	<polygon fill="#474747" points="129.636,139.864 128.614,140.889 128.614,143.661 129.636,144.682 	"/>
	<polygon fill="#595959" points="129.635,144.682 128.614,143.661 125.839,143.661 124.817,144.682 	"/>
	<polygon fill="#373737" points="124.817,144.682 125.839,143.659 125.839,140.885 124.817,139.864 	"/>
	<rect x="116.44" y="138.684" fill="#404040" width="7.178" height="7.178"/>
	<rect x="118.642" y="140.887" width="2.774" height="2.771"/>
	<polygon fill="#2A2A29" points="117.618,139.864 118.64,140.885 121.414,140.885 122.436,139.864 	"/>
	<polygon fill="#474747" points="122.438,139.864 121.414,140.889 121.414,143.661 122.438,144.682 	"/>
	<polygon fill="#595959" points="122.436,144.682 121.414,143.661 118.64,143.661 117.618,144.682 	"/>
	<polygon fill="#373737" points="117.618,144.682 118.64,143.659 118.64,140.885 117.618,139.864 	"/>
	<rect x="109.24" y="138.684" fill="#404040" width="7.178" height="7.178"/>
	<rect x="111.443" y="140.887" width="2.774" height="2.771"/>
	<polygon fill="#2A2A29" points="110.419,139.864 111.442,140.885 114.216,140.885 115.238,139.864 	"/>
	<polygon fill="#474747" points="115.239,139.864 114.216,140.889 114.216,143.661 115.239,144.682 	"/>
	<polygon fill="#595959" points="115.238,144.682 114.216,143.661 111.442,143.661 110.419,144.682 	"/>
	<polygon fill="#373737" points="110.419,144.682 111.442,143.659 111.442,140.885 110.419,139.864 	"/>
	<rect x="130.815" y="138.684" fill="#404040" width="7.179" height="7.178"/>
	<rect x="133.018" y="140.887" width="2.772" height="2.771"/>
	<polygon fill="#2A2A29" points="131.994,139.864 133.017,140.885 135.79,140.885 136.813,139.864 	"/>
	<polygon fill="#474747" points="136.815,139.864 135.79,140.889 135.79,143.661 136.815,144.682 	"/>
	<polygon fill="#595959" points="136.813,144.682 135.79,143.661 133.015,143.661 131.994,144.682 	"/>
	<polygon fill="#373737" points="131.994,144.682 133.015,143.659 133.015,140.885 131.994,139.864 	"/>
	<rect x="137.992" y="138.684" fill="#404040" width="7.18" height="7.178"/>
	<rect x="140.196" y="140.887" width="2.774" height="2.771"/>
	<polygon fill="#2A2A29" points="139.172,139.864 140.194,140.885 142.97,140.885 143.99,139.864 	"/>
	<polygon fill="#474747" points="143.99,139.864 142.97,140.889 142.97,143.661 143.99,144.682 	"/>
	<polygon fill="#595959" points="143.99,144.682 142.97,143.661 140.194,143.661 139.172,144.682 	"/>
	<polygon fill="#373737" points="139.172,144.682 140.194,143.659 140.194,140.885 139.172,139.864 	"/>
	<rect x="145.17" y="138.684" fill="#404040" width="7.179" height="7.178"/>
	<rect x="147.372" y="140.887" width="2.773" height="2.771"/>
	<polygon fill="#2A2A29" points="146.348,139.864 147.372,140.885 150.147,140.885 151.168,139.864 	"/>
	<polygon fill="#474747" points="151.169,139.864 150.147,140.889 150.147,143.661 151.169,144.682 	"/>
	<polygon fill="#595959" points="151.168,144.682 150.145,143.661 147.372,143.661 146.348,144.682 	"/>
	<polygon fill="#373737" points="146.348,144.682 147.372,143.659 147.372,140.885 146.348,139.864 	"/>
	<rect x="159.632" y="138.684" fill="#404040" width="7.178" height="7.178"/>
	<rect x="161.835" y="140.887" width="2.771" height="2.771"/>
	<polygon fill="#2A2A29" points="160.812,139.864 161.833,140.885 164.608,140.885 165.629,139.864 	"/>
	<polygon fill="#474747" points="165.631,139.864 164.608,140.889 164.608,143.661 165.631,144.682 	"/>
	<polygon fill="#595959" points="165.629,144.682 164.607,143.661 161.833,143.661 160.812,144.682 	"/>
	<polygon fill="#373737" points="160.812,144.682 161.833,143.659 161.833,140.885 160.812,139.864 	"/>
	<rect x="166.81" y="138.684" fill="#404040" width="7.178" height="7.178"/>
	<rect x="169.012" y="140.887" width="2.773" height="2.771"/>
	<polygon fill="#2A2A29" points="167.99,139.864 169.012,140.885 171.785,140.885 172.809,139.864 	"/>
	<polygon fill="#474747" points="172.809,139.864 171.785,140.889 171.785,143.661 172.809,144.682 	"/>
	<polygon fill="#595959" points="172.807,144.682 171.784,143.661 169.01,143.661 167.99,144.682 	"/>
	<polygon fill="#373737" points="167.988,144.682 169.01,143.659 169.01,140.885 167.988,139.864 	"/>
	<rect x="173.988" y="138.684" fill="#404040" width="7.18" height="7.178"/>
	<rect x="176.19" y="140.887" width="2.773" height="2.771"/>
	<polygon fill="#2A2A29" points="175.165,139.864 176.189,140.885 178.962,140.885 179.985,139.864 	"/>
	<polygon fill="#474747" points="179.985,139.864 178.962,140.889 178.962,143.661 179.985,144.682 	"/>
	<polygon fill="#595959" points="179.985,144.682 178.962,143.661 176.189,143.661 175.165,144.682 	"/>
	<polygon fill="#373737" points="175.165,144.682 176.189,143.659 176.189,140.885 175.165,139.864 	"/>
	<rect x="181.164" y="138.684" fill="#404040" width="7.178" height="7.178"/>
	<rect x="183.367" y="140.887" width="2.772" height="2.771"/>
	<polygon fill="#2A2A29" points="182.344,139.864 183.365,140.885 186.141,140.885 187.163,139.864 	"/>
	<polygon fill="#474747" points="187.163,139.864 186.141,140.889 186.141,143.661 187.163,144.682 	"/>
	<polygon fill="#595959" points="187.163,144.682 186.14,143.661 183.365,143.661 182.344,144.682 	"/>
	<polygon fill="#373737" points="182.344,144.682 183.365,143.659 183.365,140.885 182.344,139.864 	"/>
	<rect x="188.342" y="138.684" fill="#404040" width="7.177" height="7.178"/>
	<rect x="190.544" y="140.887" width="2.772" height="2.771"/>
	<polygon fill="#2A2A29" points="189.52,139.864 190.544,140.885 193.318,140.885 194.338,139.864 	"/>
	<polygon fill="#474747" points="194.341,139.864 193.318,140.889 193.318,143.661 194.341,144.682 	"/>
	<polygon fill="#595959" points="194.338,144.682 193.316,143.661 190.544,143.661 189.52,144.682 	"/>
	<polygon fill="#373737" points="189.52,144.682 190.544,143.659 190.544,140.885 189.52,139.864 	"/>
	<rect x="195.519" y="138.684" fill="#404040" width="7.178" height="7.178"/>
	<rect x="197.722" y="140.887" width="2.771" height="2.771"/>
	<polygon fill="#2A2A29" points="196.698,139.864 197.719,140.885 200.494,140.885 201.516,139.864 	"/>
	<polygon fill="#474747" points="201.518,139.864 200.494,140.889 200.494,143.661 201.518,144.682 	"/>
	<polygon fill="#595959" points="201.516,144.682 200.492,143.661 197.719,143.661 196.698,144.682 	"/>
	<polygon fill="#373737" points="196.698,144.682 197.719,143.659 197.719,140.885 196.698,139.864 	"/>
	<rect x="109.156" y="1.908" fill="#404040" width="7.179" height="7.178"/>
	<rect x="111.359" y="4.11" width="2.773" height="2.773"/>
	<polygon fill="#2A2A29" points="110.335,3.087 111.358,4.11 114.132,4.11 115.154,3.087 	"/>
	<polygon fill="#474747" points="115.154,3.087 114.132,4.113 114.132,6.885 115.154,7.906 	"/>
	<polygon fill="#595959" points="115.154,7.906 114.13,6.885 111.358,6.885 110.335,7.906 	"/>
	<polygon fill="#373737" points="110.333,7.906 111.358,6.883 111.358,4.11 110.333,3.087 	"/>
	<rect x="116.333" y="1.908" fill="#404040" width="7.179" height="7.178"/>
	<rect x="118.535" y="4.11" width="2.772" height="2.773"/>
	<polygon fill="#2A2A29" points="117.513,3.087 118.535,4.11 121.309,4.11 122.331,3.087 	"/>
	<polygon fill="#474747" points="122.331,3.087 121.309,4.113 121.309,6.885 122.331,7.906 	"/>
	<polygon fill="#595959" points="122.331,7.906 121.308,6.885 118.534,6.885 117.513,7.906 	"/>
	<polygon fill="#373737" points="117.512,7.906 118.534,6.883 118.534,4.11 117.512,3.087 	"/>
	<rect x="123.511" y="1.908" fill="#404040" width="7.178" height="7.178"/>
	<rect x="125.714" y="4.11" width="2.773" height="2.773"/>
	<polygon fill="#2A2A29" points="124.692,3.087 125.712,4.11 128.488,4.11 129.51,3.087 	"/>
	<polygon fill="#474747" points="129.51,3.087 128.488,4.113 128.488,6.885 129.51,7.906 	"/>
	<polygon fill="#595959" points="129.509,7.906 128.487,6.885 125.712,6.885 124.692,7.906 	"/>
	<polygon fill="#373737" points="124.69,7.906 125.712,6.883 125.712,4.11 124.69,3.087 	"/>
	<rect x="130.688" y="1.908" fill="#404040" width="7.18" height="7.178"/>
	<rect x="132.892" y="4.11" width="2.773" height="2.773"/>
	<polygon fill="#2A2A29" points="131.868,3.087 132.89,4.11 135.664,4.11 136.687,3.087 	"/>
	<polygon fill="#474747" points="136.687,3.087 135.664,4.113 135.664,6.885 136.687,7.906 	"/>
	<polygon fill="#595959" points="136.686,7.906 135.663,6.885 132.89,6.885 131.868,7.906 	"/>
	<polygon fill="#373737" points="131.866,7.906 132.89,6.883 132.89,4.11 131.866,3.087 	"/>
	<rect x="145.234" y="1.908" fill="#404040" width="7.181" height="7.178"/>
	<rect x="147.438" y="4.11" width="2.772" height="2.773"/>
	<polygon fill="#2A2A29" points="146.413,3.087 147.435,4.11 150.21,4.11 151.232,3.087 	"/>
	<polygon fill="#474747" points="151.232,3.087 150.21,4.113 150.21,6.885 151.232,7.906 	"/>
	<polygon fill="#595959" points="151.232,7.906 150.209,6.885 147.435,6.885 146.413,7.906 	"/>
	<polygon fill="#373737" points="146.413,7.906 147.435,6.883 147.435,4.11 146.413,3.087 	"/>
	<rect x="152.412" y="1.908" fill="#404040" width="7.176" height="7.178"/>
	<rect x="154.615" y="4.11" width="2.773" height="2.773"/>
	<polygon fill="#2A2A29" points="153.591,3.087 154.615,4.11 157.388,4.11 158.409,3.087 	"/>
	<polygon fill="#474747" points="158.411,3.087 157.388,4.113 157.388,6.885 158.411,7.906 	"/>
	<polygon fill="#595959" points="158.409,7.906 157.388,6.885 154.614,6.885 153.591,7.906 	"/>
	<polygon fill="#373737" points="153.591,7.906 154.614,6.883 154.614,4.11 153.591,3.087 	"/>
	<rect x="159.588" y="1.908" fill="#404040" width="7.181" height="7.178"/>
	<rect x="161.792" y="4.11" width="2.772" height="2.773"/>
	<polygon fill="#2A2A29" points="160.769,3.087 161.792,4.11 164.565,4.11 165.588,3.087 	"/>
	<polygon fill="#474747" points="165.588,3.087 164.565,4.113 164.565,6.885 165.588,7.906 	"/>
	<polygon fill="#595959" points="165.586,7.906 164.565,6.885 161.79,6.885 160.769,7.906 	"/>
	<polygon fill="#373737" points="160.768,7.906 161.79,6.883 161.79,4.11 160.768,3.087 	"/>
	<rect x="166.767" y="1.908" fill="#404040" width="7.179" height="7.178"/>
	<rect x="168.97" y="4.11" width="2.772" height="2.773"/>
	<polygon fill="#2A2A29" points="167.947,3.087 168.968,4.11 171.743,4.11 172.765,3.087 	"/>
	<polygon fill="#474747" points="172.765,3.087 171.743,4.113 171.743,6.885 172.765,7.906 	"/>
	<polygon fill="#595959" points="172.765,7.906 171.741,6.885 168.968,6.885 167.947,7.906 	"/>
	<polygon fill="#373737" points="167.947,7.906 168.968,6.883 168.968,4.11 167.947,3.087 	"/>
	<rect x="173.945" y="1.908" fill="#404040" width="7.179" height="7.178"/>
	<rect x="176.147" y="4.11" width="2.774" height="2.773"/>
	<polygon fill="#2A2A29" points="175.123,3.087 176.146,4.11 178.92,4.11 179.942,3.087 	"/>
	<polygon fill="#474747" points="179.942,3.087 178.92,4.113 178.92,6.885 179.942,7.906 	"/>
	<polygon fill="#595959" points="179.942,7.906 178.92,6.885 176.146,6.885 175.123,7.906 	"/>
	<polygon fill="#373737" points="175.123,7.906 176.146,6.883 176.146,4.11 175.123,3.087 	"/>
	<rect x="181.122" y="1.908" fill="#404040" width="7.179" height="7.178"/>
	<rect x="183.324" y="4.11" width="2.772" height="2.773"/>
	<polygon fill="#2A2A29" points="182.302,3.087 183.324,4.11 186.097,4.11 187.12,3.087 	"/>
	<polygon fill="#474747" points="187.12,3.087 186.097,4.113 186.097,6.885 187.12,7.906 	"/>
	<polygon fill="#595959" points="187.12,7.906 186.097,6.885 183.324,6.885 182.302,7.906 	"/>
	<polygon fill="#373737" points="182.3,7.906 183.324,6.883 183.324,4.11 182.3,3.087 	"/>
	<rect x="188.3" y="1.908" fill="#404040" width="7.178" height="7.178"/>
	<rect x="190.502" y="4.11" width="2.771" height="2.773"/>
	<polygon fill="#2A2A29" points="189.48,3.087 190.502,4.11 193.275,4.11 194.298,3.087 	"/>
	<polygon fill="#474747" points="194.299,3.087 193.275,4.113 193.275,6.885 194.299,7.906 	"/>
	<polygon fill="#595959" points="194.298,7.906 193.275,6.885 190.501,6.885 189.48,7.906 	"/>
	<polygon fill="#373737" points="189.476,7.906 190.501,6.883 190.501,4.11 189.476,3.087 	"/>
	<rect x="195.477" y="1.908" fill="#404040" width="7.18" height="7.178"/>
	<rect x="197.68" y="4.11" width="2.774" height="2.773"/>
	<polygon fill="#2A2A29" points="196.657,3.087 197.679,4.11 200.453,4.11 201.476,3.087 	"/>
	<polygon fill="#474747" points="201.476,3.087 200.453,4.113 200.453,6.885 201.476,7.906 	"/>
	<polygon fill="#595959" points="201.474,7.906 200.452,6.885 197.679,6.885 196.657,7.906 	"/>
	<polygon fill="#373737" points="196.656,7.906 197.679,6.883 197.679,4.11 196.656,3.087 	"/>
</g>
<text  transform="matrix(1 0 0 1 116.1038 49.3794)" fill="#FFFFFF" font-family="OCRA" font-size="9">Arduino</text>
</svg>
